{
.appVersion = "3436";
.formatVersion = 3;
DisplayStrings = (
"Misallying Serpigines Ensheathed SelfParody Preambulatory Falculas Seasoners BackPedalling Antilopine CussWord Unlay Pigeonholing Kails Indulgently Sodger Epithelium Bod Dreamers Correspondents Religionising Tautologising Disoperation Stela Shaped Mathematics Studios Generalised Beech Cladists Splendidious Scarabs Pupillages Exfoliation Veto Dogbolts Borgo PanSlavism Polarization Slimier Purrings Bacilli Truncal Bustler Maquiladora Highermost Shikaris Hopelessness Cattery Unsurpassable Acrimoniousness",
"+−×÷=≠><≥≤±≈~^%‰",
"ABC/C.ss01 DEFGHIJKLMNOPQRSTUVWXYZabcdefgḣıiȷjklmnopqrstuvwxyz/k.ss01/r.ss01/t.ss01 0123456789 .,:;…!¡?¿·•*#///backslash -–—_(){}[]‚„“”‘’«»‹›\"'@&§©®°|¢$€£¥+−×÷=≠><≥≤±≈~^%‰",
"ABCDEFGHIJKLMNOPQRSTUVWXYZ/C.ss01/E.ss01/F.ss01/Q.ss01/R.ss01 abc/c.ss01 defghijklmnopqrstuvwxyz/k.ss01/r.ss01/t.ss01 0123456789 .,:;…!¡?¿·•*#///backslash -–—_(){}[]‚„“”‘’«»‹›\"'@&§©®°|¢$€£¥+−×÷=≠><≥≤±≈~^%‰",
"́́Ś̌ŠTŤŢȚkķ/t.ss01 §|",
"AÁĂÂÄÀĀĄÅÃÆBCĆČÇĊDĎĐÐEÉĚÊËĖÈĒĘƏFGĞĢĠHĦIĲÍÎÏİÌĪĮJ/Jacute KĶLĹĽĻŁMNŃŇŅÑOÓÔÖÒŐŌØÕŒPÞQRŔŘŖSŚŠŞȘẞTŤŢȚUÚÛÜÙŰŪŲŮVWẂŴẄẀXYÝŶŸỲZŹŽŻ/C.ss01/Cacute.ss01/Ccaron.ss01/Ccedilla.ss01/Cdotaccent.ss01/E.ss01/Eacute.ss01/Ecaron.ss01/Ecircumflex.ss01/Edieresis.ss01/Edotaccent.ss01/Egrave.ss01/Emacron.ss01/Eogonek.ss01/F.ss01  /Q.ss01/R.ss01/Racute.ss01/Rcaron.ss01/Rcommaaccent.ss01 aáăâäàāąåãæbcćčçċdďđðeéěêëėèēęəfgğģġhħiıíîï/idotaccent ìīįĳjȷ/jacute kķlĺľļłmnńňņñoóôöòőōøõœpþqrŕřŗsśšşșßtťţțuúûüùűūųůvwẃŵẅẁxyýŷÿỳzźžż/c.ss01/cacute.ss01/ccaron.ss01/ccedilla.ss01/cdotaccent.ss01/k.ss01/kcommaaccent.ss01/r.ss01/racute.ss01/rcaron.ss01/rcommaaccent.ss01/t.ss01/tcaron.ss01/tcedilla.ss01/tcommaaccent.ss01 ªº0123456789¹²³ .,:;…!¡?¿·•*#///backslash -–—_(){}[]‚„“”‘’«»‹›\"'@&§©®°|¢$€£¥+−×÷=≠><≥≤±≈~^%‰̈̇̀́̋/caroncomb.alt ̧̨̦̂̌̆̊̃̄̒",
"/zero.dnom/one.dnom/two.dnom/three.dnom/four.dnom/five.dnom/six.dnom/seven.dnom/eight.dnom/nine.dnom 

glyphs = (
{
glyphname = A;
kernLeft = A;
kernRight = A;
lastChange = "2026-05-05 09:17:38 +0000";
layers = (
{
anchors = (
{
name = bottom;
pos = (260,0);
},
{
name = ogonek;
pos = (494,0);
},
{
name = top;
pos = (290,700);
}
);
layerId = m01;
shapes = (
{
closed = 1;
nodes = (
(342,-42,o),
(486,-9,o),
(485,-9,c),
(501,-2,o),
(505,5,o),
(491,5,c),
(485,5,o),
(485,5,o),
(482,22,c),
(469,84,o),
(462,122,o),
(453,266,c),
(446,328,o),
(442,376,o),
(442,376,c),
(442,376,o),
(440,376,o),
(440,376,c),
(440,376,o),
(437,342,o),
(437,300,c),
(437,228,o),
(437,225,o),
(433,245,c),
(413,383,o),
(388,586,o),
(385,627,c),
(385,637,o),
(381,648,o),
(381,654,c),
(379,661,o),
(375,675,o),
(375,682,c),
(372,696,o),
(372,699,o),
(365,703,c),
(359,706,o),
(359,706,o),
(346,703,c),
(336,699,o),
(327,696,o),
(278,696,c),
(246,696,o),
(220,699,o),
(220,699,c),
(217,703,o),
(204,699,o),
(201,696,c),
(197,696,o),
(201,692,o),
(201,685,c),
(204,678,o),
(204,675,o),
(201,672,c),
(201,672,o),
(194,654,o),
(191,637,c),
(168,565,o),
(145,493,o),
(129,445,c),
(84,317,o),
(58,232,o),
(58,228,c),
(58,228,o),
(68,242,o),
(78,262,c),
(87,283,o),
(94,297,o),
(94,297,c),
(94,297,o),
(80,242,o),
(65,177,c),
(46,111,o),
(29,49,o),
(29,39,c),
(26,22,o),
(26,22,o),
(33,12,c),
(35,1,o),
(39,-2,o),
(46,-2,c),
(49,-2,o),
(51,-2,o),
(58,-6,c),
(65,-9,o),
(113,-9,o),
(136,-9,c),
(159,-6,o),
(159,-6,o),
(159,1,c),
(161,8,o),
(161,15,o),
(161,18,c),
(161,22,o),
(168,42,o),
(175,60,c),
(181,80,o),
(188,104,o),
(191,111,c),
(194,125,o),
(194,125,o),
(194,80,c),
(194,36,o),
(194,36,o),
(197,60,c),
(206,139,o),
(226,235,o),
(233,242,c),
(233,242,o),
(242,245,o),
(255,245,c),
(269,245,o),
(278,249,o),
(282,249,c),
(285,249,o),
(287,242,o),
(294,166,c),
(298,101,o),
(304,56,o),
(314,5,c),
(316,-16,o),
(320,-13,o),
(320,-17,c),
(320,-20,o),
(323,-30,o),
(327,-34,c),
(333,-44,o),
(333,-44,o),
(343,-41,c)
);
},
{
closed = 1;
nodes = (
(39,22,o),
(39,22,o),
(39,25,c),
(39,36,o),
(42,39,o),
(46,32,c),
(49,25,o),
(49,25,o),
(46,22,c)
);
},
{
closed = 1;
nodes = (
(49,63,o),
(51,67,o),
(55,70,c),
(62,80,o),
(65,77,o),
(58,70,c),
(51,63,o),
(49,60,o),
(49,63,c)
);
},
{
closed = 1;
nodes = (
(110,46,o),
(110,49,o),
(113,60,c),
(120,67,o),
(120,70,o),
(123,67,c),
(123,67,o),
(127,67,o),
(129,67,c),
(132,67,o),
(132,67,o),
(132,63,c),
(132,63,o),
(129,56,o),
(129,56,c),
(129,53,o),
(129,53,o),
(127,53,c),
(120,53,o),
(116,53,o),
(113,49,c)
);
},
{
closed = 1;
nodes = (
(62,118,o),
(62,122,o),
(65,122,c),
(65,125,o),
(68,132,o),
(68,142,c),
(71,152,o),
(75,156,o),
(75,156,c),
(75,152,o),
(75,146,o),
(71,135,c),
(68,128,o),
(65,118,o),
(65,118,c)
);
},
{
closed = 1;
nodes = (
(339,8,o),
(336,15,o),
(333,25,c),
(330,53,o),
(330,56,o),
(333,46,c),
(336,39,o),
(339,36,o),
(343,36,c),
(346,36,o),
(346,36,o),
(346,29,c),
(343,25,o),
(343,18,o),
(343,18,c),
(339,15,o),
(339,12,o),
(339,8,c)
);
},
{
closed = 1;
nodes = (
(362,-16,o),
(362,-16,o),
(362,-13,c),
(365,-13,o),
(365,-6,o),
(365,5,c),
(362,29,o),
(372,22,o),
(375,-2,c),
(375,-13,o),
(375,-13,o),
(368,-16,c)
);
},
{
closed = 1;
nodes = (
(420,-2,o),
(413,-2,o),
(413,5,c),
(413,8,o),
(417,8,o),
(417,8,c),
(424,5,o),
(427,12,o),
(427,18,c),
(427,22,o),
(427,22,o),
(430,18,c),
(433,12,o),
(433,1,o),
(427,1,c)
);
},
{
closed = 1;
nodes = (
(446,1,o),
(446,1,o),
(446,12,c),
(446,32,o),
(449,32,o),
(456,18,c),
(459,8,o),
(459,5,o),
(456,5,c),
(456,5,o),
(453,1,o),
(449,1,c)
);
},
{
closed = 1;
nodes = (
(181,269,o),
(181,273,o),
(191,297,c),
(194,307,o),
(197,314,o),
(197,314,c),
(197,311,o),
(194,300,o),
(191,290,c)
);
},
{
closed = 1;
nodes = (
(427,77,o),
(427,73,o),
(427,108,c),
(424,128,l),
(430,108,l),
(433,87,o),
(433,87,o),
(430,80,c)
);
},
{
closed = 1;
nodes = (
(271,269,o),
(271,269,o),
(271,273,c),
(275,276,o),
(285,283,o),
(285,280,c),
(285,280,o),
(285,280,o),
(285,280,c),
(282,280,o),
(282,276,o),
(282,273,c),
(282,269,o),
(278,269,o),
(275,269,c)
);
},
{
closed = 1;
nodes = (
(271,324,o),
(271,324,o),
(275,324,c),
(275,324,o),
(275,321,o),
(271,321,c),
(269,317,o),
(269,317,o),
(271,321,c)
);
},
{
closed = 1;
nodes = (
(391,297,o),
(388,317,o),
(388,331,c),
(385,359,o),
(385,400,o),
(388,393,c),
(388,390,o),
(391,376,o),
(391,362,c),
(395,348,o),
(395,317,o),
(395,293,c),
(395,249,o),
(395,249,o),
(391,280,c)
);
},
{
closed = 1;
nodes = (
(246,589,o),
(246,593,o),
(246,593,c),
(249,596,o),
(249,596,o),
(249,596,c),
(249,593,o),
(249,589,o),
(246,589,c),
(246,586,o),
(246,586,o),
(246,586,c)
);
},
{
closed = 1;
nodes = (
(249,603,o),
(253,603,o),
(253,606,c),
(253,606,o),
(253,606,o),
(253,603,c),
(253,599,o),
(249,596,o),
(249,603,c)
);
},
{
closed = 1;
nodes = (
(217,668,o),
(217,672,o),
(213,672,c),
(213,675,o),
(213,678,o),
(217,675,c),
(217,672,o),
(220,672,o),
(217,668,c)
);
},
{
closed = 1;
nodes = (
(246,668,o),
(249,668,o),
(253,668,c),
(255,668,o),
(255,668,o),
(255,668,c),
(255,668,o),
(255,665,o),
(253,665,c),
(249,665,o),
(246,665,o),
(246,665,c)
);
},
{
closed = 1;
nodes = (
(265,661,o),
(265,661,o),
(262,665,c),
(262,665,o),
(262,665,o),
(265,665,c),
(269,665,o),
(269,665,o),
(269,665,c),
(269,661,o),
(265,661,o),
(265,661,c)
);
},
{
closed = 1;
nodes = (
(330,654,o),
(330,658,o),
(330,658,c),
(327,661,o),
(330,665,o),
(330,665,c),
(333,665,o),
(333,661,o),
(333,658,c),
(333,658,o),
(333,654,o),
(333,654,c)
);
},
{
closed = 1;
nodes = (
(316,675,o),
(316,675,o),
(327,675,c),
(336,675,o),
(339,675,o),
(339,672,c),
(339,668,o),
(336,668,o),
(323,672,c)
);
}
);
width = 520;
}
);
unicode = 65;
},
{
glyphname = AE;
kernLeft = A;
kernRight = E;
lastChange = "2026-05-05 08:11:38 +0000";
layers = (
{
layerId = m01;
shapes = (
{
closed = 1;
nodes = (
(776,-6,o),
(782,-3,o),
(714,11,c),
(659,25,o),
(595,35,o),
(553,39,c),
(517,42,l),
(553,42,l),
(575,42,o),
(595,39,o),
(598,39,c),
(604,35,o),
(682,39,o),
(730,42,c),
(773,49,o),
(782,52,o),
(782,59,c),
(779,63,o),
(779,70,o),
(779,73,c),
(776,83,o),
(773,83,o),
(757,94,c),
(746,97,o),
(733,107,o),
(730,114,c),
(724,121,o),
(711,128,o),
(705,132,c),
(695,138,o),
(688,142,o),
(685,149,c),
(682,152,o),
(666,162,o),
(647,173,c),
(595,200,o),
(582,211,o),
(566,221,c),
(559,224,o),
(537,238,o),
(521,248,c),
(497,262,o),
(485,269,o),
(485,272,c),
(485,279,o),
(497,283,o),
(575,297,c),
(627,307,o),
(698,324,o),
(698,324,c),
(701,327,o),
(682,324,o),
(636,317,c),
(614,314,o),
(591,314,o),
(591,314,c),
(591,314,o),
(595,314,o),
(598,317,c),
(627,321,o),
(717,355,o),
(724,365,c),
(724,365,o),
(721,369,o),
(721,372,c),
(717,379,o),
(714,379,o),
(708,379,c),
(701,379,o),
(698,379,o),
(698,382,c),
(695,389,o),
(682,396,o),
(676,396,c),
(672,396,o),
(666,396,o),
(663,400,c),
(653,407,o),
(582,424,o),
(543,431,c),
(533,431,o),
(521,434,o),
(521,437,c),
(517,437,o),
(537,455,o),
(556,475,c),
(618,534,o),
(737,664,o),
(737,671,c),
(737,675,o),
(733,675,o),
(724,668,c),
(717,658,o),
(717,658,o),
(721,668,c),
(728,682,o),
(724,682,o),
(666,685,c),
(650,685,o),
(636,688,o),
(634,688,c),
(634,688,o),
(630,688,o),
(627,685,c),
(627,685,o),
(618,685,o),
(598,685,c),
(582,685,o),
(573,685,o),
(575,685,c),
(578,685,o),
(614,692,o),
(656,699,c),
(698,706,o),
(730,713,o),
(733,713,c),
(733,713,o),
(733,716,o),
(730,716,c),
(711,716,o),
(595,702,o),
(543,695,c),
(481,688,o),
(425,698,o),
(422,702,c),
(419,709,o),
(409,709,o),
(390,702,c),
(373,695,o),
(370,695,o),
(370,705,c),
(370,705,o),
(370,709,o),
(370,709,c),
(367,712,o),
(361,705,o),
(357,698,c),
(357,695,o),
(354,692,o),
(348,695,c),
(332,698,o),
(318,695,o),
(318,688,c),
(318,685,o),
(318,681,o),
(321,678,c),
(328,674,o),
(378,664,o),
(375,627,c),
(371,578,o),
(371,417,o),
(375,345,c),
(375,310,o),
(375,286,o),
(375,272,c),
(371,259,o),
(371,252,o),
(375,248,c),
(378,242,o),
(378,228,o),
(375,187,c),
(371,159,o),
(368,128,o),
(368,118,c),
(368,104,o),
(368,97,o),
(366,97,c),
(362,94,o),
(362,87,o),
(366,83,c),
(366,83,o),
(368,77,o),
(368,73,c),
(368,66,o),
(368,52,o),
(371,42,c),
(375,22,l),
(449,22,l),
(526,18,o),
(566,18,o),
(682,4,c)
);
},
{
closed = 1;
nodes = (
(39,22,o),
(39,22,o),
(39,25,c),
(39,36,o),
(42,39,o),
(46,32,c),
(49,25,o),
(49,25,o),
(46,22,c)
);
},
{
closed = 1;
nodes = (
(49,63,o),
(51,67,o),
(55,70,c),
(62,80,o),
(65,77,o),
(58,70,c),
(51,63,o),
(49,60,o),
(49,63,c)
);
},
{
closed = 1;
nodes = (
(110,46,o),
(110,49,o),
(113,60,c),
(120,67,o),
(120,70,o),
(123,67,c),
(123,67,o),
(127,67,o),
(129,67,c),
(132,67,o),
(132,67,o),
(132,63,c),
(132,63,o),
(129,56,o),
(129,56,c),
(129,53,o),
(129,53,o),
(127,53,c),
(120,53,o),
(116,53,o),
(113,49,c)
);
},
{
closed = 1;
nodes = (
(62,118,o),
(62,122,o),
(65,122,c),
(65,125,o),
(68,132,o),
(68,142,c),
(71,152,o),
(75,156,o),
(75,156,c),
(75,152,o),
(75,146,o),
(71,135,c),
(68,128,o),
(65,118,o),
(65,118,c)
);
},
{
closed = 1;
nodes = (
(181,269,o),
(181,273,o),
(191,297,c),
(194,307,o),
(197,314,o),
(197,314,c),
(197,311,o),
(194,300,o),
(191,290,c)
);
},
{
closed = 1;
nodes = (
(400,97,o),
(400,97,o),
(400,107,c),
(400,111,o),
(404,118,o),
(404,118,c),
(404,118,o),
(407,114,o),
(407,111,c),
(407,111,o),
(407,104,o),
(407,101,c),
(407,97,o),
(407,97,o),
(404,97,c)
);
},
{
closed = 1;
nodes = (
(271,269,o),
(271,269,o),
(271,273,c),
(275,276,o),
(285,283,o),
(285,280,c),
(285,280,o),
(285,280,o),
(285,280,c),
(282,280,o),
(282,276,o),
(282,273,c),
(282,269,o),
(278,269,o),
(275,269,c)
);
},
{
closed = 1;
nodes = (
(159,-6,o),
(159,-6,o),
(159,1,c),
(161,8,o),
(161,15,o),
(161,18,c),
(161,22,o),
(168,42,o),
(175,60,c),
(181,80,o),
(188,104,o),
(191,111,c),
(194,125,o),
(194,125,o),
(194,80,c),
(194,36,o),
(194,36,o),
(197,60,c),
(206,139,o),
(226,235,o),
(233,242,c),
(233,242,o),
(242,245,o),
(255,245,c),
(269,245,o),
(278,249,o),
(282,249,c),
(285,249,o),
(267,243,o),
(390,263,c),
(371,400,o),
(388,588,o),
(385,627,c),
(385,637,o),
(381,648,o),
(381,654,c),
(379,661,o),
(375,675,o),
(375,682,c),
(372,696,o),
(372,699,o),
(365,703,c),
(359,706,o),
(359,706,o),
(346,703,c),
(336,699,o),
(327,696,o),
(278,696,c),
(246,696,o),
(220,699,o),
(220,699,c),
(217,703,o),
(204,699,o),
(201,696,c),
(197,696,o),
(201,692,o),
(201,685,c),
(204,678,o),
(204,675,o),
(201,672,c),
(201,672,o),
(194,654,o),
(191,637,c),
(168,565,o),
(145,493,o),
(129,445,c),
(84,317,o),
(58,232,o),
(58,228,c),
(58,228,o),
(68,242,o),
(78,262,c),
(87,283,o),
(94,297,o),
(94,297,c),
(94,297,o),
(80,242,o),
(65,177,c),
(46,111,o),
(29,49,o),
(29,39,c),
(26,22,o),
(26,22,o),
(33,12,c),
(35,1,o),
(39,-2,o),
(46,-2,c),
(49,-2,o),
(51,-2,o),
(58,-6,c),
(65,-9,o),
(113,-9,o),
(136,-9,c)
);
},
{
closed = 1;
nodes = (
(269,317,o),
(269,317,o),
(271,321,c),
(271,324,o),
(271,324,o),
(275,324,c),
(275,324,o),
(275,321,o),
(271,321,c)
);
},
{
closed = 1;
nodes = (
(492,238,o),
(485,242,o),
(485,242,c),
(485,248,o),
(485,248,o),
(501,238,c),
(514,228,o),
(514,228,o),
(497,235,c)
);
},
{
closed = 1;
nodes = (
(485,317,o),
(492,317,o),
(504,317,c),
(510,317,o),
(510,317,o),
(497,314,c),
(485,310,o),
(485,307,o),
(485,310,c)
);
},
{
closed = 1;
nodes = (
(246,589,o),
(246,593,o),
(246,593,c),
(249,596,o),
(249,596,o),
(249,596,c),
(249,593,o),
(249,589,o),
(246,589,c),
(246,586,o),
(246,586,o),
(246,586,c)
);
},
{
closed = 1;
nodes = (
(249,603,o),
(253,603,o),
(253,606,c),
(253,606,o),
(253,606,o),
(253,603,c),
(253,599,o),
(249,596,o),
(249,603,c)
);
},
{
closed = 1;
nodes = (
(217,668,o),
(217,672,o),
(213,672,c),
(213,675,o),
(213,678,o),
(217,675,c),
(217,672,o),
(220,672,o),
(217,668,c)
);
},
{
closed = 1;
nodes = (
(246,668,o),
(249,668,o),
(253,668,c),
(255,668,o),
(255,668,o),
(255,668,c),
(255,668,o),
(255,665,o),
(253,665,c),
(249,665,o),
(246,665,o),
(246,665,c)
);
},
{
closed = 1;
nodes = (
(265,661,o),
(265,661,o),
(262,665,c),
(262,665,o),
(262,665,o),
(265,665,c),
(269,665,o),
(269,665,o),
(269,665,c),
(269,661,o),
(265,661,o),
(265,661,c)
);
},
{
closed = 1;
nodes = (
(310,654,o),
(310,658,o),
(310,658,c),
(307,661,o),
(310,665,o),
(310,665,c),
(313,665,o),
(313,661,o),
(313,658,c),
(313,658,o),
(313,654,o),
(313,654,c)
);
},
{
closed = 1;
nodes = (
(598,372,o),
(604,372,o),
(607,372,c),
(620,372,o),
(620,372,o),
(614,369,c),
(601,365,o),
(598,365,o),
(598,369,c)
);
},
{
closed = 1;
nodes = (
(296,675,o),
(296,675,o),
(307,675,c),
(316,675,o),
(319,675,o),
(319,672,c),
(319,668,o),
(316,668,o),
(303,672,c)
);
},
{
closed = 1;
nodes = (
(391,640,o),
(391,644,o),
(398,647,c),
(398,647,o),
(398,647,o),
(398,644,c),
(398,640,o),
(398,640,o),
(394,640,c)
);
},
{
closed = 1;
nodes = (
(488,520,o),
(492,527,o),
(497,541,c),
(504,548,o),
(508,554,o),
(510,554,c),
(514,558,o),
(514,554,o),
(510,548,c),
(504,544,o),
(501,537,o),
(497,534,c)
);
},
{
closed = 1;
nodes = (
(676,369,o),
(672,369,o),
(672,372,c),
(672,372,o),
(676,376,o),
(676,376,c),
(679,376,o),
(679,372,o),
(679,372,c),
(679,369,o),
(676,369,o),
(676,369,c)
);
},
{
closed = 1;
nodes = (
(485,572,o),
(492,575,o),
(494,575,c),
(494,575,o),
(494,572,o),
(492,568,c),
(488,568,o),
(485,565,o),
(485,568,c)
);
},
{
closed = 1;
nodes = (
(553,651,o),
(556,654,o),
(559,654,c),
(562,654,o),
(566,651,o),
(566,651,c),
(566,651,o),
(562,647,o),
(556,644,c),
(543,633,o),
(543,633,o),
(549,644,c)
);
},
{
closed = 1;
nodes = (
(582,630,o),
(582,630,o),
(588,644,c),
(595,651,o),
(598,654,o),
(604,654,c),
(614,654,o),
(611,651,o),
(598,640,c)
);
},
{
closed = 1;
nodes = (
(647,599,o),
(650,599,o),
(650,603,c),
(653,606,o),
(653,606,o),
(653,599,c),
(650,596,o),
(647,596,o),
(647,596,c)
);
}
);
width = 800;
},
{
associatedMasterId = m01;
layerId = "FA69D9D0-CA0A-4299-A1CD-56DB2022E087";
name = "5 May 26 at 11.24";
shapes = (
{
closed = 1;
nodes = (
(267,243,o),
(285,249,o),
(282,249,c),
(278,249,o),
(269,245,o),
(255,245,c),
(242,245,o),
(233,242,o),
(233,242,c),
(226,235,o),
(206,139,o),
(197,60,c),
(194,36,o),
(194,36,o),
(194,80,c),
(194,125,o),
(194,125,o),
(191,111,c),
(188,104,o),
(181,80,o),
(175,60,c),
(168,42,o),
(161,22,o),
(161,18,c),
(161,15,o),
(161,8,o),
(159,1,c),
(159,-6,o),
(159,-6,o),
(136,-9,c),
(113,-9,o),
(65,-9,o),
(58,-6,c),
(51,-2,o),
(49,-2,o),
(46,-2,c),
(39,-2,o),
(35,1,o),
(33,12,c),
(26,22,o),
(26,22,o),
(29,39,c),
(29,49,o),
(46,111,o),
(65,177,c),
(80,242,o),
(94,297,o),
(94,297,c),
(94,297,o),
(87,283,o),
(78,262,c),
(68,242,o),
(58,228,o),
(58,228,c),
(58,232,o),
(84,317,o),
(129,445,c),
(145,493,o),
(168,565,o),
(191,637,c),
(194,654,o),
(201,672,o),
(201,672,c),
(204,675,o),
(204,678,o),
(201,685,c),
(201,692,o),
(197,696,o),
(201,696,c),
(204,699,o),
(217,703,o),
(220,699,c),
(220,699,o),
(246,696,o),
(278,696,c),
(327,696,o),
(356,699,o),
(366,703,c),
(379,706,o),
(379,706,o),
(385,703,c),
(392,699,o),
(392,696,o),
(395,682,c),
(395,675,o),
(399,661,o),
(401,654,c),
(401,648,o),
(405,637,o),
(405,627,c),
(408,588,o),
(391,400,o),
(410,263,c)
);
},
{
closed = 1;
nodes = (
(49,25,o),
(49,25,o),
(46,32,c),
(42,39,o),
(39,36,o),
(39,25,c),
(39,22,o),
(39,22,o),
(46,22,c)
);
},
{
closed = 1;
nodes = (
(129,53,o),
(129,53,o),
(129,56,c),
(129,56,o),
(132,63,o),
(132,63,c),
(132,67,o),
(132,67,o),
(129,67,c),
(127,67,o),
(123,67,o),
(123,67,c),
(120,70,o),
(120,67,o),
(113,60,c),
(110,49,o),
(110,46,o),
(113,49,c),
(116,53,o),
(120,53,o),
(127,53,c)
);
},
{
closed = 1;
nodes = (
(65,77,o),
(62,80,o),
(55,70,c),
(51,67,o),
(49,63,o),
(49,63,c),
(49,60,o),
(51,63,o),
(58,70,c)
);
},
{
closed = 1;
nodes = (
(75,146,o),
(75,152,o),
(75,156,c),
(75,156,o),
(71,152,o),
(68,142,c),
(68,132,o),
(65,125,o),
(65,122,c),
(62,122,o),
(62,118,o),
(65,118,c),
(65,118,o),
(68,128,o),
(71,135,c)
);
},
{
closed = 1;
nodes = (
(391,386,o),
(388,400,o),
(388,403,c),
(385,410,o),
(385,369,o),
(388,341,c),
(388,327,o),
(391,307,o),
(391,290,c),
(395,259,o),
(395,259,o),
(395,303,cs),
(395,327,o),
(395,358,o),
(391,372,c)
);
},
{
closed = 1;
nodes = (
(282,276,o),
(282,280,o),
(285,280,c),
(285,280,o),
(285,280,o),
(285,280,c),
(285,283,o),
(275,276,o),
(271,273,c),
(271,269,o),
(271,269,o),
(275,269,c),
(278,269,o),
(282,269,o),
(282,273,c)
);
},
{
closed = 1;
nodes = (
(197,314,o),
(194,307,o),
(191,297,c),
(181,273,o),
(181,269,o),
(191,290,c),
(194,300,o),
(197,311,o),
(197,314,c)
);
},
{
closed = 1;
nodes = (
(271,324,o),
(271,324,o),
(271,321,c),
(269,317,o),
(269,317,o),
(271,321,c),
(275,321,o),
(275,324,o),
(275,324,c)
);
},
{
closed = 1;
nodes = (
(249,596,o),
(249,596,o),
(246,593,c),
(246,593,o),
(246,589,o),
(246,586,c),
(246,586,o),
(246,586,o),
(246,589,c),
(249,589,o),
(249,593,o),
(249,596,c)
);
},
{
closed = 1;
nodes = (
(253,606,o),
(253,606,o),
(253,606,c),
(253,603,o),
(249,603,o),
(249,603,c),
(249,596,o),
(253,599,o),
(253,603,c)
);
},
{
closed = 1;
nodes = (
(333,661,o),
(333,665,o),
(330,665,c),
(330,665,o),
(327,661,o),
(330,658,c),
(330,658,o),
(330,654,o),
(333,654,c),
(333,654,o),
(333,658,o),
(333,658,c)
);
},
{
closed = 1;
nodes = (
(269,665,o),
(269,665,o),
(265,665,c),
(262,665,o),
(262,665,o),
(262,665,c),
(265,661,o),
(265,661,o),
(265,661,c),
(265,661,o),
(269,661,o),
(269,665,c)
);
},
{
closed = 1;
nodes = (
(255,668,o),
(255,668,o),
(253,668,c),
(249,668,o),
(246,668,o),
(246,665,c),
(246,665,o),
(249,665,o),
(253,665,c),
(255,665,o),
(255,668,o),
(255,668,c)
);
},
{
closed = 1;
nodes = (
(213,678,o),
(213,675,o),
(213,672,c),
(217,672,o),
(217,668,o),
(217,668,c),
(220,672,o),
(217,672,o),
(217,675,c)
);
},
{
closed = 1;
nodes = (
(339,675,o),
(336,675,o),
(327,675,c),
(316,675,o),
(316,675,o),
(323,672,c),
(336,668,o),
(339,668,o),
(339,672,c)
);
},
{
closed = 1;
nodes = (
(636,18,o),
(596,18,o),
(519,22,c),
(445,22,l),
(441,42,l),
(438,52,o),
(438,66,o),
(438,73,c),
(438,77,o),
(436,83,o),
(436,83,c),
(432,87,o),
(432,94,o),
(436,97,c),
(438,97,o),
(438,104,o),
(438,118,c),
(438,128,o),
(441,159,o),
(445,187,c),
(448,228,o),
(448,242,o),
(445,248,c),
(441,252,o),
(441,259,o),
(445,272,c),
(445,286,o),
(445,310,o),
(445,345,c),
(441,417,o),
(441,578,o),
(445,627,c),
(448,664,o),
(448,664,o),
(441,668,c),
(438,671,o),
(438,675,o),
(438,678,c),
(438,685,o),
(452,688,o),
(468,685,c),
(474,682,o),
(477,685,o),
(477,688,c),
(481,695,o),
(487,702,o),
(490,699,c),
(490,699,o),
(490,695,o),
(490,695,c),
(490,685,o),
(493,685,o),
(510,692,c),
(529,699,o),
(539,699,o),
(542,692,c),
(545,688,o),
(551,688,o),
(613,695,c),
(665,702,o),
(781,716,o),
(800,716,c),
(803,716,o),
(803,713,o),
(803,713,c),
(800,713,o),
(768,706,o),
(726,699,c),
(684,692,o),
(648,685,o),
(645,685,c),
(643,685,o),
(652,685,o),
(668,685,c),
(688,685,o),
(697,685,o),
(697,685,c),
(700,688,o),
(704,688,o),
(704,688,c),
(706,688,o),
(720,685,o),
(736,685,c),
(794,682,o),
(798,682,o),
(791,668,c),
(787,658,o),
(787,658,o),
(794,668,c),
(803,675,o),
(807,675,o),
(807,671,c),
(807,664,o),
(688,534,o),
(626,475,c),
(607,455,o),
(587,437,o),
(591,437,c),
(591,434,o),
(603,431,o),
(613,431,c),
(652,424,o),
(723,407,o),
(733,400,c),
(736,396,o),
(742,396,o),
(746,396,c),
(752,396,o),
(765,389,o),
(768,382,c),
(768,379,o),
(771,379,o),
(778,379,c),
(784,379,o),
(787,379,o),
(791,372,c),
(791,369,o),
(794,365,o),
(794,365,c),
(787,355,o),
(697,321,o),
(668,317,c),
(665,314,o),
(661,314,o),
(661,314,c),
(661,314,o),
(684,314,o),
(706,317,c),
(752,324,o),
(771,327,o),
(768,324,c),
(768,324,o),
(697,307,o),
(645,297,c),
(567,283,o),
(555,279,o),
(555,272,c),
(555,269,o),
(567,262,o),
(591,248,c),
(607,238,o),
(629,224,o),
(636,221,c),
(652,211,o),
(665,200,o),
(717,173,c),
(736,162,o),
(752,152,o),
(755,149,c),
(758,142,o),
(765,138,o),
(775,132,c),
(781,128,o),
(794,121,o),
(800,114,c),
(803,107,o),
(816,97,o),
(827,94,c),
(843,83,o),
(846,83,o),
(849,73,c),
(849,70,o),
(849,63,o),
(852,59,c),
(852,52,o),
(843,49,o),
(800,42,c),
(752,39,o),
(674,35,o),
(668,39,c),
(665,39,o),
(645,42,o),
(623,42,c),
(587,42,l),
(623,39,l),
(665,35,o),
(729,25,o),
(784,11,c),
(852,-3,o),
(846,-6,o),
(752,4,c)
);
},
{
closed = 1;
nodes = (
(477,104,o),
(477,111,o),
(477,111,c),
(477,114,o),
(474,118,o),
(474,118,c),
(474,118,o),
(470,111,o),
(470,107,c),
(470,97,o),
(470,97,o),
(474,97,c),
(477,97,o),
(477,97,o),
(477,101,c)
);
},
{
closed = 1;
nodes = (
(555,248,o),
(555,248,o),
(555,242,c),
(555,242,o),
(562,238,o),
(567,235,c),
(584,228,o),
(584,228,o),
(571,238,c)
);
},
{
closed = 1;
nodes = (
(562,317,o),
(555,317,o),
(555,310,c),
(555,307,o),
(555,310,o),
(567,314,c),
(580,317,o),
(580,317,o),
(574,317,c)
);
},
{
closed = 1;
nodes = (
(690,372,o),
(690,372,o),
(677,372,c),
(674,372,o),
(668,372,o),
(668,369,c),
(668,365,o),
(671,365,o),
(684,369,c)
);
},
{
closed = 1;
nodes = (
(749,372,o),
(749,376,o),
(746,376,c),
(746,376,o),
(742,372,o),
(742,372,c),
(742,369,o),
(746,369,o),
(746,369,c),
(746,369,o),
(749,369,o),
(749,372,c)
);
},
{
closed = 1;
nodes = (
(584,554,o),
(584,558,o),
(580,554,c),
(578,554,o),
(574,548,o),
(567,541,c),
(562,527,o),
(558,520,o),
(567,534,c),
(571,537,o),
(574,544,o),
(580,548,c)
);
},
{
closed = 1;
nodes = (
(562,575,o),
(555,572,o),
(555,568,c),
(555,565,o),
(558,568,o),
(562,568,c),
(564,572,o),
(564,575,o),
(564,575,c)
);
},
{
closed = 1;
nodes = (
(723,606,o),
(723,606,o),
(720,603,c),
(720,599,o),
(717,599,o),
(717,596,c),
(717,596,o),
(720,596,o),
(723,599,c)
);
},
{
closed = 1;
nodes = (
(681,651,o),
(684,654,o),
(674,654,c),
(668,654,o),
(665,651,o),
(658,644,c),
(652,630,o),
(652,630,o),
(668,640,c)
);
},
{
closed = 1;
nodes = (
(636,651,o),
(632,654,o),
(629,654,c),
(626,654,o),
(623,651,o),
(619,644,c),
(613,633,o),
(613,633,o),
(626,644,c),
(632,647,o),
(636,651,o),
(636,651,c)
);
},
{
closed = 1;
nodes = (
(468,647,o),
(468,647,o),
(468,647,c),
(461,644,o),
(461,640,o),
(464,640,c),
(468,640,o),
(468,640,o),
(468,644,c)
);
}
);
width = 970;
}
);
metricLeft = "=A";
metricRight = "=E";
unicode = 198;
},
{
glyphname = B;
kernLeft = B;
kernRight = B;
lastChange = "2026-05-05 09:15:18 +0000";
layers = (
{
layerId = m01;
shapes = (
{
closed = 1;
nodes = (
(142,-25,o),
(201,-9,o),
(234,-2,c),
(237,-1,o),
(235,-1,o),
(229,0,c),
(221,0,o),
(223,1,o),
(242,5,c),
(276,12,o),
(300,19,o),
(324,31,c),
(348,42,o),
(347,41,o),
(346,43,c),
(345,44,o),
(331,41,o),
(313,36,c),
(246,18,o),
(231,15,o),
(192,9,c),
(158,3,o),
(147,2,o),
(101,3,c),
(51,4,o),
(51,4,o),
(49,10,c),
(48,15,o),
(47,14,o),
(45,4,c),
(43,-13,o),
(39,-11,o),
(39,6,c),
(39,15,o),
(38,21,o),
(35,23,c),
(32,25,o),
(30,29,o),
(30,31,c),
(30,33,o),
(32,35,o),
(35,36,c),
(38,37,o),
(39,42,o),
(39,58,c),
(39,70,o),
(41,110,o),
(44,148,c),
(47,185,o),
(49,217,o),
(48,217,c),
(46,219,o),
(44,208,o),
(40,160,c),
(38,135,o),
(35,113,o),
(32,113,c),
(30,113,o),
(30,114,o),
(34,200,c),
(37,275,o),
(43,379,o),
(47,418,c),
(51,461,o),
(49,467,o),
(43,435,c),
(29,371,o),
(15,322,o),
(15,339,c),
(15,347,o),
(28,453,o),
(38,515,c),
(43,550,o),
(46,586,o),
(46,595,c),
(46,637,o),
(46,644,o),
(49,647,c),
(51,650,o),
(51,652,o),
(49,653,c),
(46,655,o),
(46,664,o),
(49,664,c),
(51,664,o),
(51,670,o),
(50,679,c),
(49,693,o),
(49,693,o),
(94,694,c),
(120,695,o),
(163,697,o),
(192,698,c),
(266,702,o),
(315,696,o),
(364,678,c),
(431,652,o),
(478,591,o),
(478,530,c),
(478,506,o),
(474,490,o),
(463,469,c),
(454,451,l),
(472,466,l),
(482,473,o),
(494,482,o),
(499,486,c),
(505,491,o),
(510,494,o),
(511,494,c),
(513,490,o),
(476,447,o),
(452,426,c),
(428,402,o),
(406,385,o),
(385,373,c),
(370,365,o),
(370,365,o),
(395,360,c),
(430,353,o),
(451,337,o),
(475,301,c),
(494,271,o),
(502,253,o),
(508,218,c),
(517,164,o),
(509,123,o),
(480,85,c),
(451,47,o),
(378,8,o),
(320,0,c),
(309,-2,o),
(300,-3,o),
(299,-4,c),
(295,-7,o),
(216,-22,o),
(186,-26,c),
(148,-30,o),
(136,-30,o),
(140,-27,c)
);
},
{
closed = 1;
nodes = (
(276,7,o),
(276,7,o),
(269,7,c),
(264,7,o),
(259,6,o),
(257,5,c),
(254,3,o),
(254,2,o),
(258,3,c),
(261,3,o),
(266,4,o),
(270,5,c)
);
},
{
closed = 1;
nodes = (
(308,17,o),
(308,17,o),
(303,17,c),
(300,17,o),
(295,16,o),
(293,15,c),
(287,13,o),
(287,13,o),
(293,13,c),
(295,13,o),
(300,14,o),
(303,15,c)
);
},
{
closed = 1;
nodes = (
(172,23,o),
(107,23,o),
(104,21,c),
(104,21,o),
(120,20,o),
(139,20,c),
(160,20,o),
(175,21,o),
(174,22,c)
);
},
{
closed = 1;
nodes = (
(66,47,o),
(70,49,o),
(72,49,c),
(74,49,o),
(75,52,o),
(75,55,c),
(75,59,o),
(73,59,o),
(68,58,c),
(66,57,o),
(61,56,o),
(59,56,c),
(56,56,o),
(54,54,o),
(54,52,c),
(54,49,o),
(54,45,o),
(53,43,c),
(50,37,o),
(61,38,o),
(65,44,c)
);
},
{
closed = 1;
nodes = (
(439,79,o),
(439,79,o),
(435,76,c),
(433,74,o),
(431,72,o),
(431,72,c),
(431,70,o),
(433,71,o),
(436,75,c)
);
},
{
closed = 1;
nodes = (
(480,131,o),
(479,130,o),
(468,115,c),
(462,106,o),
(455,100,o),
(450,98,c),
(444,94,o),
(443,93,o),
(446,91,c),
(448,88,o),
(448,86,o),
(444,82,c),
(442,80,o),
(446,83,o),
(453,91,c),
(461,99,o),
(470,110,o),
(473,115,c)
);
},
{
closed = 1;
nodes = (
(428,117,o),
(428,117,o),
(422,118,c),
(418,118,o),
(411,115,o),
(406,112,c),
(399,108,o),
(399,107,o),
(404,109,c),
(408,110,o),
(415,112,o),
(420,114,c)
);
},
{
closed = 1;
nodes = (
(91,185,o),
(88,185,o),
(84,184,c),
(78,183,o),
(76,182,o),
(75,174,c),
(71,151,o),
(73,150,o),
(82,167,c),
(87,177,o),
(91,184,o),
(91,185,c)
);
},
{
closed = 1;
nodes = (
(389,179,o),
(386,180,o),
(368,176,c),
(359,174,o),
(354,172,o),
(354,169,c),
(354,165,o),
(355,165,o),
(358,167,c),
(360,169,o),
(367,172,o),
(374,174,c)
);
},
{
closed = 1;
nodes = (
(217,178,o),
(220,181,o),
(221,184,c),
(223,190,o),
(223,190,o),
(206,184,c),
(193,180,o),
(186,172,o),
(198,175,c),
(202,175,o),
(208,177,o),
(212,178,c)
);
},
{
closed = 1;
nodes = (
(395,181,o),
(392,181,o),
(390,180,c),
(388,179,o),
(389,179,o),
(391,179,c),
(395,179,o),
(397,179,o),
(396,180,c)
);
},
{
closed = 1;
nodes = (
(305,189,o),
(305,189,o),
(299,188,c),
(295,187,o),
(291,186,o),
(289,186,c),
(288,186,o),
(286,185,o),
(286,184,c),
(286,180,o),
(292,181,o),
(299,185,c)
);
},
{
closed = 1;
nodes = (
(52,267,o),
(50,265,o),
(48,245,c),
(48,233,o),
(48,229,o),
(49,231,c),
(51,233,o),
(52,242,o),
(52,249,c)
);
},
{
closed = 1;
nodes = (
(256,250,o),
(252,248,o),
(250,246,c),
(245,242,o),
(245,242,o),
(255,245,c),
(261,247,o),
(262,248,o),
(259,249,c)
);
},
{
closed = 1;
nodes = (
(303,262,o),
(308,265,o),
(305,265,c),
(297,265,o),
(270,258,o),
(267,255,c),
(262,250,o),
(272,252,o),
(293,258,c)
);
},
{
closed = 1;
nodes = (
(380,340,o),
(378,341,o),
(375,341,c),
(372,341,o),
(370,340,o),
(371,338,c),
(372,337,o),
(374,336,o),
(375,336,c),
(376,336,o),
(378,337,o),
(379,338,c)
);
},
{
closed = 1;
nodes = (
(100,425,o),
(101,427,o),
(98,429,c),
(93,432,o),
(92,431,o),
(89,424,c),
(86,416,o),
(87,416,o),
(95,422,c)
);
},
{
closed = 1;
nodes = (
(334,460,o),
(332,459,o),
(330,458,c),
(327,454,o),
(328,454,o),
(331,455,c),
(334,457,o),
(335,459,o),
(335,459,c)
);
},
{
closed = 1;
nodes = (
(366,468,o),
(366,468,o),
(358,466,c),
(353,465,o),
(348,463,o),
(345,462,c),
(340,460,o),
(340,460,o),
(346,460,c),
(349,460,o),
(355,462,o),
(360,464,c)
);
},
{
closed = 1;
nodes = (
(50,477,o),
(50,476,o),
(50,471,c),
(50,467,o),
(50,465,o),
(51,467,c),
(52,469,o),
(52,472,o),
(51,475,c)
);
},
{
closed = 1;
nodes = (
(79,484,o),
(79,484,o),
(78,475,c),
(78,469,o),
(79,467,o),
(81,469,c),
(83,471,o),
(83,474,o),
(81,478,c)
);
},
{
closed = 1;
nodes = (
(384,494,o),
(394,504,o),
(394,507,c),
(394,509,o),
(389,507,o),
(383,503,c),
(370,493,o),
(368,489,o),
(373,493,c),
(376,493,o),
(379,494,o),
(380,494,c)
);
},
{
closed = 1;
nodes = (
(367,569,o),
(366,570,o),
(363,570,c),
(358,570,o),
(352,567,o),
(346,558,c),
(343,553,o),
(343,554,o),
(352,559,c),
(359,562,o),
(365,567,o),
(366,568,c)
);
},
{
closed = 1;
nodes = (
(326,597,o),
(328,602,o),
(320,599,c),
(314,598,o),
(299,583,o),
(303,583,c),
(304,583,o),
(309,586,o),
(315,590,c)
);
},
{
closed = 1;
nodes = (
(153,612,o),
(154,615,o),
(152,616,c),
(150,617,o),
(147,614,o),
(134,599,c),
(129,592,o),
(129,592,o),
(137,598,c),
(142,602,o),
(148,606,o),
(150,609,c)
);
},
{
closed = 1;
nodes = (
(197,678,o),
(196,678,o),
(192,678,c),
(189,678,o),
(186,677,o),
(186,675,c),
(186,671,o),
(189,671,o),
(194,675,c)
);
},
{
closed = 1;
nodes = (
);
}
);
width = 526;
},
{
associatedMasterId = m01;
layerId = "DC0496CB-D21D-4691-BE53-C8EED3AAF93D";
name = "5 May 26 at 14.07";
shapes = (
{
closed = 1;
nodes = (
(129,-20,o),
(138,-20,o),
(174,-13,c),
(203,-9,o),
(273,4,o),
(277,8,c),
(280,8,o),
(287,8,o),
(300,11,c),
(352,18,o),
(419,56,o),
(446,94,c),
(471,132,o),
(480,173,o),
(471,224,c),
(464,259,o),
(458,276,o),
(442,307,c),
(419,341,o),
(400,358,o),
(367,365,c),
(345,369,o),
(345,369,o),
(358,376,c),
(377,389,o),
(397,407,o),
(419,427,c),
(442,451,o),
(475,492,o),
(475,496,c),
(475,496,o),
(468,492,o),
(464,489,c),
(458,486,o),
(448,475,o),
(439,468,c),
(423,455,l),
(429,472,l),
(439,492,o),
(442,506,o),
(442,530,c),
(442,592,o),
(400,651,o),
(338,675,c),
(293,695,o),
(248,699,o),
(180,695,c),
(154,695,o),
(113,692,o),
(90,692,c),
(48,692,o),
(48,692,o),
(51,678,c),
(51,668,o),
(51,664,o),
(48,664,c),
(44,664,o),
(44,654,o),
(48,651,c),
(51,651,o),
(51,647,o),
(48,647,c),
(44,644,o),
(44,637,o),
(44,596,c),
(44,585,o),
(41,551,o),
(37,517,c),
(28,455,o),
(15,352,o),
(15,345,c),
(27,358,o),
(28,376,o),
(41,437,c),
(48,468,o),
(51,462,o),
(44,420,c),
(41,382,o),
(35,283,o),
(35,207,c),
(32,125,o),
(32,121,o),
(35,121,c),
(35,121,o),
(37,142,o),
(37,169,c),
(44,214,o),
(44,228,o),
(48,224,c),
(48,224,o),
(48,193,o),
(44,156,c),
(41,118,o),
(37,80,o),
(37,70,c),
(37,52,o),
(37,46,o),
(35,46,c),
(32,46,o),
(32,42,o),
(32,42,c),
(32,39,o),
(32,35,o),
(35,35,c),
(37,32,o),
(37,25,o),
(37,18,c),
(37,1,o),
(41,-3,o),
(44,15,c),
(47,22,o),
(47,22,o),
(48,22,c),
(51,15,o),
(51,15,o),
(96,15,c),
(138,15,o),
(147,15,o),
(180,18,c),
(216,25,o),
(232,28,o),
(290,46,c),
(306,52,o),
(322,52,o),
(322,52,c),
(322,52,o),
(322,52,o),
(303,42,c),
(280,32,o),
(257,22,o),
(226,15,c),
(210,11,o),
(206,11,o),
(216,11,c),
(219,11,o),
(222,11,o),
(219,8,c),
(187,1,o),
(135,-13,o),
(131,-16,c)
);
},
{
closed = 1;
nodes = (
(51,56,o),
(54,59,o),
(54,63,c),
(54,63,o),
(54,66,o),
(57,66,c),
(61,66,o),
(64,66,o),
(67,70,c),
(70,70,o),
(70,70,o),
(70,66,c),
(73,63,o),
(70,59,o),
(70,59,c),
(67,59,o),
(64,56,o),
(64,56,c),
(61,49,o),
(51,46,o),
(51,52,c)
);
},
{
closed = 1;
nodes = (
(102,35,o),
(161,35,o),
(164,32,c),
(164,32,o),
(151,32,o),
(131,32,c),
(113,32,o),
(100,32,o),
(100,32,c)
);
},
{
closed = 1;
nodes = (
(70,159,o),
(67,159,o),
(70,180,c),
(73,190,o),
(73,190,o),
(80,193,c),
(84,193,o),
(86,193,o),
(86,193,c),
(86,190,o),
(84,183,o),
(80,176,c)
);
},
{
closed = 1;
nodes = (
(242,18,o),
(248,18,o),
(251,18,c),
(257,18,o),
(257,18,o),
(251,15,c),
(248,15,o),
(245,15,o),
(242,15,c),
(239,15,o),
(239,15,o),
(239,15,c)
);
},
{
closed = 1;
nodes = (
(268,20,o),
(268,25,o),
(273,25,c),
(273,28,o),
(280,28,o),
(284,28,c),
(287,28,o),
(287,28,o),
(284,25,c),
(280,25,o),
(273,20,o),
(273,20,c)
);
},
{
closed = 1;
nodes = (
(48,235,o),
(48,242,o),
(48,252,c),
(48,272,o),
(51,272,o),
(51,255,c),
(51,248,o),
(51,238,o),
(48,238,c)
);
},
{
closed = 1;
nodes = (
(174,180,o),
(180,187,o),
(194,193,c),
(210,197,o),
(210,197,o),
(206,190,c),
(206,190,o),
(203,187,o),
(199,187,c),
(196,183,o),
(190,183,o),
(187,183,c)
);
},
{
closed = 1;
nodes = (
(268,193,o),
(268,193,o),
(271,193,c),
(271,193,o),
(273,193,o),
(277,197,c),
(284,197,o),
(284,197,o),
(277,193,c),
(271,187,o),
(268,187,o),
(268,190,c)
);
},
{
closed = 1;
nodes = (
(400,83,o),
(403,83,o),
(403,87,c),
(406,90,o),
(406,90,o),
(406,83,c),
(403,80,o),
(400,80,o),
(400,80,c)
);
},
{
closed = 1;
nodes = (
(235,255,o),
(239,255,o),
(242,255,c),
(245,255,o),
(245,252,o),
(239,252,c),
(228,248,o),
(228,248,o),
(232,252,c)
);
},
{
closed = 1;
nodes = (
(371,118,o),
(371,118,o),
(377,121,c),
(381,125,o),
(387,128,o),
(394,128,c),
(397,125,o),
(397,125,o),
(390,125,c),
(383,121,o),
(377,118,o),
(374,118,c)
);
},
{
closed = 1;
nodes = (
(84,420,o),
(84,420,o),
(86,427,c),
(86,434,o),
(90,434,o),
(93,431,c),
(96,431,o),
(96,427,o),
(90,424,c)
);
},
{
closed = 1;
nodes = (
(48,468,o),
(48,468,o),
(48,472,c),
(48,479,o),
(51,479,o),
(51,475,c),
(51,475,o),
(51,472,o),
(51,468,c)
);
},
{
closed = 1;
nodes = (
(329,180,o),
(332,180,o),
(342,183,c),
(358,187,o),
(361,187,o),
(349,183,c),
(342,180,o),
(336,176,o),
(332,176,c),
(329,173,o),
(329,173,o),
(329,176,c)
);
},
{
closed = 1;
nodes = (
(251,266,o),
(277,272,o),
(284,272,c),
(287,272,o),
(280,269,o),
(273,266,c),
(255,259,o),
(245,255,o),
(248,262,c)
);
},
{
closed = 1;
nodes = (
(410,97,o),
(416,97,o),
(413,101,c),
(413,104,o),
(413,104,o),
(419,107,c),
(423,107,o),
(429,114,o),
(435,125,c),
(446,138,o),
(446,138,o),
(439,125,c),
(435,118,o),
(429,107,o),
(423,101,c),
(413,94,o),
(404,90,o),
(407,94,c)
);
},
{
closed = 1;
nodes = (
(361,187,o),
(358,191,o),
(362,191,c),
(362,194,o),
(367,190,o),
(367,187,c),
(367,187,o),
(367,187,o),
(365,187,c)
);
},
{
closed = 1;
nodes = (
(77,468,o),
(73,472,o),
(73,479,c),
(77,486,o),
(77,486,o),
(77,479,c),
(80,475,o),
(80,472,o),
(77,472,c)
);
},
{
closed = 1;
nodes = (
(349,341,o),
(345,341,o),
(345,345,c),
(345,345,o),
(345,345,o),
(349,345,c),
(352,345,o),
(354,345,o),
(352,345,c),
(352,341,o),
(352,341,o),
(349,341,c)
);
},
{
closed = 1;
nodes = (
(131,586,o),
(122,592,o),
(129,599,c),
(138,613,o),
(142,616,o),
(145,616,c),
(145,613,o),
(145,613,o),
(142,609,c),
(138,606,o),
(144,593,o),
(138,593,c)
);
},
{
closed = 1;
nodes = (
(309,462,o),
(309,462,o),
(313,462,c),
(313,462,o),
(309,458,o),
(309,458,c),
(306,458,o),
(303,458,o),
(306,458,c)
);
},
{
closed = 1;
nodes = (
(316,462,o),
(316,462,o),
(322,465,c),
(322,465,o),
(329,468,o),
(332,468,c),
(342,468,o),
(342,468,o),
(336,465,c),
(332,465,o),
(325,462,o),
(322,462,c)
);
},
{
closed = 1;
nodes = (
(181,668,o),
(174,671,o),
(174,675,c),
(174,675,o),
(177,675,o),
(180,675,c),
(183,675,o),
(187,672,o),
(184,672,c)
);
},
{
closed = 1;
nodes = (
(342,492,o),
(345,496,o),
(358,503,c),
(361,506,o),
(365,510,o),
(365,510,c),
(365,506,o),
(358,496,o),
(354,496,c),
(352,496,o),
(349,496,o),
(349,492,c)
);
},
{
closed = 1;
nodes = (
(277,582,o),
(293,599,o),
(300,599,c),
(306,603,o),
(303,596,o),
(293,589,c),
(290,585,o),
(284,582,o),
(284,582,c)
);
},
{
closed = 1;
nodes = (
(329,568,o),
(332,572,o),
(338,572,c),
(342,572,o),
(342,568,o),
(342,568,c),
(338,568,o),
(332,565,o),
(329,561,c),
(320,554,o),
(320,554,o),
(322,558,c)
);
}
);
width = 489;
}
);
unicode = 66;
},
{
glyphname = C;
kernLeft = C;
kernRight = C;
lastChange = "2026-05-05 11:06:16 +0000";
layers = (
{
anchors = (
{
name = bottom;
pos = (309,10);
},
{
name = top;
pos = (279,700);
}
);
layerId = m01;
shapes = (
{
closed = 1;
nodes = (
(348,-1,o),
(412,7,o),
(430,18,c),
(440,23,o),
(444,38,o),
(444,69,c),
(444,102,o),
(439,172,o),
(435,175,c),
(433,177,o),
(415,178,o),
(386,179,c),
(334,180,o),
(313,190,o),
(277,204,c),
(236,226,o),
(224,243,o),
(216,307,c),
(210,339,o),
(219,401,o),
(235,437,c),
(247,466,o),
(244,468,o),
(275,484,c),
(307,502,o),
(333,511,o),
(389,513,c),
(402,513,o),
(412,514,o),
(412,515,c),
(415,521,o),
(422,619,o),
(423,643,c),
(423,669,o),
(422,671,o),
(414,669,c),
(412,669,o),
(411,671,o),
(410,673,c),
(409,675,o),
(406,676,o),
(404,675,c),
(402,675,o),
(399,676,o),
(398,678,c),
(397,682,o),
(383,689,o),
(360,697,c),
(344,703,o),
(340,703,o),
(275,697,c),
(233,694,o),
(211,688,o),
(181,672,c),
(116,637,o),
(57,561,o),
(32,479,c),
(14,423,o),
(7,331,o),
(15,275,c),
(27,199,o),
(55,139,o),
(101,90,c),
(134,56,o),
(152,44,o),
(205,22,c),
(235,10,o),
(266,4,o),
(306,1,c)
);
},
{
closed = 1;
nodes = (
(134,109,o),
(109,130,o),
(110,131,c),
(112,133,o),
(127,123,o),
(132,116,c),
(135,112,o),
(137,109,o),
(137,109,c)
);
},
{
closed = 1;
nodes = (
(204,51,o),
(154,76,o),
(144,86,c),
(141,88,o),
(146,86,o),
(156,80,c),
(166,74,o),
(184,65,o),
(195,60,c),
(207,55,o),
(214,50,o),
(212,50,c)
);
},
{
closed = 1;
nodes = (
(73,171,o),
(67,182,o),
(63,192,c),
(55,209,o),
(55,210,o),
(59,210,c),
(63,209,o),
(66,205,o),
(68,195,c),
(71,188,o),
(75,180,o),
(76,177,c),
(79,175,o),
(80,170,o),
(80,167,c),
(79,161,o),
(79,161,o),
(75,167,c)
);
},
{
closed = 1;
nodes = (
(96,197,o),
(103,217,o),
(106,224,c),
(108,228,o),
(109,228,o),
(108,225,c),
(107,222,o),
(105,216,o),
(104,210,c),
(103,205,o),
(101,199,o),
(99,199,c)
);
},
{
closed = 1;
nodes = (
(36,288,o),
(36,292,o),
(36,293,c),
(37,293,o),
(38,290,o),
(39,286,c),
(40,275,o),
(39,273,o),
(37,284,c)
);
},
{
closed = 1;
nodes = (
(218,109,o),
(219,111,o),
(224,119,c),
(229,124,o),
(233,129,o),
(234,129,c),
(239,129,o),
(238,124,o),
(231,116,c),
(228,112,o),
(223,109,o),
(221,109,c)
);
},
{
closed = 1;
nodes = (
(263,81,o),
(262,81,o),
(265,85,c),
(266,87,o),
(270,88,o),
(274,88,c),
(276,88,o),
(279,88,o),
(278,87,c),
(277,86,o),
(274,85,o),
(269,83,c)
);
},
{
closed = 1;
nodes = (
(323,53,o),
(324,54,o),
(326,55,c),
(328,57,o),
(330,58,o),
(332,58,c),
(333,58,o),
(332,57,o),
(330,55,c),
(329,54,o),
(326,53,o),
(325,53,c)
);
},
{
closed = 1;
nodes = (
(175,214,o),
(177,220,o),
(180,220,c),
(181,220,o),
(182,218,o),
(182,215,c),
(182,210,o),
(179,209,o),
(176,212,c)
);
},
{
closed = 1;
nodes = (
(102,284,o),
(103,287,o),
(105,290,c),
(107,293,o),
(109,294,o),
(109,292,c),
(109,291,o),
(107,287,o),
(105,285,c),
(103,282,o),
(102,281,o),
(102,282,c)
);
},
{
closed = 1;
nodes = (
(34,352,o),
(33,353,o),
(33,362,c),
(33,373,o),
(34,373,o),
(36,367,c),
(38,362,o),
(38,358,o),
(36,355,c)
);
},
{
closed = 1;
nodes = (
(202,195,o),
(200,198,o),
(201,198,c),
(202,199,o),
(204,198,o),
(207,195,c),
(212,189,o),
(211,188,o),
(204,193,c)
);
},
{
closed = 1;
nodes = (
(166,231,o),
(166,232,o),
(166,235,c),
(166,238,o),
(164,241,o),
(162,241,c),
(160,242,o),
(160,243,o),
(162,245,c),
(164,248,o),
(166,247,o),
(167,241,c),
(169,236,o),
(169,232,o),
(167,232,c)
);
},
{
closed = 1;
nodes = (
(138,265,o),
(137,266,o),
(139,269,c),
(139,272,o),
(140,273,o),
(141,272,c),
(142,271,o),
(141,269,o),
(139,268,c)
);
},
{
closed = 1;
nodes = (
(290,124,o),
(288,125,o),
(290,126,c),
(292,126,o),
(294,126,o),
(296,126,c),
(297,125,o),
(296,124,o),
(293,124,c)
);
},
{
closed = 1;
nodes = (
(65,360,o),
(64,361,o),
(64,364,c),
(64,366,o),
(65,367,o),
(66,367,c),
(67,367,o),
(68,366,o),
(68,364,c),
(68,361,o),
(67,360,o),
(66,360,c)
);
},
{
closed = 1;
nodes = (
(364,55,o),
(364,56,o),
(371,61,c),
(382,69,o),
(382,69,o),
(384,63,c),
(385,59,o),
(384,58,o),
(379,58,c),
(376,58,o),
(372,57,o),
(368,56,c)
);
},
{
closed = 1;
nodes = (
(39,398,o),
(38,399,o),
(38,402,c),
(38,404,o),
(39,405,o),
(39,405,c),
(39,405,o),
(40,404,o),
(41,402,c),
(42,399,o),
(41,398,o),
(40,398,c)
);
},
{
closed = 1;
nodes = (
(129,319,o),
(131,326,o),
(134,329,c),
(137,333,o),
(138,332,o),
(136,327,c),
(135,323,o),
(131,315,o),
(129,308,c),
(125,301,o),
(123,297,o),
(124,299,c)
);
},
{
closed = 1;
nodes = (
(66,386,o),
(66,387,o),
(69,390,c),
(73,393,o),
(74,392,o),
(74,388,c),
(74,382,o),
(73,382,o),
(69,385,c)
);
},
{
closed = 1;
nodes = (
(106,333,o),
(106,333,o),
(114,348,c),
(118,356,o),
(122,362,o),
(123,362,c),
(126,362,o),
(125,354,o),
(122,350,c),
(121,347,o),
(116,343,o),
(112,340,c)
);
},
{
closed = 1;
nodes = (
(52,412,o),
(52,412,o),
(52,420,c),
(52,426,o),
(53,428,o),
(55,427,c),
(56,425,o),
(56,422,o),
(55,418,c)
);
},
{
closed = 1;
nodes = (
(411,60,o),
(411,61,o),
(412,63,c),
(414,65,o),
(416,66,o),
(417,65,c),
(418,64,o),
(418,62,o),
(418,59,c),
(417,57,o),
(416,56,o),
(413,58,c)
);
},
{
closed = 1;
nodes = (
(87,392,o),
(87,392,o),
(87,398,c),
(87,406,o),
(91,410,o),
(93,405,c),
(94,404,o),
(93,400,o),
(91,397,c)
);
},
{
closed = 1;
nodes = (
(348,143,o),
(349,144,o),
(354,144,c),
(359,144,o),
(360,144,o),
(356,140,c),
(349,136,o),
(348,136,o),
(348,140,c)
);
},
{
closed = 1;
nodes = (
(400,90,o),
(399,91,o),
(399,93,c),
(399,94,o),
(401,97,o),
(403,99,c),
(407,102,o),
(407,102,o),
(404,97,c),
(403,94,o),
(401,92,o),
(400,91,c)
);
},
{
closed = 1;
nodes = (
(139,355,o),
(139,360,o),
(140,368,c),
(141,375,o),
(142,385,o),
(142,390,c),
(142,396,o),
(144,402,o),
(147,406,c),
(151,412,o),
(151,412,o),
(148,403,c),
(148,398,o),
(146,385,o),
(145,374,c),
(144,364,o),
(142,355,o),
(141,355,c)
);
},
{
closed = 1;
nodes = (
(396,143,o),
(396,144,o),
(406,144,c),
(412,144,o),
(416,144,o),
(416,143,c),
(416,141,o),
(410,140,o),
(403,142,c)
);
},
{
closed = 1;
nodes = (
(128,418,o),
(130,421,o),
(132,425,c),
(139,436,o),
(144,439,o),
(138,428,c),
(135,423,o),
(131,419,o),
(130,418,c)
);
},
{
closed = 1;
nodes = (
(83,493,o),
(100,517,o),
(103,517,c),
(105,517,o),
(104,513,o),
(95,500,c),
(87,487,o),
(83,483,o),
(83,489,c)
);
},
{
closed = 1;
nodes = (
(168,477,o),
(168,479,o),
(169,480,c),
(171,481,o),
(173,480,o),
(174,478,c),
(175,473,o),
(175,473,o),
(170,476,c)
);
},
{
closed = 1;
nodes = (
(167,545,o),
(169,547,o),
(171,550,c),
(174,553,o),
(176,555,o),
(176,555,c),
(177,555,o),
(176,553,o),
(174,550,c),
(171,547,o),
(169,545,o),
(168,545,c)
);
},
{
closed = 1;
nodes = (
(201,526,o),
(201,527,o),
(203,530,c),
(203,533,o),
(204,534,o),
(205,534,c),
(206,533,o),
(205,531,o),
(203,529,c)
);
},
{
closed = 1;
nodes = (
(194,578,o),
(194,579,o),
(196,582,c),
(198,585,o),
(200,587,o),
(200,588,c),
(200,588,o),
(202,588,o),
(203,587,c),
(205,585,o),
(205,584,o),
(203,581,c),
(202,579,o),
(199,578,o),
(197,578,c)
);
},
{
closed = 1;
nodes = (
(212,566,o),
(221,573,o),
(230,580,c),
(247,591,o),
(248,592,o),
(244,586,c),
(242,582,o),
(238,577,o),
(234,575,c),
(230,573,o),
(224,568,o),
(219,565,c),
(212,561,o),
(211,560,o),
(212,564,c)
);
},
{
closed = 1;
nodes = (
(266,600,o),
(269,603,o),
(274,605,c),
(282,608,o),
(282,608,o),
(277,604,c),
(269,597,o),
(264,595,o),
(265,598,c)
);
},
{
closed = 1;
nodes = (
(228,641,o),
(228,641,o),
(234,645,c),
(244,651,o),
(250,652,o),
(250,648,c),
(250,646,o),
(249,644,o),
(248,644,c),
(246,644,o),
(240,643,o),
(236,642,c)
);
},
{
closed = 1;
nodes = (
(264,649,o),
(264,649,o),
(267,653,c),
(269,655,o),
(273,657,o),
(274,656,c),
(275,655,o),
(274,654,o),
(270,652,c)
);
},
{
closed = 1;
nodes = (
(288,662,o),
(287,662,o),
(290,664,c),
(292,666,o),
(294,667,o),
(294,666,c),
(295,665,o),
(294,664,o),
(292,663,c)
);
},
{
closed = 1;
nodes = (
(387,560,o),
(387,560,o),
(391,565,c),
(394,568,o),
(395,570,o),
(396,570,c),
(396,570,o),
(397,568,o),
(397,565,c),
(397,562,o),
(395,560,o),
(392,560,c)
);
},
{
closed = 1;
nodes = (
(370,586,o),
(370,586,o),
(380,591,c),
(386,593,o),
(391,595,o),
(392,594,c),
(393,594,o),
(392,591,o),
(391,589,c),
(389,585,o),
(386,584,o),
(379,585,c)
);
},
{
closed = 1;
nodes = (
(355,613,o),
(355,615,o),
(357,617,c),
(358,619,o),
(361,621,o),
(362,621,c),
(364,621,o),
(363,619,o),
(361,617,c),
(360,615,o),
(357,613,o),
(357,613,c)
);
},
{
closed = 1;
nodes = (
(388,614,o),
(388,616,o),
(392,620,c),
(397,624,o),
(397,624,o),
(397,618,c),
(397,611,o),
(395,609,o),
(390,613,c)
);
},
{
closed = 1;
nodes = (
(372,652,o),
(372,653,o),
(373,659,c),
(375,663,o),
(375,667,o),
(374,668,c),
(373,669,o),
(378,667,o),
(385,663,c),
(398,658,o),
(398,658,o),
(387,656,c),
(382,656,o),
(376,654,o),
(374,653,c)
);
}
);
width = 458;
}
);
unicode = 67;
},
{
glyphname = D;
kernLeft = D;
kernRight = D;
lastChange = "2026-05-05 08:56:47 +0000";
layers = (
{
anchors = (
{
name = bottom;
pos = (220,0);
},
{
name = center;
pos = (110,350);
},
{
name = top;
pos = (190,700);
}
);
layerId = m01;
shapes = (
{
closed = 1;
nodes = (
(230,18,o),
(284,52,o),
(333,104,c),
(356,131,l),
(342,97,l),
(327,56,o),
(323,52,o),
(327,52,c),
(329,52,o),
(365,121,o),
(381,159,c),
(414,231,o),
(430,303,o),
(430,365,c),
(430,389,o),
(423,444,o),
(417,478,c),
(414,492,o),
(410,506,o),
(410,509,c),
(410,520,o),
(401,554,o),
(390,575,c),
(378,606,o),
(352,637,o),
(320,657,c),
(313,661,o),
(307,664,o),
(307,668,c),
(307,668,o),
(327,664,o),
(345,657,c),
(401,644,o),
(404,647,o),
(356,668,c),
(297,695,o),
(248,705,o),
(181,705,c),
(136,705,o),
(71,699,o),
(68,692,c),
(64,692,o),
(64,681,o),
(64,674,c),
(64,664,o),
(61,637,o),
(61,613,c),
(58,592,o),
(58,551,o),
(55,520,c),
(55,482,o),
(51,454,o),
(45,427,c),
(28,334,o),
(19,276,o),
(19,272,c),
(23,272,o),
(23,269,o),
(35,320,c),
(48,365,o),
(48,365,o),
(48,348,c),
(48,338,o),
(45,313,o),
(42,289,c),
(32,190,o),
(28,142,o),
(28,87,c),
(28,38,o),
(28,28,o),
(32,32,c),
(32,32,o),
(35,45,o),
(39,63,c),
(42,90,l),
(42,66,l),
(42,45,o),
(45,38,o),
(48,35,c),
(48,35,o),
(51,28,o),
(51,25,c),
(51,11,o),
(64,-3,o),
(71,8,c),
(75,11,o),
(75,11,o),
(91,8,c),
(113,1,o),
(145,1,o),
(171,4,c)
);
},
{
closed = 1;
nodes = (
(64,42,o),
(64,42,o),
(64,59,c),
(61,76,o),
(64,111,o),
(68,145,c),
(68,159,o),
(68,159,o),
(71,152,c),
(75,148,o),
(75,138,o),
(71,107,c),
(71,87,o),
(68,63,o),
(68,56,c)
);
},
{
closed = 1;
nodes = (
(106,42,o),
(106,45,o),
(116,73,c),
(122,93,o),
(129,107,o),
(132,104,c),
(132,104,o),
(129,93,o),
(122,80,c),
(116,66,o),
(113,52,o),
(113,49,c),
(116,45,o),
(113,42,o),
(113,42,c)
);
},
{
closed = 1;
nodes = (
(100,93,o),
(97,97,o),
(100,100,c),
(103,104,o),
(103,104,o),
(103,104,c),
(106,100,o),
(103,100,o),
(103,97,c)
);
},
{
closed = 1;
nodes = (
(152,100,o),
(154,111,o),
(158,121,c),
(165,135,o),
(168,135,o),
(168,121,c),
(168,114,o),
(165,107,o),
(154,97,c),
(145,87,o),
(145,87,o),
(149,97,c)
);
},
{
closed = 1;
nodes = (
(223,56,o),
(223,56,o),
(226,63,c),
(230,66,o),
(235,69,o),
(235,63,c),
(235,63,o),
(232,59,o),
(230,59,c)
);
},
{
closed = 1;
nodes = (
(91,197,o),
(91,203,o),
(91,214,c),
(91,231,o),
(97,252,o),
(100,252,c),
(106,252,o),
(103,252,o),
(97,224,c),
(93,210,o),
(91,200,o),
(91,197,c)
);
},
{
closed = 1;
nodes = (
(255,80,o),
(255,80,o),
(255,76,c),
(255,76,o),
(255,73,o),
(252,73,c),
(246,69,o),
(246,69,o),
(248,73,c)
);
},
{
closed = 1;
nodes = (
(71,241,o),
(71,252,o),
(71,269,c),
(71,300,o),
(71,300,o),
(71,276,c),
(75,265,o),
(75,252,o),
(71,248,c)
);
},
{
closed = 1;
nodes = (
(132,148,o),
(181,248,o),
(190,265,c),
(201,286,o),
(203,283,o),
(190,258,c),
(184,245,o),
(168,214,o),
(158,190,c),
(138,145,o),
(136,142,o),
(132,145,c)
);
},
{
closed = 1;
nodes = (
(126,272,o),
(126,272,o),
(129,272,c),
(129,276,o),
(129,272,o),
(129,269,c),
(126,265,o),
(126,262,o),
(126,269,c)
);
},
{
closed = 1;
nodes = (
(93,331,o),
(93,348,o),
(97,355,c),
(97,358,o),
(100,358,o),
(100,348,c),
(100,344,o),
(97,338,o),
(97,334,c)
);
},
{
closed = 1;
nodes = (
(226,200,o),
(230,203,o),
(232,210,c),
(235,217,o),
(242,224,o),
(242,224,c),
(246,228,o),
(242,221,o),
(235,214,c),
(232,207,o),
(230,203,o),
(226,200,c)
);
},
{
closed = 1;
nodes = (
(122,324,o),
(122,324,o),
(126,331,c),
(129,334,o),
(132,334,o),
(132,327,c),
(129,327,o),
(129,324,o),
(126,324,c)
);
},
{
closed = 1;
nodes = (
(181,468,o),
(187,482,o),
(187,482,c),
(187,478,o),
(187,475,o),
(184,472,c),
(184,465,o),
(181,465,o),
(181,465,c)
);
},
{
closed = 1;
nodes = (
(342,317,o),
(349,327,o),
(352,338,c),
(358,348,o),
(365,358,o),
(365,358,c),
(365,358,o),
(365,351,o),
(365,344,c),
(362,338,o),
(358,331,o),
(349,320,c),
(342,313,o),
(336,310,o),
(339,313,c)
);
},
{
closed = 1;
nodes = (
(291,375,o),
(311,413,o),
(316,420,c),
(320,423,o),
(316,420,o),
(311,406,c),
(304,396,o),
(297,382,o),
(294,382,c)
);
},
{
closed = 1;
nodes = (
(80,626,o),
(80,626,o),
(80,630,c),
(80,630,o),
(80,630,o),
(80,626,c),
(80,623,o),
(80,623,o),
(80,623,c)
);
},
{
closed = 1;
nodes = (
(216,468,o),
(219,475,o),
(219,482,c),
(219,489,o),
(226,496,o),
(232,503,c),
(235,509,o),
(242,513,o),
(242,513,c),
(242,513,o),
(232,485,o),
(226,472,c),
(216,458,o),
(213,454,o),
(216,465,c)
);
},
{
closed = 1;
nodes = (
(109,626,o),
(109,626,o),
(106,637,c),
(100,644,o),
(100,644,o),
(106,644,c),
(109,640,o),
(113,640,o),
(113,640,c),
(116,637,o),
(113,637,o),
(113,633,c)
);
},
{
closed = 1;
nodes = (
(255,461,o),
(259,468,o),
(262,482,c),
(268,499,o),
(287,527,o),
(291,527,c),
(291,527,o),
(281,509,o),
(268,482,c),
(262,472,o),
(255,461,o),
(255,461,c)
);
},
{
closed = 1;
nodes = (
(320,448,o),
(316,448,o),
(311,448,c),
(307,448,o),
(304,451,o),
(307,454,c),
(307,458,o),
(307,458,o),
(313,458,c),
(316,458,o),
(323,461,o),
(327,461,c),
(329,468,o),
(329,465,o),
(329,461,c),
(329,458,o),
(327,451,o),
(327,451,c),
(323,448,o),
(320,444,o),
(320,444,c)
);
},
{
closed = 1;
nodes = (
(323,485,o),
(323,489,o),
(329,496,c),
(329,503,o),
(333,503,o),
(333,499,c),
(333,496,o),
(329,492,o),
(329,489,c)
);
},
{
closed = 1;
nodes = (
(388,454,o),
(388,454,o),
(388,458,c),
(388,461,o),
(388,461,o),
(388,458,c),
(390,458,o),
(390,454,o),
(388,454,c)
);
},
{
closed = 1;
nodes = (
(388,465,o),
(385,472,o),
(385,496,c),
(381,513,o),
(381,513,o),
(388,506,c),
(388,499,o),
(390,492,o),
(390,482,c)
);
},
{
closed = 1;
nodes = (
(352,520,o),
(352,523,o),
(352,527,c),
(352,530,o),
(352,527,o),
(352,523,c),
(352,520,o),
(352,516,o),
(352,520,c)
);
},
{
closed = 1;
nodes = (
(297,589,o),
(300,592,o),
(300,595,c),
(304,602,o),
(304,602,o),
(307,599,c),
(307,595,o),
(307,592,o),
(307,592,c),
(307,592,o),
(304,589,o),
(300,589,c),
(297,585,o),
(294,585,o),
(297,585,c)
);
},
{
closed = 1;
nodes = (
(262,619,o),
(262,623,o),
(264,633,c),
(264,644,o),
(264,644,o),
(252,644,c),
(242,644,o),
(242,644,o),
(252,647,c),
(262,650,o),
(262,650,o),
(271,647,c),
(284,640,o),
(284,640,o),
(281,637,c),
(281,633,o),
(278,630,o),
(275,630,c),
(271,630,o),
(268,630,o),
(264,626,c)
);
},
{
closed = 1;
nodes = (
(307,613,o),
(307,613,o),
(307,616,c),
(307,616,o),
(313,616,o),
(313,616,c),
(313,613,o),
(311,613,o),
(311,613,c)
);
}
);
width = 440;
}
);
unicode = 68;
},
{
glyphname = Eth;
kernLeft = D;
kernRight = D;
lastChange = "2026-05-05 08:12:08 +0000";
layers = (
{
layerId = m01;
shapes = (
{
closed = 1;
nodes = (
(41,352,o),
(144,353,o),
(200,350,c),
(241,347,o),
(255,349,o),
(256,353,c),
(256,356,o),
(256,360,o),
(255,365,c),
(252,371,o),
(252,379,o),
(256,395,c),
(260,414,o),
(261,417,o),
(259,420,c),
(256,420,o),
(253,421,o),
(249,420,c),
(249,420,o),
(233,418,o),
(217,420,c),
(202,420,o),
(159,421,o),
(126,421,c),
(94,421,o),
(40,423,o),
(32,424,c),
(23,426,o),
(22,426,o),
(18,421,c),
(13,418,o),
(13,418,o),
(14,407,c),
(13,401,o),
(14,392,o),
(13,388,c),
(13,382,o),
(14,376,o),
(13,373,c),
(14,369,o),
(13,360,o),
(11,349,c),
(9,343,o),
(13,343,o),
(23,346,c)
);
},
{
closed = 1;
nodes = (
(32,366,o),
(28,369,o),
(28,373,c),
(26,379,o),
(28,382,o),
(31,376,c),
(31,375,o),
(32,371,o),
(32,369,c)
);
},
{
closed = 1;
nodes = (
(27,411,o),
(25,412,o),
(25,414,c),
(21,417,o),
(21,417,o),
(36,415,c),
(41,415,o),
(46,414,o),
(46,414,c),
(43,412,o),
(23,407,o),
(25,410,c)
);
},
{
closed = 1;
nodes = (
(92,371,o),
(52,372,o),
(94,372,c),
(98,372,o),
(108,373,o),
(118,373,c),
(129,375,o),
(132,373,o),
(129,373,c),
(127,371,o),
(118,369,o),
(109,371,c)
);
},
{
pos = (75,0);
ref = D;
},
{
closed = 1;
nodes = (
(154,371,o),
(153,373,o),
(155,373,c),
(155,373,o),
(156,375,o),
(153,376,c),
(149,379,o),
(153,379,o),
(159,376,c),
(159,375,o),
(161,372,o),
(159,372,c),
(159,372,o),
(157,371,o),
(155,371,c)
);
},
{
closed = 1;
nodes = (
(194,384,o),
(194,385,o),
(194,385,c),
(196,385,o),
(198,386,o),
(198,386,c),
(200,386,o),
(198,385,o),
(198,385,c),
(198,384,o),
(198,384,o),
(195,384,c)
);
},
{
closed = 1;
nodes = (
(233,369,o),
(232,371,o),
(232,371,c),
(233,372,o),
(234,373,o),
(237,373,c),
(238,375,o),
(240,375,o),
(238,372,c),
(237,371,o),
(236,369,o),
(236,369,c)
);
},
{
closed = 1;
nodes = (
(241,407,o),
(241,408,o),
(244,408,c),
(246,410,o),
(246,410,o),
(246,408,c),
(249,407,o),
(246,405,o),
(244,405,c)
);
}
);
width = 515;
}
);
unicode = 208;
},
{
glyphname = E;
kernLeft = E;
kernRight = E;
lastChange = "2026-05-05 08:12:15 +0000";
layers = (
{
anchors = (
{
name = bottom;
pos = (225,0);
},
{
name = ogonek;
pos = (413,53);
},
{
name = top;
pos = (215,700);
},
{
name = topleft;
pos = (20,700);
}
);
layerId = m01;
shapes = (
{
closed = 1;
nodes = (
(426,-6,o),
(432,-3,o),
(364,11,c),
(309,25,o),
(245,35,o),
(203,39,c),
(167,42,l),
(203,42,l),
(225,42,o),
(245,39,o),
(248,39,c),
(254,35,o),
(332,39,o),
(380,42,c),
(423,49,o),
(432,52,o),
(432,59,c),
(429,63,o),
(429,70,o),
(429,73,c),
(426,83,o),
(423,83,o),
(407,94,c),
(396,97,o),
(383,107,o),
(380,114,c),
(374,121,o),
(361,128,o),
(355,132,c),
(345,138,o),
(338,142,o),
(335,149,c),
(332,152,o),
(316,162,o),
(297,173,c),
(245,200,o),
(232,211,o),
(216,221,c),
(209,224,o),
(187,238,o),
(171,248,c),
(147,262,o),
(135,269,o),
(135,272,c),
(135,279,o),
(147,283,o),
(225,297,c),
(277,307,o),
(348,324,o),
(348,324,c),
(351,327,o),
(332,324,o),
(286,317,c),
(264,314,o),
(241,314,o),
(241,314,c),
(241,314,o),
(245,314,o),
(248,317,c),
(277,321,o),
(367,355,o),
(374,365,c),
(374,365,o),
(371,369,o),
(371,372,c),
(367,379,o),
(364,379,o),
(358,379,c),
(351,379,o),
(348,379,o),
(348,382,c),
(345,389,o),
(332,396,o),
(326,396,c),
(322,396,o),
(316,396,o),
(313,400,c),
(303,407,o),
(232,424,o),
(193,431,c),
(183,431,o),
(171,434,o),
(171,437,c),
(167,437,o),
(187,455,o),
(206,475,c),
(268,534,o),
(387,664,o),
(387,671,c),
(387,675,o),
(383,675,o),
(374,668,c),
(367,658,o),
(367,658,o),
(371,668,c),
(378,682,o),
(374,682,o),
(316,685,c),
(300,685,o),
(286,688,o),
(284,688,c),
(284,688,o),
(280,688,o),
(277,685,c),
(277,685,o),
(268,685,o),
(248,685,c),
(232,685,o),
(223,685,o),
(225,685,c),
(228,685,o),
(264,692,o),
(306,699,c),
(348,706,o),
(380,713,o),
(383,713,c),
(383,713,o),
(383,716,o),
(380,716,c),
(361,716,o),
(245,702,o),
(193,695,c),
(131,688,o),
(125,688,o),
(122,692,c),
(119,699,o),
(109,699,o),
(90,692,c),
(73,685,o),
(70,685,o),
(70,695,c),
(70,695,o),
(70,699,o),
(70,699,c),
(67,702,o),
(61,695,o),
(57,688,c),
(57,685,o),
(54,682,o),
(48,685,c),
(32,688,o),
(18,685,o),
(18,678,c),
(18,675,o),
(18,671,o),
(21,668,c),
(28,664,o),
(28,664,o),
(25,627,c),
(21,578,o),
(21,417,o),
(25,345,c),
(25,310,o),
(25,286,o),
(25,272,c),
(21,259,o),
(21,252,o),
(25,248,c),
(28,242,o),
(28,228,o),
(25,187,c),
(21,159,o),
(18,128,o),
(18,118,c),
(18,104,o),
(18,97,o),
(16,97,c),
(12,94,o),
(12,87,o),
(16,83,c),
(16,83,o),
(18,77,o),
(18,73,c),
(18,66,o),
(18,52,o),
(21,42,c),
(25,22,l),
(99,22,l),
(176,18,o),
(216,18,o),
(332,4,c)
);
},
{
closed = 1;
nodes = (
(50,97,o),
(50,97,o),
(50,107,c),
(50,111,o),
(54,118,o),
(54,118,c),
(54,118,o),
(57,114,o),
(57,111,c),
(57,111,o),
(57,104,o),
(57,101,c),
(57,97,o),
(57,97,o),
(54,97,c)
);
},
{
closed = 1;
nodes = (
(142,238,o),
(135,242,o),
(135,242,c),
(135,248,o),
(135,248,o),
(151,238,c),
(164,228,o),
(164,228,o),
(147,235,c)
);
},
{
closed = 1;
nodes = (
(135,317,o),
(142,317,o),
(154,317,c),
(160,317,o),
(160,317,o),
(147,314,c),
(135,310,o),
(135,307,o),
(135,310,c)
);
},
{
closed = 1;
nodes = (
(248,372,o),
(254,372,o),
(257,372,c),
(270,372,o),
(270,372,o),
(264,369,c),
(251,365,o),
(248,365,o),
(248,369,c)
);
},
{
closed = 1;
nodes = (
(41,640,o),
(41,644,o),
(48,647,c),
(48,647,o),
(48,647,o),
(48,644,c),
(48,640,o),
(48,640,o),
(44,640,c)
);
},
{
closed = 1;
nodes = (
(138,520,o),
(142,527,o),
(147,541,c),
(154,548,o),
(158,554,o),
(160,554,c),
(164,558,o),
(164,554,o),
(160,548,c),
(154,544,o),
(151,537,o),
(147,534,c)
);
},
{
closed = 1;
nodes = (
(326,369,o),
(322,369,o),
(322,372,c),
(322,372,o),
(326,376,o),
(326,376,c),
(329,376,o),
(329,372,o),
(329,372,c),
(329,369,o),
(326,369,o),
(326,369,c)
);
},
{
closed = 1;
nodes = (
(135,572,o),
(142,575,o),
(144,575,c),
(144,575,o),
(144,572,o),
(142,568,c),
(138,568,o),
(135,565,o),
(135,568,c)
);
},
{
closed = 1;
nodes = (
(203,651,o),
(206,654,o),
(209,654,c),
(212,654,o),
(216,651,o),
(216,651,c),
(216,651,o),
(212,647,o),
(206,644,c),
(193,633,o),
(193,633,o),
(199,644,c)
);
},
{
closed = 1;
nodes = (
(232,630,o),
(232,630,o),
(238,644,c),
(245,651,o),
(248,654,o),
(254,654,c),
(264,654,o),
(261,651,o),
(248,640,c)
);
},
{
closed = 1;
nodes = (
(297,599,o),
(300,599,o),
(300,603,c),
(303,606,o),
(303,606,o),
(303,599,c),
(300,596,o),
(297,596,o),
(297,596,c)
);
}
);
width = 450;
}
);
unicode = 69;
},
{
glyphname = F;
kernLeft = F;
kernRight = F;
lastChange = "2026-05-05 08:12:27 +0000";
layers = (
{
layerId = m01;
shapes = (
{
closed = 1;
nodes = (
(168,-3,o),
(170,-3,o),
(173,4,c),
(176,11,o),
(176,11,o),
(182,4,c),
(187,-6,o),
(190,-3,o),
(190,11,c),
(187,22,o),
(187,22,o),
(194,25,c),
(196,28,o),
(199,32,o),
(196,46,c),
(196,49,o),
(196,49,o),
(194,49,c),
(187,52,o),
(187,56,o),
(187,111,c),
(187,169,l),
(194,128,l),
(196,87,o),
(199,63,o),
(199,101,c),
(196,121,o),
(194,211,o),
(194,221,c),
(194,224,o),
(196,217,o),
(199,207,c),
(205,197,o),
(208,190,o),
(208,190,c),
(211,190,o),
(208,200,o),
(205,214,c),
(199,245,o),
(190,297,o),
(194,303,c),
(194,307,o),
(199,307,o),
(272,307,c),
(312,307,o),
(368,303,o),
(391,303,c),
(420,303,o),
(435,303,o),
(428,303,c),
(423,307,o),
(365,314,o),
(318,317,c),
(281,321,l),
(328,327,l),
(435,338,o),
(443,338,o),
(455,345,c),
(464,352,o),
(464,358,o),
(457,369,c),
(453,376,o),
(449,376,o),
(441,379,c),
(435,379,o),
(414,389,o),
(391,400,c),
(371,410,o),
(344,420,o),
(336,427,c),
(324,431,o),
(315,434,o),
(312,437,c),
(310,441,o),
(301,444,o),
(292,448,c),
(263,455,o),
(199,479,o),
(199,482,c),
(199,486,o),
(231,506,o),
(284,541,c),
(307,554,o),
(333,572,o),
(336,575,c),
(342,578,o),
(336,568,o),
(318,544,c),
(303,527,o),
(289,510,o),
(289,506,c),
(289,503,o),
(330,541,o),
(357,568,c),
(365,575,o),
(388,599,o),
(409,620,c),
(461,675,o),
(461,675,o),
(449,685,c),
(443,688,o),
(406,692,o),
(388,688,c),
(380,685,o),
(376,685,o),
(376,688,c),
(376,692,o),
(376,695,o),
(374,699,c),
(371,702,o),
(365,702,o),
(301,699,c),
(231,699,o),
(231,699,o),
(229,702,c),
(223,713,o),
(216,713,o),
(211,702,c),
(205,695,o),
(205,695,o),
(138,695,c),
(77,695,o),
(71,695,o),
(71,699,c),
(69,702,o),
(69,702,o),
(65,702,c),
(65,702,o),
(57,702,o),
(48,699,c),
(31,699,o),
(25,692,o),
(33,682,c),
(39,678,o),
(39,675,o),
(36,603,c),
(36,544,o),
(33,496,o),
(28,420,c),
(25,362,o),
(18,293,o),
(18,262,c),
(17,235,o),
(17,200,o),
(17,187,c),
(13,173,o),
(13,162,o),
(17,162,c),
(17,159,o),
(22,204,o),
(33,290,c),
(36,317,o),
(36,317,o),
(33,283,c),
(33,245,o),
(36,162,o),
(39,138,c),
(43,132,o),
(43,121,o),
(45,118,c),
(48,114,o),
(48,107,o),
(45,87,c),
(43,63,o),
(43,59,o),
(51,52,c),
(54,49,o),
(54,46,o),
(54,46,c),
(54,46,o),
(51,46,o),
(51,46,c),
(45,49,o),
(33,49,o),
(33,42,c),
(31,42,o),
(33,35,o),
(36,32,c),
(54,8,o),
(57,8,o),
(62,18,c),
(65,25,o),
(65,25,o),
(86,25,c),
(106,25,o),
(126,18,o),
(135,15,c),
(138,15,o),
(142,15,o),
(142,18,c),
(142,22,o),
(144,25,o),
(147,25,c),
(147,25,o),
(150,25,o),
(150,28,c),
(150,32,o),
(150,32,o),
(164,28,c),
(178,25,o),
(178,22,o),
(173,15,c),
(170,11,o),
(168,4,o),
(168,1,c)
);
},
{
closed = 1;
nodes = (
(109,63,o),
(101,66,o),
(101,70,c),
(101,70,o),
(98,77,o),
(98,80,c),
(95,83,o),
(95,94,o),
(95,101,c),
(95,114,o),
(95,114,o),
(103,90,c),
(106,77,o),
(109,66,o),
(109,66,c)
);
},
{
closed = 1;
nodes = (
(98,187,l),
(98,200,o),
(98,207,o),
(101,204,c),
(101,204,o),
(101,197,o),
(101,187,c),
(101,173,l)
);
},
{
closed = 1;
nodes = (
(48,321,o),
(48,321,o),
(48,327,c),
(48,331,o),
(51,331,o),
(51,331,c),
(51,327,o),
(51,324,o),
(51,321,c)
);
},
{
closed = 1;
nodes = (
(48,479,o),
(48,482,o),
(48,489,c),
(48,492,o),
(48,496,o),
(48,492,c),
(48,489,o),
(48,486,o),
(48,482,c)
);
},
{
closed = 1;
nodes = (
(196,386,o),
(194,386,o),
(194,389,c),
(194,393,o),
(196,396,o),
(199,393,c),
(199,393,o),
(205,393,o),
(208,389,c),
(211,389,o),
(214,389,o),
(216,386,c),
(216,386,o),
(211,386,o),
(205,386,c)
);
},
{
closed = 1;
nodes = (
(144,486,o),
(144,503,o),
(147,510,c),
(147,513,o),
(147,510,o),
(147,503,c),
(147,496,o),
(147,489,o),
(144,489,c)
);
},
{
closed = 1;
nodes = (
(328,389,o),
(321,389,o),
(318,393,c),
(315,396,o),
(318,396,o),
(328,389,c),
(333,389,o),
(333,386,o),
(333,386,c)
);
},
{
closed = 1;
nodes = (
(86,633,l),
(89,654,o),
(89,654,o),
(91,651,c),
(95,651,o),
(95,644,o),
(89,633,c),
(86,616,l)
);
},
{
closed = 1;
nodes = (
(202,523,o),
(205,523,o),
(208,527,c),
(214,530,o),
(216,530,o),
(216,530,c),
(216,530,o),
(214,527,o),
(208,523,c),
(205,520,o),
(202,520,o),
(202,520,c)
);
},
{
closed = 1;
nodes = (
(116,613,o),
(116,616,o),
(116,623,c),
(116,630,o),
(116,630,o),
(116,630,c),
(117,630,o),
(117,627,o),
(117,623,c),
(117,623,o),
(117,620,o),
(116,616,c)
);
},
{
closed = 1;
nodes = (
(144,630,o),
(138,633,o),
(135,651,c),
(132,654,o),
(132,658,o),
(132,658,c),
(132,661,o),
(135,661,o),
(142,661,c),
(147,664,o),
(147,661,o),
(147,658,c),
(144,654,o),
(144,647,o),
(144,644,c)
);
},
{
closed = 1;
nodes = (
(185,651,o),
(185,658,o),
(182,661,c),
(182,664,o),
(182,664,o),
(187,664,c),
(190,664,o),
(194,664,o),
(190,661,c),
(190,661,o),
(190,654,o),
(190,651,c),
(190,640,o),
(187,640,o),
(185,647,c)
);
}
);
width = 471;
}
);
unicode = 70;
},
{
glyphname = G;
kernLeft = G;
kernRight = G;
lastChange = "2026-05-05 08:56:57 +0000";
layers = (
{
anchors = (
{
name = bottom;
pos = (301,20);
},
{
name = top;
pos = (271,700);
}
);
layerId = m01;
shapes = (
{
closed = 1;
nodes = (
(295,4,o),
(311,0,o),
(318,4,c),
(348,4,ls),
(391,7,o),
(434,22,o),
(474,44,cs),
(493,54,o),
(539,94,o),
(539,101,c),
(539,101,o),
(524,94,o),
(505,82,cs),
(468,61,o),
(468,61,o),
(468,69,cs),
(468,82,o),
(474,144,o),
(481,176,c),
(487,219,o),
(499,323,o),
(499,326,cs),
(499,337,o),
(496,330,o),
(493,319,c),
(489,311,o),
(487,294,o),
(481,280,c),
(474,251,o),
(474,251,o),
(474,266,cs),
(474,273,o),
(477,298,o),
(477,319,c),
(481,341,o),
(481,355,o),
(481,355,c),
(484,351,o),
(484,351,o),
(487,351,cs),
(489,351,o),
(490,356,o),
(488,356,c),
(485,360,o),
(484,362,o),
(484,376,cs),
(484,405,o),
(484,408,o),
(471,405,c),
(468,401,o),
(466,401,o),
(462,405,c),
(357,405,ls),
(252,405,o),
(252,405,o),
(259,416,cs),
(262,420,o),
(280,441,o),
(299,466,cs),
(318,491,o),
(351,537,o),
(372,567,cs),
(394,599,o),
(416,627,o),
(419,627,c),
(422,630,o),
(426,637,o),
(426,637,c),
(427,642,l),
(431,642,o),
(434,642,o),
(438,649,c),
(441,662,o),
(441,662,o),
(410,677,cs),
(364,699,o),
(345,702,o),
(305,702,cs),
(268,702,o),
(241,699,o),
(197,681,cs),
(147,659,o),
(108,634,o),
(61,592,c),
(34,562,o),
(37,567,o),
(37,562,c),
(37,562,o),
(52,570,o),
(67,580,cs),
(82,592,o),
(101,602,o),
(104,605,c),
(108,605,o),
(101,599,o),
(93,584,c),
(52,537,o),
(24,480,o),
(16,412,c),
(9,380,o),
(9,316,o),
(16,283,cs),
(21,248,o),
(27,223,o),
(43,194,c),
(65,140,ls),
(74,115,o),
(82,104,o),
(89,104,cs),
(93,104,o),
(98,101,o),
(108,90,cs),
(139,57,o),
(172,36,o),
(209,19,c),
(234,11,o),
(252,7,o),
(284,4,cs)
);
},
{
closed = 1;
nodes = (
(182,65,o),
(170,72,o),
(170,79,c),
(166,82,o),
(166,86,o),
(166,86,c),
(166,86,o),
(172,82,o),
(179,76,cs),
(185,69,o),
(187,61,o),
(187,61,c)
);
},
{
closed = 1;
nodes = (
(185,101,o),
(187,104,o),
(191,104,c),
(197,108,o),
(201,108,o),
(201,104,c),
(203,104,o),
(204,97,o),
(202,97,cs),
(198,97,o),
(194,101,o),
(194,101,c),
(191,97,o),
(185,97,o),
(185,101,c)
);
},
{
closed = 1;
nodes = (
(292,32,o),
(290,40,o),
(299,44,cs),
(305,47,o),
(307,44,o),
(307,36,cs),
(307,32,o),
(305,32,o),
(302,32,cs)
);
},
{
closed = 1;
nodes = (
(37,301,l),
(34,311,o),
(34,323,o),
(34,323,c),
(37,323,o),
(37,316,o),
(37,305,c),
(40,294,o),
(40,286,o),
(37,286,c)
);
},
{
closed = 1;
nodes = (
(246,97,o),
(262,108,o),
(264,104,c),
(264,104,o),
(262,101,o),
(256,97,cs),
(252,94,o),
(246,94,o),
(246,94,c)
);
},
{
closed = 1;
nodes = (
(277,65,o),
(284,69,o),
(286,72,c),
(305,79,o),
(305,79,o),
(292,72,c),
(280,61,o),
(277,61,o),
(277,65,c)
);
},
{
closed = 1;
nodes = (
(323,36,o),
(323,36,o),
(333,40,c),
(339,44,o),
(342,44,o),
(342,40,c),
(339,36,o),
(336,36,o),
(333,36,cs)
);
},
{
closed = 1;
nodes = (
(34,341,l),
(34,344,l),
(34,333,l)
);
},
{
closed = 1;
nodes = (
(52,362,l),
(52,366,l),
(52,358,l)
);
},
{
closed = 1;
nodes = (
(40,423,l),
(43,430,o),
(43,433,o),
(43,423,cs),
(43,420,o),
(43,416,o),
(40,416,c)
);
},
{
closed = 1;
nodes = (
(379,97,o),
(379,97,o),
(385,104,cs),
(388,108,o),
(391,111,o),
(394,108,c),
(394,104,o),
(397,104,o),
(397,104,c),
(397,104,o),
(391,101,o),
(388,101,c)
);
},
{
closed = 1;
nodes = (
(121,366,o),
(121,369,o),
(121,376,cs),
(121,380,o),
(121,383,o),
(123,380,c),
(123,373,l)
);
},
{
closed = 1;
nodes = (
(216,280,l),
(216,283,o),
(219,283,o),
(219,283,c),
(222,283,o),
(222,283,o),
(222,280,c),
(222,280,o),
(222,276,o),
(219,276,c)
);
},
{
closed = 1;
nodes = (
(65,426,o),
(65,430,o),
(65,433,cs),
(65,441,o),
(67,448,o),
(71,448,cs),
(74,448,o),
(74,445,o),
(71,441,c),
(71,437,o),
(71,433,o),
(67,430,c)
);
},
{
closed = 1;
nodes = (
(431,79,o),
(431,82,o),
(434,82,c),
(434,82,o),
(441,86,o),
(447,94,c),
(456,101,o),
(456,101,o),
(453,90,c),
(453,82,o),
(434,76,o),
(431,79,c)
);
},
{
closed = 1;
nodes = (
(67,462,o),
(67,462,o),
(74,473,c),
(80,487,o),
(82,487,o),
(80,477,c),
(80,473,o),
(74,470,o),
(74,466,c)
);
},
{
closed = 1;
nodes = (
(438,119,o),
(434,115,o),
(444,140,c),
(447,154,o),
(447,161,o),
(447,158,c),
(447,158,o),
(447,147,o),
(444,136,cs),
(441,126,o),
(438,119,o),
(438,119,c)
);
},
{
closed = 1;
nodes = (
(206,380,o),
(209,380,o),
(216,380,c),
(228,383,o),
(228,383,o),
(219,376,c),
(206,369,o),
(206,369,o),
(206,376,cs)
);
},
{
closed = 1;
nodes = (
(61,491,o),
(93,552,o),
(96,548,c),
(96,542,l),
(93,534,o),
(61,483,o),
(61,483,c)
);
},
{
closed = 1;
nodes = (
(96,498,o),
(98,505,o),
(101,509,cs),
(104,512,l),
(104,509,o),
(101,505,o),
(98,502,c),
(96,498,o),
(96,495,o),
(96,498,c)
);
},
{
closed = 1;
nodes = (
(231,380,o),
(231,383,o),
(237,383,cs),
(241,383,o),
(243,380,o),
(243,380,c),
(243,380,o),
(237,376,o),
(234,380,c)
);
},
{
closed = 1;
nodes = (
(449,166,o),
(447,166,o),
(447,169,c),
(449,172,o),
(449,172,o),
(449,169,cs),
(449,166,l)
);
},
{
closed = 1;
nodes = (
(262,383,l),
(264,383,o),
(268,380,o),
(268,380,c),
(262,380,l),
(262,376,o),
(259,380,o),
(259,380,c)
);
},
{
closed = 1;
nodes = (
(132,498,o),
(136,502,o),
(139,505,cs),
(144,512,l),
(144,512,o),
(144,509,o),
(142,505,c),
(139,502,o),
(136,498,o),
(136,498,c)
);
},
{
closed = 1;
nodes = (
(237,405,o),
(237,408,o),
(243,416,cs),
(246,420,o),
(259,433,o),
(268,452,c),
(280,470,o),
(292,483,o),
(292,483,c),
(292,483,o),
(290,477,o),
(284,470,c),
(277,458,o),
(268,445,o),
(262,430,c),
(252,416,o),
(246,405,o),
(243,405,cs)
);
},
{
closed = 1;
nodes = (
(114,570,o),
(123,584,o),
(136,595,cs),
(147,605,o),
(144,602,o),
(129,584,cs),
(123,577,o),
(121,570,o),
(117,567,c),
(114,562,l)
);
},
{
closed = 1;
nodes = (
(182,542,o),
(182,545,o),
(185,552,cs),
(187,555,o),
(191,555,o),
(191,555,c),
(191,555,o),
(191,552,o),
(187,548,cs)
);
},
{
closed = 1;
nodes = (
(351,376,o),
(351,376,o),
(351,380,c),
(354,383,o),
(357,383,o),
(364,383,cs),
(369,383,l),
(366,380,o),
(364,380,o),
(357,376,c)
);
},
{
closed = 1;
nodes = (
(449,301,o),
(453,316,o),
(456,323,c),
(459,326,o),
(459,326,o),
(459,323,cs),
(459,319,o),
(456,311,o),
(456,308,cs),
(456,305,o),
(456,301,o),
(453,301,cs)
);
},
{
closed = 1;
nodes = (
(213,570,o),
(209,570,o),
(209,573,c),
(213,577,l),
(216,577,l),
(216,573,o),
(213,573,o),
(213,570,c)
);
},
{
closed = 1;
nodes = (
(170,624,o),
(170,627,o),
(175,630,cs),
(182,634,o),
(182,630,o),
(179,627,c),
(175,627,o),
(172,624,o),
(172,624,c)
);
},
{
closed = 1;
nodes = (
(426,397,l),
(422,383,l),
(419,383,l)
);
},
{
closed = 1;
nodes = (
(447,373,o),
(447,373,o),
(447,376,c),
(444,380,l),
(441,380,o),
(447,383,o),
(453,383,cs),
(462,383,o),
(466,383,o),
(466,380,cs),
(466,376,o),
(462,373,o),
(459,373,c),
(456,376,o),
(453,373,o),
(449,373,cs)
);
},
{
closed = 1;
nodes = (
(286,545,o),
(284,555,o),
(280,555,cs),
(277,555,o),
(277,555,o),
(280,559,c),
(284,567,o),
(284,567,o),
(286,559,c),
(290,555,o),
(292,552,o),
(292,552,c),
(295,552,l),
(290,545,l),
(286,542,o),
(284,537,o),
(284,542,c)
);
},
{
closed = 1;
nodes = (
(314,530,o),
(318,534,o),
(333,555,c),
(354,577,l),
(354,577,o),
(348,567,o),
(339,555,cs),
(326,537,o),
(321,530,o),
(318,530,cs)
);
},
{
closed = 1;
nodes = (
(243,662,o),
(252,667,o),
(252,667,c),
(252,667,o),
(249,662,o),
(246,659,c),
(241,656,o),
(241,656,o),
(241,659,c)
);
},
{
closed = 1;
nodes = (
(290,656,o),
(292,659,o),
(295,662,c),
(307,670,l),
(307,674,o),
(311,674,o),
(314,674,cs),
(321,674,o),
(321,674,o),
(314,670,c),
(305,662,o),
(290,652,o),
(290,656,c)
);
},
{
closed = 1;
nodes = (
(339,674,o),
(342,674,o),
(348,674,cs),
(351,674,l),
(348,670,o),
(345,670,o),
(342,670,c),
(339,667,o),
(339,667,o),
(339,670,cs)
);
},
{
closed = 1;
nodes = (
(404,645,o),
(407,645,o),
(407,649,c),
(410,649,o),
(407,652,o),
(407,652,c),
(407,652,o),
(404,652,o),
(404,649,cs)
);
}
);
width = 542;
}
);
unicode = 71;
},
{
glyphname = H;
kernLeft = H;
kernRight = H;
lastChange = "2026-05-05 08:12:39 +0000";
layers = (
{
layerId = m01;
shapes = (
{
closed = 1;
nodes = (
(47,-2,o),
(50,-2,o),
(50,1,c),
(50,6,o),
(53,6,o),
(88,13,c),
(108,13,o),
(111,13,o),
(115,9,c),
(121,6,o),
(124,6,o),
(121,13,c),
(121,17,o),
(121,17,o),
(137,17,c),
(173,9,o),
(192,13,o),
(185,24,c),
(180,40,o),
(176,304,o),
(182,311,c),
(185,316,o),
(185,296,o),
(185,251,c),
(189,183,o),
(196,69,o),
(198,66,c),
(198,66,o),
(198,198,o),
(198,266,c),
(198,293,o),
(198,316,o),
(198,316,c),
(202,316,o),
(221,316,o),
(241,319,c),
(263,322,o),
(283,322,o),
(286,322,c),
(286,322,o),
(289,308,o),
(289,258,c),
(289,224,o),
(289,172,o),
(289,141,c),
(292,111,o),
(292,77,o),
(292,66,c),
(292,46,o),
(295,43,o),
(299,40,c),
(299,40,o),
(308,40,o),
(318,40,c),
(331,40,o),
(360,40,o),
(386,35,c),
(434,35,o),
(444,35,o),
(441,43,c),
(441,46,o),
(434,115,o),
(432,175,c),
(425,251,o),
(416,504,o),
(418,516,c),
(418,527,o),
(421,519,o),
(421,489,c),
(425,432,o),
(434,327,o),
(434,319,c),
(438,316,o),
(438,682,o),
(434,705,c),
(434,705,o),
(425,705,o),
(370,700,c),
(308,693,o),
(306,693,o),
(302,682,c),
(302,678,o),
(299,659,o),
(299,640,c),
(299,584,o),
(295,504,o),
(292,463,c),
(292,421,l),
(247,417,l),
(221,417,o),
(198,417,o),
(198,417,c),
(198,417,o),
(198,482,o),
(198,557,c),
(196,644,o),
(196,693,o),
(192,697,c),
(192,697,o),
(192,700,o),
(192,705,c),
(192,712,o),
(185,719,o),
(180,716,c),
(180,712,o),
(176,708,o),
(176,705,c),
(176,705,o),
(176,697,o),
(173,697,c),
(166,693,o),
(166,693,o),
(144,693,c),
(128,697,o),
(76,700,o),
(66,700,c),
(40,700,o),
(30,700,o),
(27,693,c),
(21,685,o),
(21,682,o),
(27,682,c),
(30,682,o),
(30,678,o),
(34,671,c),
(37,652,o),
(30,564,o),
(24,477,c),
(21,432,o),
(14,372,o),
(14,345,c),
(11,288,o),
(11,217,o),
(14,221,c),
(14,221,o),
(27,300,o),
(30,345,c),
(30,356,o),
(34,304,o),
(34,217,c),
(34,127,o),
(37,54,o),
(37,32,c),
(40,6,o),
(43,-2,o),
(43,-2,c)
);
},
{
closed = 1;
nodes = (
(131,46,o),
(131,54,o),
(128,77,c),
(124,127,o),
(124,134,o),
(131,93,c),
(134,74,o),
(137,54,o),
(137,51,c),
(137,46,o),
(137,46,o),
(134,46,c)
);
},
{
closed = 1;
nodes = (
(124,138,o),
(124,141,o),
(124,141,c),
(124,145,o),
(124,145,o),
(124,141,c),
(124,138,o),
(124,138,o),
(124,138,c)
);
},
{
closed = 1;
nodes = (
(88,209,o),
(86,217,o),
(88,232,c),
(88,255,l),
(88,235,l),
(92,221,o),
(92,213,o),
(88,213,c)
);
},
{
closed = 1;
nodes = (
(302,54,o),
(299,58,o),
(299,77,c),
(302,96,o),
(302,96,o),
(302,80,c),
(306,74,o),
(308,66,o),
(308,66,c),
(311,62,o),
(311,58,o),
(311,58,c),
(308,58,o),
(306,58,o),
(306,58,c)
);
},
{
closed = 1;
nodes = (
(34,379,o),
(34,379,o),
(34,383,c),
(34,387,o),
(34,387,o),
(34,387,c),
(37,383,o),
(37,383,o),
(34,379,c)
);
},
{
closed = 1;
nodes = (
(335,100,o),
(328,119,o),
(331,119,c),
(335,119,o),
(344,111,o),
(344,107,c),
(344,100,o),
(338,93,o),
(335,96,c)
);
},
{
closed = 1;
nodes = (
(53,364,o),
(53,364,o),
(53,376,c),
(53,383,o),
(56,398,o),
(56,409,c),
(56,429,l),
(56,409,l),
(59,402,o),
(59,387,o),
(59,379,c),
(59,368,o),
(59,364,o),
(56,364,c)
);
},
{
closed = 1;
nodes = (
(363,88,o),
(363,88,o),
(363,93,c),
(363,96,o),
(363,96,o),
(363,93,c),
(367,93,o),
(367,88,o),
(363,88,c)
);
},
{
closed = 1;
nodes = (
(131,322,o),
(131,322,o),
(131,327,c),
(131,330,o),
(131,330,o),
(131,330,c),
(134,327,o),
(134,327,o),
(131,322,c)
);
},
{
closed = 1;
nodes = (
(399,62,o),
(376,62,o),
(376,66,c),
(380,69,o),
(386,77,o),
(389,77,c),
(389,77,o),
(396,80,o),
(399,85,c),
(399,88,o),
(402,93,o),
(405,93,c),
(405,93,o),
(405,88,o),
(409,80,c),
(409,69,o),
(409,66,o),
(405,62,c)
);
},
{
closed = 1;
nodes = (
(102,364,o),
(102,368,o),
(102,368,c),
(102,372,o),
(102,372,o),
(104,372,c),
(104,372,o),
(104,372,o),
(104,368,c),
(104,368,o),
(102,364,o),
(102,364,c)
);
},
{
closed = 1;
nodes = (
(131,345,o),
(131,345,o),
(131,349,c),
(131,353,o),
(131,353,o),
(131,353,c),
(134,349,o),
(134,349,o),
(131,345,c)
);
},
{
closed = 1;
nodes = (
(76,421,o),
(76,432,o),
(76,437,c),
(76,443,o),
(76,440,o),
(76,424,c),
(76,413,o),
(76,406,o),
(76,413,c)
);
},
{
closed = 1;
nodes = (
(363,217,o),
(367,240,o),
(373,251,c),
(376,258,o),
(376,258,o),
(373,232,c),
(373,209,o),
(370,198,o),
(367,209,c)
);
},
{
closed = 1;
nodes = (
(182,413,o),
(182,424,o),
(182,459,c),
(182,482,o),
(185,500,o),
(185,500,c),
(185,500,o),
(185,482,o),
(185,459,c),
(185,429,o),
(185,413,o),
(182,413,c)
);
},
{
closed = 1;
nodes = (
(335,330,o),
(335,330,o),
(335,334,c),
(335,338,o),
(335,342,o),
(335,338,c),
(338,338,o),
(338,334,o),
(335,330,c)
);
},
{
closed = 1;
nodes = (
(315,353,o),
(311,356,o),
(311,361,c),
(311,364,o),
(315,364,o),
(315,364,c),
(315,364,o),
(318,364,o),
(318,361,c),
(318,356,o),
(315,353,o),
(315,353,c)
);
},
{
closed = 1;
nodes = (
(95,624,o),
(99,629,o),
(99,629,c),
(99,629,o),
(102,621,o),
(99,618,c),
(99,602,o),
(95,602,o),
(95,618,c)
);
},
{
closed = 1;
nodes = (
(121,637,o),
(118,637,o),
(115,640,c),
(111,648,o),
(111,648,o),
(118,644,c),
(121,644,o),
(121,640,o),
(121,637,c)
);
},
{
closed = 1;
nodes = (
(102,674,o),
(102,674,o),
(115,674,c),
(124,674,o),
(124,674,o),
(124,671,c),
(124,666,o),
(124,666,o),
(111,671,c)
);
},
{
closed = 1;
nodes = (
(147,671,o),
(147,671,o),
(147,674,c),
(147,674,o),
(147,678,o),
(150,678,c),
(150,678,o),
(150,674,o),
(150,674,c),
(150,671,o),
(150,671,o),
(150,671,c)
);
},
{
closed = 1;
nodes = (
(322,572,o),
(322,572,o),
(318,579,c),
(318,584,o),
(322,587,o),
(322,587,c),
(324,587,o),
(324,587,o),
(324,587,c),
(324,584,o),
(324,579,o),
(322,576,c)
);
},
{
closed = 1;
nodes = (
(318,666,o),
(318,666,o),
(315,671,c),
(315,674,o),
(315,674,o),
(318,674,c),
(318,674,o),
(318,674,o),
(318,671,c),
(318,666,o),
(318,666,o),
(318,666,c)
);
},
{
closed = 1;
nodes = (
(373,666,o),
(373,671,o),
(383,671,c),
(389,671,o),
(396,674,o),
(399,674,c),
(402,674,o),
(405,674,o),
(405,671,c),
(405,671,o),
(402,666,o),
(399,666,c),
(396,666,o),
(392,663,o),
(389,659,c),
(383,652,o),
(380,652,o),
(376,659,c)
);
}
);
width = 454;
}
);
unicode = 72;
},
{
glyphname = Hbar;
kernLeft = H;
kernRight = H;
lastChange = "2026-05-05 08:12:39 +0000";
layers = (
{
layerId = m01;
shapes = (
{
closed = 1;
nodes = (
(75,522,o),
(304,523,o),
(427,520,c),
(519,517,o),
(548,519,o),
(551,523,c),
(552,526,o),
(551,530,o),
(548,535,c),
(542,541,o),
(542,549,o),
(552,565,c),
(561,584,o),
(562,587,o),
(557,590,c),
(552,590,o),
(545,591,o),
(536,590,c),
(535,590,o),
(500,588,o),
(465,590,c),
(431,590,o),
(337,591,o),
(263,591,c),
(193,591,o),
(73,593,o),
(55,594,c),
(35,596,o),
(32,596,o),
(25,591,c),
(12,588,o),
(12,588,o),
(14,577,c),
(13,571,o),
(14,562,o),
(13,558,c),
(13,552,o),
(14,546,o),
(13,543,c),
(14,539,o),
(13,530,o),
(8,519,c),
(4,513,o),
(13,513,o),
(36,516,c)
);
},
{
closed = 1;
nodes = (
(55,536,o),
(46,539,o),
(46,543,c),
(42,549,o),
(46,552,o),
(52,546,c),
(52,545,o),
(56,541,o),
(56,539,c)
);
},
{
closed = 1;
nodes = (
(44,581,o),
(40,582,o),
(40,584,c),
(31,587,o),
(31,587,o),
(63,585,c),
(75,585,o),
(87,584,o),
(87,584,c),
(80,582,o),
(36,577,o),
(40,580,c)
);
},
{
pos = (60,0);
ref = H;
},
{
closed = 1;
nodes = (
(187,541,o),
(99,542,o),
(192,542,c),
(202,542,o),
(223,543,o),
(246,543,c),
(269,545,o),
(277,543,o),
(269,543,c),
(265,541,o),
(246,539,o),
(225,541,c)
);
},
{
closed = 1;
nodes = (
(325,541,o),
(322,543,o),
(328,543,c),
(328,543,o),
(330,545,o),
(324,546,c),
(315,549,o),
(324,549,o),
(337,546,c),
(337,545,o),
(341,542,o),
(337,542,c),
(337,542,o),
(332,541,o),
(328,541,c)
);
},
{
closed = 1;
nodes = (
(413,554,o),
(413,555,o),
(413,555,c),
(418,555,o),
(423,556,o),
(423,556,c),
(427,556,o),
(423,555,o),
(423,555,c),
(423,554,o),
(422,554,o),
(417,554,c)
);
},
{
closed = 1;
nodes = (
(500,539,o),
(498,541,o),
(498,541,c),
(500,542,o),
(502,543,o),
(509,543,c),
(512,545,o),
(515,545,o),
(512,542,c),
(510,541,o),
(507,539,o),
(507,539,c)
);
},
{
closed = 1;
nodes = (
(517,577,o),
(519,578,o),
(525,578,c),
(529,580,o),
(529,580,o),
(530,578,c),
(535,577,o),
(529,575,o),
(524,575,c)
);
}
);
width = 564;
}
);
unicode = 294;
},
{
glyphname = I;
kernLeft = I;
kernRight = I;
lastChange = "2026-05-05 08:12:46 +0000";
layers = (
{
anchors = (
{
name = bottom;
pos = (108,0);
},
{
name = ogonek;
pos = (169,18);
},
{
name = top;
pos = (108,700);
},
{
name = topleft;
pos = (20,700);
}
);
layerId = m01;
shapes = (
{
closed = 1;
nodes = (
(76,8,l),
(93,8,o),
(116,8,o),
(132,12,c),
(149,12,o),
(159,12,o),
(165,12,c),
(169,8,o),
(175,8,o),
(175,8,c),
(175,12,o),
(175,19,o),
(175,30,c),
(171,137,o),
(175,187,o),
(195,374,c),
(202,434,o),
(208,488,o),
(205,488,c),
(205,488,o),
(204,488,o),
(204,488,c),
(201,488,o),
(185,399,o),
(178,359,c),
(175,324,l),
(175,362,l),
(171,417,o),
(178,538,o),
(182,624,c),
(185,675,o),
(185,696,o),
(182,696,c),
(182,700,o),
(178,700,o),
(171,700,c),
(153,696,o),
(73,693,o),
(59,696,c),
(47,700,o),
(47,700,o),
(41,693,c),
(36,689,o),
(36,685,o),
(41,685,c),
(43,681,o),
(43,675,o),
(41,635,c),
(41,610,o),
(36,553,o),
(33,509,c),
(33,467,o),
(29,392,o),
(26,345,c),
(20,270,o),
(13,158,o),
(13,130,c),
(13,127,o),
(17,123,o),
(17,123,c),
(20,123,o),
(24,152,o),
(33,234,c),
(41,280,o),
(41,280,o),
(41,158,c),
(43,95,o),
(43,33,o),
(43,23,c),
(47,5,l)
);
},
{
closed = 1;
nodes = (
(79,30,o),
(82,30,o),
(86,26,c),
(84,26,o),
(83,26,o),
(82,26,c),
(76,26,o),
(78,26,o),
(76,26,c)
);
},
{
closed = 1;
nodes = (
(132,26,o),
(138,33,o),
(146,30,c),
(153,30,o),
(155,30,o),
(155,33,c),
(159,37,o),
(159,33,o),
(159,30,c),
(159,23,o),
(155,23,o),
(142,23,c)
);
},
{
closed = 1;
nodes = (
(119,66,o),
(116,70,o),
(116,73,c),
(112,76,o),
(112,80,o),
(112,98,c),
(116,115,l),
(119,95,l),
(119,87,o),
(122,73,o),
(119,70,c),
(120,69,o),
(120,69,o),
(119,66,c)
);
},
{
closed = 1;
nodes = (
(57,148,o),
(57,152,o),
(57,155,c),
(57,158,o),
(57,158,o),
(59,158,c),
(59,155,o),
(59,152,o),
(59,152,c)
);
},
{
closed = 1;
nodes = (
(129,165,o),
(129,165,o),
(129,170,c),
(129,173,o),
(129,174,o),
(129,176,c),
(132,176,o),
(132,170,o),
(129,165,c)
);
},
{
closed = 1;
nodes = (
(59,309,o),
(57,309,o),
(57,317,c),
(57,324,o),
(59,324,o),
(59,320,c),
(59,317,o),
(59,312,o),
(59,309,c)
);
},
{
closed = 1;
nodes = (
(59,349,o),
(59,356,o),
(59,374,c),
(59,392,o),
(59,399,o),
(59,392,c),
(63,381,o),
(63,367,o),
(59,356,c)
);
},
{
closed = 1;
nodes = (
(76,534,o),
(76,534,o),
(76,549,c),
(76,560,o),
(76,564,o),
(79,560,c),
(79,560,o),
(79,553,o),
(79,546,c)
);
},
{
closed = 1;
nodes = (
(135,618,o),
(132,618,o),
(132,621,c),
(135,624,o),
(135,624,o),
(135,621,c),
(135,621,o),
(135,618,o),
(135,618,c)
);
},
{
closed = 1;
nodes = (
(153,624,o),
(153,624,o),
(155,635,c),
(155,639,o),
(159,646,o),
(159,646,c),
(159,649,o),
(165,635,o),
(165,631,c),
(165,631,o),
(162,628,o),
(159,628,c)
);
},
{
closed = 1;
nodes = (
(133,667,o),
(142,675,o),
(149,671,c),
(149,668,o),
(149,668,o),
(149,664,c),
(146,656,o),
(137,652,o),
(133,660,c)
);
},
{
closed = 1;
nodes = (
(159,685,o),
(159,685,o),
(162,685,c),
(162,685,o),
(165,685,o),
(165,689,c),
(169,689,o),
(171,689,o),
(171,685,c),
(171,681,o),
(169,681,o),
(165,681,c),
(162,681,o),
(159,681,o),
(159,681,c)
);
},
{
closed = 1;
nodes = (
);
}
);
width = 216;
}
);
unicode = 73;
},
{
glyphname = J;
kernLeft = J;
kernRight = J;
lastChange = "2026-05-05 08:25:54 +0000";
layers = (
{
anchors = (
{
name = bottom;
pos = (169,0);
},
{
name = top;
pos = (169,700);
}
);
layerId = m01;
shapes = (
{
closed = 1;
nodes = (
(145,5,o),
(184,12,o),
(216,39,c),
(265,77,o),
(304,170,o),
(317,273,c),
(317,290,o),
(320,307,o),
(320,311,c),
(323,318,o),
(320,321,o),
(320,321,c),
(320,321,o),
(313,304,o),
(307,280,c),
(304,259,o),
(300,242,o),
(297,242,c),
(297,242,o),
(300,256,o),
(300,270,c),
(300,283,o),
(304,335,o),
(304,387,c),
(307,435,o),
(310,490,o),
(310,510,c),
(313,528,o),
(317,565,o),
(320,589,c),
(326,634,o),
(326,662,o),
(320,668,c),
(320,668,o),
(297,668,o),
(271,668,c),
(246,672,o),
(210,672,o),
(194,672,c),
(178,675,o),
(149,675,o),
(133,675,c),
(106,675,o),
(77,679,o),
(77,686,c),
(77,686,o),
(74,686,o),
(68,686,c),
(64,686,o),
(45,689,o),
(29,693,c),
(10,696,o),
(-4,696,o),
(-6,696,c),
(-13,696,o),
(-4,693,o),
(16,686,c),
(42,675,o),
(39,679,o),
(42,638,c),
(42,617,o),
(39,603,o),
(35,593,c),
(32,579,o),
(32,579,o),
(35,576,c),
(42,572,o),
(45,552,o),
(39,548,c),
(35,545,o),
(35,538,o),
(39,528,c),
(45,517,o),
(58,507,o),
(64,514,c),
(68,514,o),
(68,517,o),
(68,521,c),
(68,528,o),
(68,531,o),
(74,531,c),
(77,531,o),
(104,531,o),
(133,531,c),
(184,528,o),
(184,528,o),
(187,517,c),
(187,500,o),
(184,476,o),
(174,407,c),
(171,376,o),
(165,335,o),
(165,314,c),
(161,294,o),
(158,273,o),
(158,270,c),
(158,263,o),
(158,259,o),
(158,259,c),
(161,259,o),
(165,277,o),
(168,297,c),
(174,321,o),
(178,338,o),
(178,338,c),
(178,338,o),
(178,321,o),
(178,301,c),
(174,259,o),
(168,235,o),
(152,201,c),
(138,173,o),
(133,167,o),
(120,167,c),
(100,167,o),
(64,177,o),
(45,184,c),
(42,187,o),
(39,187,o),
(35,184,c),
(29,180,o),
(29,180,o),
(26,156,c),
(26,142,o),
(23,118,o),
(19,101,c),
(12,70,o),
(12,70,o),
(16,63,c),
(19,60,o),
(26,53,o),
(32,53,c),
(39,50,o),
(42,46,o),
(45,43,c),
(48,36,o),
(52,32,o),
(61,32,c),
(64,32,o),
(71,29,o),
(74,26,c),
(81,22,o),
(93,19,o),
(104,15,c)
);
},
{
closed = 1;
nodes = (
(77,53,o),
(77,53,o),
(84,57,c),
(87,57,o),
(93,57,o),
(93,60,c),
(97,60,o),
(100,60,o),
(104,53,c),
(109,43,o),
(109,43,o),
(90,50,c)
);
},
{
closed = 1;
nodes = (
(122,50,o),
(122,50,o),
(120,57,c),
(109,70,o),
(113,70,o),
(129,60,c),
(129,60,o),
(129,57,o),
(126,53,c)
);
},
{
closed = 1;
nodes = (
(145,43,o),
(145,50,o),
(152,53,c),
(152,53,o),
(158,46,o),
(155,43,c),
(155,43,o),
(152,43,o),
(152,43,c)
);
},
{
closed = 1;
nodes = (
(97,139,o),
(100,139,o),
(104,139,c),
(106,139,o),
(106,136,o),
(106,129,c),
(106,122,o),
(104,118,o),
(100,129,c)
);
},
{
closed = 1;
nodes = (
(181,53,o),
(181,53,o),
(184,60,c),
(184,63,o),
(184,67,o),
(187,63,c),
(187,60,o),
(187,60,o),
(187,57,c),
(187,57,o),
(187,57,o),
(184,53,c)
);
},
{
closed = 1;
nodes = (
(129,94,o),
(129,94,o),
(129,115,c),
(129,136,o),
(126,136,o),
(158,139,c),
(168,139,o),
(168,139,o),
(165,129,c),
(161,122,o),
(158,118,o),
(152,122,c),
(149,122,o),
(145,122,o),
(142,118,c),
(138,115,o),
(133,108,o),
(133,105,c)
);
},
{
closed = 1;
nodes = (
(200,74,o),
(203,77,o),
(203,77,c),
(207,77,o),
(207,74,o),
(207,74,c),
(207,70,o),
(203,67,o),
(203,70,c)
);
},
{
closed = 1;
nodes = (
(207,149,o),
(210,153,o),
(210,153,c),
(214,156,o),
(214,153,o),
(210,149,c),
(210,139,o),
(207,139,o),
(207,146,c)
);
},
{
closed = 1;
nodes = (
(187,187,o),
(187,191,o),
(187,194,c),
(187,194,o),
(187,194,o),
(187,191,c),
(187,187,o),
(187,184,o),
(187,187,c)
);
},
{
closed = 1;
nodes = (
(214,187,o),
(214,191,o),
(214,194,c),
(214,197,o),
(214,197,o),
(216,197,c),
(216,197,o),
(216,194,o),
(216,194,c),
(216,191,o),
(216,187,o),
(216,187,c)
);
},
{
closed = 1;
nodes = (
(265,194,o),
(265,197,o),
(265,201,c),
(265,201,o),
(265,201,o),
(265,197,c),
(265,194,o),
(265,191,o),
(265,194,c)
);
},
{
closed = 1;
nodes = (
(268,211,o),
(268,215,o),
(268,218,c),
(268,218,o),
(268,218,o),
(268,215,c),
(268,208,o),
(268,208,o),
(268,208,c)
);
},
{
closed = 1;
nodes = (
(232,194,o),
(230,252,o),
(232,252,c),
(232,256,o),
(232,273,o),
(236,290,c),
(236,321,o),
(239,328,o),
(242,325,c),
(242,321,o),
(242,273,o),
(239,235,c),
(236,215,o),
(232,194,o),
(232,194,c)
);
},
{
closed = 1;
nodes = (
(268,222,o),
(268,225,o),
(268,228,c),
(268,232,o),
(271,235,o),
(271,232,c),
(271,228,o),
(271,225,o),
(271,225,c)
);
},
{
closed = 1;
nodes = (
(271,242,o),
(271,246,o),
(271,249,c),
(271,249,o),
(271,252,o),
(271,249,c),
(275,246,o),
(275,246,o),
(271,246,c)
);
},
{
closed = 1;
nodes = (
(181,345,o),
(178,345,o),
(178,349,c),
(181,352,o),
(181,352,o),
(181,349,c),
(181,349,o),
(181,345,o),
(181,345,c)
);
},
{
closed = 1;
nodes = (
(219,414,o),
(219,414,o),
(219,417,c),
(219,421,o),
(219,424,o),
(223,421,c),
(223,421,o),
(223,417,o),
(223,414,c)
);
},
{
closed = 1;
nodes = (
(223,424,o),
(223,424,o),
(223,435,c),
(223,438,o),
(223,442,o),
(226,442,c),
(226,442,o),
(226,438,o),
(226,431,c)
);
},
{
closed = 1;
nodes = (
(138,586,o),
(136,586,o),
(138,589,c),
(142,589,o),
(149,589,o),
(152,589,c),
(155,586,o),
(152,586,o),
(145,586,c)
);
},
{
closed = 1;
nodes = (
(239,524,o),
(239,524,o),
(239,534,c),
(239,548,o),
(242,552,o),
(242,541,c),
(242,538,o),
(239,531,o),
(239,528,c)
);
},
{
closed = 1;
nodes = (
(252,613,o),
(248,613,o),
(248,620,c),
(248,624,o),
(252,624,o),
(252,624,c),
(252,624,o),
(252,620,o),
(252,617,c)
);
},
{
closed = 1;
nodes = (
(294,583,o),
(307,644,o),
(307,644,c),
(310,644,o),
(310,648,o),
(304,603,c),
(297,572,o),
(294,562,o),
(294,572,c)
);
}
);
width = 338;
}
);
unicode = 74;
},
{
glyphname = K;
kernLeft = K;
kernRight = K;
lastChange = "2026-05-05 08:53:51 +0000";
layers = (
{
anchors = (
{
name = bottom;
pos = (272,0);
},
{
name = top;
pos = (272,700);
}
);
layerId = m01;
shapes = (
{
closed = 1;
nodes = (
(44,8,o),
(44,8,o),
(34,8,c),
(26,8,o),
(24,8,o),
(24,2,c),
(23,-4,o),
(23,-4,o),
(20,3,c),
(19,7,o),
(16,9,o),
(11,11,c),
(5,13,o),
(4,14,o),
(5,20,c),
(6,24,o),
(7,27,o),
(13,27,c),
(19,28,o),
(19,28,o),
(19,103,c),
(19,145,o),
(20,198,o),
(22,221,c),
(24,277,o),
(20,594,o),
(17,636,c),
(13,681,o),
(11,686,o),
(7,687,c),
(-1,689,o),
(0,698,o),
(8,701,c),
(11,702,o),
(40,701,o),
(70,698,c),
(102,696,o),
(134,695,o),
(142,695,c),
(158,696,o),
(173,693,o),
(175,686,c),
(176,683,o),
(175,670,o),
(174,657,c),
(170,624,o),
(165,500,o),
(166,486,c),
(167,475,o),
(167,475,o),
(257,542,c),
(358,618,o),
(401,649,o),
(449,677,c),
(496,705,o),
(501,708,o),
(509,704,c),
(518,701,o),
(518,696,o),
(508,669,c),
(499,647,o),
(499,645,o),
(503,639,c),
(505,635,o),
(507,630,o),
(507,628,c),
(507,625,o),
(498,614,o),
(487,602,c),
(476,590,o),
(467,580,o),
(467,579,c),
(467,578,o),
(467,574,o),
(465,571,c),
(465,567,o),
(463,562,o),
(461,561,c),
(459,559,o),
(458,557,o),
(459,557,c),
(462,552,o),
(454,535,o),
(436,510,c),
(425,495,o),
(405,464,o),
(391,438,c),
(378,414,o),
(362,388,o),
(356,379,c),
(351,369,o),
(347,363,o),
(348,359,c),
(351,351,o),
(346,343,o),
(334,328,c),
(322,316,l),
(348,282,l),
(426,178,o),
(494,80,o),
(511,49,c),
(515,41,o),
(522,30,o),
(525,27,c),
(535,15,o),
(538,9,o),
(535,1,c),
(534,-5,o),
(533,-5,o),
(522,-4,c),
(515,-2,o),
(501,1,o),
(490,6,c),
(442,27,o),
(278,102,o),
(224,130,c),
(192,146,o),
(165,159,o),
(165,159,c),
(165,159,o),
(163,127,o),
(162,87,c),
(161,49,o),
(160,16,o),
(160,15,c),
(159,15,o),
(158,11,o),
(158,7,c),
(158,2,o),
(158,2,o),
(156,7,c),
(152,9,o),
(151,11,o),
(148,8,c),
(144,7,o),
(126,6,o),
(99,6,c),
(55,7,o),
(55,7,o),
(54,1,c),
(53,-4,o),
(51,-6,o),
(46,-6,c),
(42,-7,o),
(41,-7,o),
(43,1,c)
);
},
{
closed = 1;
nodes = (
(31,31,o),
(31,38,o),
(34,42,c),
(36,44,o),
(36,50,o),
(35,59,c),
(33,72,o),
(33,72,o),
(32,57,c),
(31,49,o),
(28,38,o),
(28,35,c),
(27,28,o),
(27,28,o),
(34,28,c),
(37,28,o),
(38,29,o),
(36,29,c)
);
},
{
closed = 1;
nodes = (
(499,46,o),
(489,51,o),
(489,46,c),
(489,42,o),
(505,30,o),
(514,28,c),
(514,28,o),
(511,32,o),
(506,38,c)
);
},
{
closed = 1;
nodes = (
(151,42,o),
(149,43,o),
(144,43,c),
(141,43,o),
(139,42,o),
(139,39,c),
(139,37,o),
(141,35,o),
(144,35,c),
(149,35,o),
(151,37,o),
(151,39,c)
);
},
{
closed = 1;
nodes = (
(95,78,o),
(95,78,o),
(93,70,c),
(91,66,o),
(90,64,o),
(89,64,c),
(87,64,o),
(86,60,o),
(86,56,c),
(86,49,o),
(87,49,o),
(95,49,c),
(104,49,o),
(104,49,o),
(99,62,c)
);
},
{
closed = 1;
nodes = (
(432,132,o),
(426,138,o),
(425,137,c),
(424,135,o),
(446,107,o),
(449,107,c),
(450,107,o),
(444,114,o),
(437,124,c)
);
},
{
closed = 1;
nodes = (
(95,156,o),
(95,157,o),
(94,151,c),
(94,142,o),
(97,129,o),
(98,132,c),
(98,135,o),
(98,141,o),
(96,146,c)
);
},
{
closed = 1;
nodes = (
(76,141,o),
(74,151,o),
(72,159,c),
(68,177,o),
(68,177,o),
(65,167,c),
(63,158,o),
(68,134,o),
(71,134,c),
(72,134,o),
(74,136,o),
(74,138,c)
);
},
{
closed = 1;
nodes = (
(347,149,o),
(340,154,o),
(332,159,c),
(318,170,o),
(314,175,o),
(320,179,c),
(323,181,o),
(314,192,o),
(305,198,c),
(300,200,o),
(298,200,o),
(295,198,c),
(293,195,o),
(293,195,o),
(293,199,c),
(293,200,o),
(291,199,o),
(287,194,c),
(283,187,o),
(283,187,o),
(289,181,c),
(292,178,o),
(305,168,o),
(320,160,c),
(349,145,o),
(347,146,o),
(347,147,c)
);
},
{
closed = 1;
nodes = (
(406,168,o),
(403,170,o),
(401,170,c),
(400,170,o),
(400,168,o),
(402,166,c),
(403,164,o),
(407,163,o),
(408,163,c),
(409,163,o),
(409,164,o),
(407,166,c)
);
},
{
closed = 1;
nodes = (
(196,210,o),
(198,214,o),
(197,214,c),
(196,214,o),
(194,210,o),
(191,206,c),
(188,202,o),
(186,199,o),
(187,199,c),
(187,199,o),
(191,202,o),
(193,206,c)
);
},
{
closed = 1;
nodes = (
(372,215,o),
(369,218,o),
(367,217,c),
(366,216,o),
(378,203,o),
(379,203,c),
(380,203,o),
(378,207,o),
(374,212,c)
);
},
{
closed = 1;
nodes = (
(69,270,o),
(67,286,o),
(65,285,c),
(62,284,o),
(63,215,o),
(67,212,c),
(69,210,o),
(70,209,o),
(71,209,c),
(71,210,o),
(71,228,o),
(70,249,c)
);
},
{
closed = 1;
nodes = (
(310,302,o),
(309,303,o),
(305,299,c),
(303,296,o),
(305,293,o),
(314,286,c),
(321,281,o),
(327,277,o),
(327,277,c),
(328,277,o),
(325,281,o),
(320,288,c)
);
},
{
closed = 1;
nodes = (
(179,292,o),
(177,289,o),
(176,286,c),
(173,280,o),
(173,280,o),
(177,285,c),
(179,287,o),
(182,289,o),
(180,291,c)
);
},
{
closed = 1;
nodes = (
(198,331,o),
(198,331,o),
(191,317,c),
(183,302,o),
(182,300,o),
(186,300,c),
(187,300,o),
(189,304,o),
(192,310,c)
);
},
{
closed = 1;
nodes = (
(178,344,o),
(176,343,o),
(174,342,c),
(170,340,o),
(167,339,o),
(166,340,c),
(165,342,o),
(163,336,o),
(163,325,c),
(163,311,l),
(171,325,l),
(175,333,o),
(178,342,o),
(178,343,c)
);
},
{
closed = 1;
nodes = (
(348,435,o),
(354,447,o),
(347,439,c),
(343,435,o),
(325,406,o),
(326,406,c),
(327,406,o),
(331,413,o),
(337,420,c)
);
},
{
closed = 1;
nodes = (
(289,473,l),
(268,452,l),
(257,439,o),
(248,428,o),
(248,425,c),
(248,423,o),
(248,421,o),
(249,422,c),
(249,422,o),
(258,434,o),
(269,448,c)
);
},
{
closed = 1;
nodes = (
(173,452,o),
(173,453,o),
(169,452,c),
(168,451,o),
(166,447,o),
(166,445,c),
(166,438,o),
(167,438,o),
(170,447,c)
);
},
{
closed = 1;
nodes = (
(224,487,o),
(224,487,o),
(214,480,c),
(207,476,o),
(203,472,o),
(203,469,c),
(203,465,o),
(204,465,o),
(214,476,c)
);
},
{
closed = 1;
nodes = (
(54,497,o),
(53,500,o),
(49,500,c),
(45,500,o),
(44,497,o),
(44,488,c),
(44,476,o),
(44,476,o),
(49,480,c),
(52,481,o),
(54,486,o),
(54,492,c)
);
},
{
closed = 1;
nodes = (
(419,591,o),
(427,595,o),
(435,591,c),
(440,589,o),
(442,590,o),
(447,596,c),
(453,604,o),
(478,652,o),
(476,652,c),
(476,652,o),
(447,623,o),
(415,587,c),
(381,552,o),
(365,532,o),
(380,546,c),
(394,562,o),
(409,578,o),
(412,582,c)
);
},
{
closed = 1;
nodes = (
(142,557,o),
(141,555,o),
(141,552,c),
(141,548,o),
(142,546,o),
(142,548,c),
(143,551,o),
(143,553,o),
(142,555,c)
);
},
{
closed = 1;
nodes = (
(52,602,o),
(52,601,o),
(52,595,c),
(52,590,o),
(52,588,o),
(53,591,c),
(54,594,o),
(54,597,o),
(53,600,c)
);
},
{
closed = 1;
nodes = (
(64,663,o),
(63,666,o),
(60,666,c),
(56,666,o),
(55,657,o),
(58,649,c),
(60,642,o),
(64,646,o),
(64,657,c)
);
},
{
closed = 1;
nodes = (
(153,673,o),
(152,676,o),
(151,676,c),
(150,676,o),
(150,673,o),
(150,669,c),
(151,666,o),
(152,663,o),
(152,663,c),
(153,663,o),
(153,666,o),
(153,669,c)
);
},
{
closed = 1;
nodes = (
(38,686,o),
(34,680,o),
(34,675,c),
(34,670,o),
(34,670,o),
(37,676,c),
(40,680,o),
(41,683,o),
(40,683,c)
);
},
{
closed = 1;
nodes = (
(494,690,o),
(492,691,o),
(490,690,c),
(487,688,o),
(486,687,o),
(489,687,c),
(490,687,o),
(492,688,o),
(492,689,c)
);
},
{
closed = 1;
nodes = (
);
}
);
width = 543;
}
);
unicode = 75;
},
{
glyphname = L;
kernLeft = L;
kernRight = L;
lastChange = "2026-05-05 08:13:15 +0000";
layers = (
{
anchors = (
{
name = bottom;
pos = (198,0);
},
{
name = center;
pos = (198,350);
},
{
name = top;
pos = (128,700);
},
{
name = topright;
pos = (236,730);
}
);
layerId = m01;
shapes = (
{
closed = 1;
nodes = (
(336,3,o),
(341,3,o),
(349,8,c),
(353,10,o),
(357,14,o),
(358,17,c),
(360,20,o),
(361,146,o),
(360,160,c),
(359,165,o),
(349,165,o),
(326,160,c),
(312,157,o),
(301,156,o),
(300,156,c),
(300,157,o),
(302,158,o),
(305,159,c),
(313,161,o),
(357,188,o),
(357,191,c),
(357,193,o),
(320,181,o),
(270,162,c),
(238,149,o),
(204,140,o),
(194,140,c),
(187,140,o),
(187,140,o),
(187,226,c),
(188,288,o),
(188,307,o),
(190,294,c),
(197,238,o),
(212,160,o),
(212,181,c),
(212,195,o),
(206,289,o),
(202,338,c),
(195,417,o),
(194,491,o),
(196,582,c),
(198,658,o),
(198,658,o),
(208,658,c),
(219,658,o),
(218,662,o),
(206,664,c),
(201,665,o),
(195,668,o),
(194,671,c),
(191,675,o),
(189,675,o),
(185,674,c),
(182,672,o),
(175,672,o),
(163,674,c),
(154,676,o),
(127,681,o),
(105,684,c),
(58,692,o),
(54,693,o),
(56,696,c),
(58,700,o),
(54,699,o),
(48,694,c),
(42,690,o),
(42,688,o),
(41,619,c),
(39,523,o),
(36,415,o),
(35,424,c),
(30,480,o),
(23,540,o),
(22,542,c),
(20,543,o),
(20,532,o),
(21,512,c),
(26,405,o),
(28,365,o),
(31,313,c),
(34,265,o),
(35,243,o),
(32,177,c),
(30,126,o),
(30,86,o),
(32,64,c),
(33,46,o),
(33,30,o),
(32,29,c),
(31,27,o),
(31,24,o),
(31,22,c),
(32,20,o),
(33,15,o),
(34,10,c),
(35,1,o),
(40,-1,o),
(40,8,c),
(40,14,o),
(40,14,o),
(95,15,c),
(126,16,o),
(151,15,o),
(152,14,c),
(154,11,o),
(213,7,o),
(280,5,c)
);
},
{
closed = 1;
nodes = (
(43,33,o),
(42,33,o),
(42,39,c),
(42,46,o),
(42,46,o),
(45,42,c),
(47,40,o),
(51,37,o),
(55,35,c),
(60,33,o),
(60,33,o),
(51,33,c)
);
},
{
closed = 1;
nodes = (
(98,36,o),
(98,36,o),
(111,38,c),
(118,39,o),
(124,39,o),
(126,37,c),
(127,36,o),
(122,35,o),
(113,35,c)
);
},
{
closed = 1;
nodes = (
(148,38,o),
(142,39,o),
(142,40,c),
(142,42,o),
(144,43,o),
(146,43,c),
(149,43,o),
(155,44,o),
(160,44,c),
(168,46,o),
(170,45,o),
(170,42,c),
(170,39,o),
(167,38,o),
(156,38,c)
);
},
{
closed = 1;
nodes = (
(143,86,o),
(137,87,o),
(137,87,c),
(137,89,o),
(158,96,o),
(161,95,c),
(163,94,o),
(164,92,o),
(163,90,c),
(162,87,o),
(158,86,o),
(149,86,c)
);
},
{
closed = 1;
nodes = (
(84,170,o),
(82,179,o),
(81,194,c),
(80,210,o),
(80,223,o),
(81,223,c),
(81,224,o),
(82,215,o),
(83,203,c),
(84,191,o),
(85,178,o),
(84,174,c)
);
},
{
closed = 1;
nodes = (
(133,132,o),
(132,133,o),
(132,142,c),
(132,147,o),
(131,156,o),
(131,161,c),
(130,172,o),
(130,172,o),
(133,161,c),
(135,155,o),
(138,148,o),
(140,147,c),
(142,145,o),
(145,141,o),
(146,138,c),
(147,133,o),
(147,132,o),
(140,132,c)
);
},
{
closed = 1;
nodes = (
(265,122,o),
(265,123,o),
(267,124,c),
(268,124,o),
(271,124,o),
(271,123,c),
(272,123,o),
(271,122,o),
(268,122,c)
);
},
{
closed = 1;
nodes = (
(104,311,o),
(102,385,o),
(104,389,c),
(106,392,o),
(107,381,o),
(107,352,c),
(107,329,o),
(107,311,o),
(106,311,c)
);
},
{
closed = 1;
nodes = (
(56,434,o),
(55,438,o),
(55,445,c),
(55,452,o),
(56,454,o),
(56,450,c),
(57,447,o),
(57,441,o),
(56,438,c)
);
},
{
closed = 1;
nodes = (
(136,474,o),
(135,476,o),
(135,479,c),
(135,483,o),
(136,484,o),
(136,482,c),
(137,481,o),
(137,478,o),
(136,476,c)
);
},
{
closed = 1;
nodes = (
(57,592,l),
(57,615,o),
(60,627,o),
(63,614,c),
(63,611,o),
(62,599,o),
(61,588,c),
(58,567,l)
);
},
{
closed = 1;
nodes = (
(133,520,o),
(133,522,o),
(133,526,c),
(133,531,o),
(133,532,o),
(134,529,c),
(134,527,o),
(134,524,o),
(134,522,c)
);
},
{
closed = 1;
nodes = (
(106,626,l),
(105,633,o),
(104,641,o),
(103,643,c),
(102,647,o),
(103,647,o),
(109,645,c),
(114,643,o),
(117,642,o),
(117,642,c),
(117,641,o),
(115,635,o),
(112,628,c),
(108,614,l)
);
},
{
closed = 1;
nodes = (
(170,576,o),
(170,577,o),
(170,580,c),
(170,583,o),
(171,584,o),
(171,582,c),
(172,580,o),
(172,578,o),
(171,577,c)
);
},
{
closed = 1;
nodes = (
(172,589,o),
(174,610,o),
(177,625,c),
(179,631,o),
(179,629,o),
(178,617,c),
(177,609,o),
(176,599,o),
(174,596,c)
);
},
{
closed = 1;
nodes = (
(178,645,o),
(177,648,o),
(176,651,c),
(176,655,o),
(176,658,o),
(177,658,c),
(179,658,o),
(180,655,o),
(180,651,c),
(180,648,o),
(179,645,o),
(179,645,c)
);
},
{
closed = 1;
nodes = (
);
}
);
width = 376;
}
);
unicode = 76;
},
{
glyphname = M;
kernLeft = M;
kernRight = M;
lastChange = "2026-05-05 08:13:19 +0000";
layers = (
{
layerId = m01;
shapes = (
{
closed = 1;
nodes = (
(323,-9,o),
(333,-5,o),
(354,-1,c),
(353,5,o),
(352,11,o),
(352,17,c),
(349,18,o),
(348,18,o),
(350,19,c),
(350,20,o),
(351,21,o),
(352,21,c),
(352,38,l),
(352,72,l),
(350,142,l),
(350,153,l),
(351,181,ls),
(351,188,o),
(353,192,o),
(356,192,cs),
(359,192,o),
(362,188,o),
(364,182,cs),
(366,177,o),
(366,168,o),
(366,158,cs),
(364,97,l),
(365,97,o),
(365,96,o),
(366,96,c),
(370,92,o),
(370,92,o),
(366,89,c),
(364,89,l),
(364,75,o),
(369,48,o),
(371,23,c),
(381,23,ls),
(403,23,o),
(407,23,o),
(397,19,c),
(372,17,l),
(373,2,l),
(387,4,o),
(406,5,o),
(430,5,cs),
(512,5,l),
(512,5,o),
(512,16,o),
(515,29,c),
(515,43,o),
(515,75,o),
(519,99,c),
(519,128,o),
(522,177,o),
(522,216,cs),
(522,282,l),
(531,236,ls),
(542,184,o),
(544,173,o),
(544,177,c),
(547,177,o),
(544,198,o),
(542,222,cs),
(528,324,o),
(525,363,o),
(528,441,cs),
(531,521,o),
(531,672,o),
(528,690,c),
(525,700,o),
(525,700,o),
(519,693,cs),
(506,678,o),
(437,588,o),
(403,546,cs),
(384,521,o),
(344,468,o),
(314,426,cs),
(288,384,o),
(261,353,o),
(261,353,c),
(258,356,o),
(249,373,o),
(236,395,cs),
(222,416,o),
(199,458,o),
(183,485,cs),
(167,510,o),
(150,539,o),
(146,542,c),
(146,546,o),
(154,539,o),
(167,524,cs),
(186,504,o),
(249,447,o),
(252,447,cs),
(255,447,o),
(232,472,o),
(186,524,cs),
(163,549,o),
(126,591,o),
(104,619,cs),
(42,697,o),
(34,703,o),
(28,690,c),
(21,683,o),
(25,686,o),
(25,629,cs),
(28,573,o),
(28,573,o),
(25,475,c),
(21,429,o),
(21,366,o),
(21,334,cs),
(25,170,o),
(21,23,o),
(15,19,c),
(12,16,o),
(12,5,o),
(15,5,cs),
(18,5,o),
(18,1,o),
(18,1,c),
(18,1,o),
(21,-3,o),
(25,-3,cs),
(28,-3,l),
(28,1,o),
(140,5,o),
(143,1,c),
(174,-2,l),
(171,11,o),
(172,25,o),
(172,38,cs),
(172,72,l),
(170,142,l),
(170,153,l),
(171,181,ls),
(171,188,o),
(173,192,o),
(176,192,cs),
(179,192,o),
(182,188,o),
(184,182,cs),
(186,177,o),
(186,168,o),
(186,158,cs),
(184,89,l),
(185,70,l),
(188,72,o),
(190,71,o),
(190,68,c),
(186,68,l),
(188,47,o),
(193,18,o),
(193,-3,c),
(213,-3,ls),
(249,-3,o),
(291,-6,o),
(311,-9,c)
);
},
{
closed = 1;
nodes = (
(64,19,o),
(62,23,o),
(62,23,c),
(62,26,l),
(64,26,o),
(64,26,o),
(68,23,c),
(71,19,o),
(71,19,o),
(68,19,cs)
);
},
{
closed = 1;
nodes = (
(62,47,o),
(62,50,o),
(62,58,cs),
(62,65,o),
(62,65,o),
(64,58,c),
(64,47,l)
);
},
{
closed = 1;
nodes = (
(98,68,l),
(98,75,l),
(98,65,l)
);
},
{
closed = 1;
nodes = (
(203,23,o),
(196,26,o),
(196,29,cs),
(196,33,o),
(199,33,o),
(208,33,c),
(216,29,o),
(229,29,o),
(232,26,c),
(245,23,o),
(245,23,o),
(229,23,cs)
);
},
{
closed = 1;
nodes = (
(58,202,o),
(55,222,o),
(55,233,cs),
(55,254,o),
(58,248,o),
(62,226,c),
(62,205,l)
);
},
{
closed = 1;
nodes = (
(245,61,o),
(242,65,o),
(242,75,cs),
(242,85,o),
(245,89,o),
(249,89,c),
(255,96,o),
(258,89,o),
(252,79,c),
(252,65,l),
(252,65,o),
(252,61,o),
(249,61,cs)
);
},
{
closed = 1;
nodes = (
(337,79,o),
(337,79,o),
(341,85,c),
(348,92,o),
(348,92,o),
(348,89,c),
(341,82,ls)
);
},
{
closed = 1;
nodes = (
(269,160,o),
(269,160,o),
(269,163,cs),
(269,166,o),
(269,166,o),
(272,170,c),
(272,166,l),
(272,160,l)
);
},
{
closed = 1;
nodes = (
(426,19,o),
(423,19,o),
(423,23,c),
(423,23,o),
(430,26,o),
(432,26,cs),
(440,26,o),
(443,23,o),
(447,23,c),
(447,19,o),
(443,19,o),
(432,19,cs)
);
},
{
closed = 1;
nodes = (
(269,194,l),
(275,202,l),
(275,202,o),
(275,198,o),
(272,194,c),
(269,194,o),
(269,191,o),
(265,191,c)
);
},
{
closed = 1;
nodes = (
(460,23,l),
(462,26,l),
(466,26,o),
(466,23,o),
(466,23,c),
(462,23,o),
(462,19,o),
(460,19,c)
);
},
{
closed = 1;
nodes = (
(387,104,o),
(387,104,o),
(387,107,c),
(390,110,o),
(394,110,o),
(394,107,c),
(394,107,o),
(394,104,o),
(390,104,cs)
);
},
{
closed = 1;
nodes = (
(478,26,o),
(482,26,o),
(485,29,c),
(489,29,o),
(493,29,o),
(495,33,c),
(499,33,o),
(499,33,o),
(499,29,cs),
(499,26,o),
(499,23,o),
(493,23,c),
(482,19,o),
(478,19,o),
(478,23,cs)
);
},
{
closed = 1;
nodes = (
(370,156,o),
(387,180,o),
(390,177,c),
(390,177,o),
(384,170,o),
(381,160,c),
(373,153,o),
(370,145,o),
(370,149,cs)
);
},
{
closed = 1;
nodes = (
(298,258,o),
(298,261,o),
(304,268,cs),
(311,275,o),
(311,275,o),
(308,265,c),
(308,261,o),
(304,258,o),
(304,258,c)
);
},
{
closed = 1;
nodes = (
(252,324,o),
(252,328,o),
(255,324,c),
(258,324,o),
(261,324,o),
(261,321,c),
(265,317,o),
(258,314,o),
(255,317,c)
);
},
{
closed = 1;
nodes = (
(495,89,ls),
(495,92,o),
(495,96,o),
(499,92,c),
(499,89,o),
(499,85,o),
(495,85,c)
);
},
{
closed = 1;
nodes = (
(245,338,o),
(242,346,o),
(236,353,c),
(229,366,o),
(229,366,o),
(236,356,c),
(242,353,o),
(245,346,o),
(245,342,c),
(249,342,o),
(249,338,o),
(245,338,c)
);
},
{
closed = 1;
nodes = (
(272,334,o),
(282,346,o),
(298,370,c),
(302,370,o),
(298,366,o),
(295,360,cs),
(288,346,o),
(275,328,o),
(272,331,c)
);
},
{
closed = 1;
nodes = (
(146,490,l),
(143,504,o),
(146,500,o),
(154,485,c),
(160,478,o),
(163,472,o),
(160,472,c)
);
},
{
closed = 1;
nodes = (
(495,149,l),
(495,173,l),
(495,124,l)
);
},
{
closed = 1;
nodes = (
(400,405,o),
(403,412,o),
(410,422,cs),
(416,433,o),
(423,441,o),
(423,441,c),
(423,441,o),
(423,436,o),
(419,433,c),
(416,426,o),
(410,419,o),
(410,416,c),
(407,409,o),
(403,405,o),
(400,405,c)
);
},
{
closed = 1;
nodes = (
(384,454,o),
(403,478,o),
(407,478,c),
(407,478,o),
(403,475,o),
(400,472,c),
(387,447,o),
(384,444,o),
(384,447,cs)
);
},
{
closed = 1;
nodes = (
(430,553,o),
(449,573,o),
(453,570,c),
(453,570,o),
(453,563,o),
(447,556,cs),
(440,549,o),
(437,546,o),
(432,549,c)
);
},
{
closed = 1;
nodes = (
(472,539,o),
(476,539,o),
(476,539,c),
(476,542,o),
(478,539,o),
(478,539,c),
(476,535,l),
(472,535,l)
);
},
{
closed = 1;
nodes = (
(499,556,l),
(499,553,l)
);
},
{
closed = 1;
nodes = (
(499,560,o),
(499,560,o),
(499,556,c)
);
},
{
closed = 1;
nodes = (
(502,570,ls),
(502,573,o),
(502,573,o),
(502,570,cs),
(502,566,l)
);
}
);
width = 550;
},
{
associatedMasterId = m01;
layerId = "8F989370-5979-45F7-B32E-10DCB25851E6";
name = "4 May 26 at 18.14";
shapes = (
{
closed = 1;
nodes = (
(439,-8,o),
(439,-8,o),
(439,-5,c),
(439,-5,o),
(396,6,o),
(360,16,c),
(342,19,o),
(344,19,o),
(423,19,c),
(464,19,o),
(503,19,o),
(503,19,c),
(503,19,o),
(503,30,o),
(506,43,c),
(506,57,o),
(506,88,o),
(510,112,c),
(510,140,o),
(513,188,o),
(513,226,c),
(513,291,l),
(522,246,l),
(533,195,o),
(535,184,o),
(535,188,c),
(538,188,o),
(535,208,o),
(533,232,c),
(519,332,o),
(516,370,o),
(519,446,c),
(522,525,o),
(522,673,o),
(519,690,c),
(516,700,o),
(516,700,o),
(510,693,c),
(497,679,o),
(429,590,o),
(396,549,c),
(377,525,o),
(338,473,o),
(309,432,c),
(283,391,o),
(257,360,o),
(257,360,c),
(254,363,o),
(245,380,o),
(232,401,c),
(218,422,o),
(196,463,o),
(180,490,c),
(164,514,o),
(148,542,o),
(144,545,c),
(144,549,o),
(151,542,o),
(164,528,c),
(183,508,o),
(245,452,o),
(248,452,c),
(251,452,o),
(228,477,o),
(183,528,c),
(160,552,o),
(124,593,o),
(102,621,c),
(41,697,o),
(34,703,o),
(28,690,c),
(21,683,o),
(25,686,o),
(25,631,c),
(28,576,o),
(28,576,o),
(25,480,c),
(21,435,o),
(21,373,o),
(21,342,c),
(25,181,o),
(21,37,o),
(15,33,c),
(12,30,o),
(12,19,o),
(15,19,c),
(18,19,o),
(18,16,o),
(18,16,c),
(18,16,o),
(21,12,o),
(25,12,c),
(28,12,o),
(28,12,o),
(28,12,c),
(28,16,o),
(138,19,o),
(141,16,c),
(141,16,o),
(173,12,o),
(209,12,c),
(245,12,o),
(286,9,o),
(306,6,c),
(326,6,o),
(360,-1,o),
(387,-1,c),
(412,-5,o),
(435,-8,o),
(435,-8,c)
);
},
{
closed = 1;
nodes = (
(63,33,o),
(61,37,o),
(61,37,c),
(61,40,o),
(61,40,o),
(61,40,c),
(63,40,o),
(63,40,o),
(67,37,c),
(70,33,o),
(70,33,o),
(67,33,c)
);
},
{
closed = 1;
nodes = (
(61,61,o),
(61,64,o),
(61,71,c),
(61,78,o),
(61,78,o),
(63,71,c),
(63,64,o),
(63,61,o),
(63,61,c)
);
},
{
closed = 1;
nodes = (
(96,74,o),
(96,78,o),
(96,81,c),
(96,88,o),
(96,88,o),
(96,88,c),
(96,85,o),
(96,81,o),
(96,78,c)
);
},
{
closed = 1;
nodes = (
(200,37,o),
(193,40,o),
(193,43,c),
(193,47,o),
(196,47,o),
(205,47,c),
(212,43,o),
(225,43,o),
(228,40,c),
(241,37,o),
(241,37,o),
(225,37,c)
);
},
{
closed = 1;
nodes = (
(176,81,o),
(176,81,o),
(180,81,c),
(183,85,o),
(187,85,o),
(187,81,c),
(187,81,o),
(183,81,o),
(180,81,c)
);
},
{
closed = 1;
nodes = (
(57,212,o),
(54,232,o),
(54,243,c),
(54,263,o),
(57,257,o),
(61,236,c),
(61,226,o),
(61,215,o),
(61,215,c)
);
},
{
closed = 1;
nodes = (
(241,74,o),
(238,78,o),
(238,88,c),
(238,98,o),
(241,102,o),
(245,102,c),
(251,109,o),
(254,102,o),
(248,92,c),
(248,85,o),
(248,81,o),
(248,78,c),
(248,78,o),
(248,74,o),
(245,74,c)
);
},
{
closed = 1;
nodes = (
(344,37,o),
(360,37,o),
(374,37,c),
(396,37,o),
(400,37,o),
(390,33,c),
(371,30,o),
(338,30,o),
(344,33,c)
);
},
{
closed = 1;
nodes = (
(331,92,o),
(331,92,o),
(335,98,c),
(342,105,o),
(342,105,o),
(342,102,c),
(342,102,o),
(338,98,o),
(335,95,c)
);
},
{
closed = 1;
nodes = (
(264,171,o),
(264,171,o),
(264,174,c),
(264,177,o),
(264,177,o),
(267,181,c),
(267,181,o),
(267,181,o),
(267,177,c),
(267,174,o),
(267,174,o),
(267,171,c)
);
},
{
closed = 1;
nodes = (
(419,33,o),
(416,33,o),
(416,37,c),
(416,37,o),
(423,40,o),
(425,40,c),
(432,40,o),
(435,37,o),
(439,37,c),
(439,33,o),
(435,33,o),
(425,33,c)
);
},
{
closed = 1;
nodes = (
(355,102,o),
(351,105,o),
(355,109,c),
(358,112,o),
(358,109,o),
(360,109,c),
(364,105,o),
(364,105,o),
(360,102,c)
);
},
{
closed = 1;
nodes = (
(261,202,o),
(264,205,o),
(264,205,c),
(267,208,o),
(270,212,o),
(270,212,c),
(270,212,o),
(270,208,o),
(267,205,c),
(264,205,o),
(264,202,o),
(261,202,c)
);
},
{
closed = 1;
nodes = (
(452,33,o),
(452,37,o),
(452,37,c),
(452,37,o),
(454,40,o),
(454,40,c),
(458,40,o),
(458,37,o),
(458,37,c),
(454,37,o),
(454,33,o),
(452,33,c)
);
},
{
closed = 1;
nodes = (
(380,116,o),
(380,116,o),
(380,119,c),
(383,122,o),
(387,122,o),
(387,119,c),
(387,119,o),
(387,116,o),
(383,116,c)
);
},
{
closed = 1;
nodes = (
(470,40,o),
(474,40,o),
(477,43,c),
(481,43,o),
(484,43,o),
(486,47,c),
(490,47,o),
(490,47,o),
(490,43,c),
(490,40,o),
(490,37,o),
(484,37,c),
(474,33,o),
(470,33,o),
(470,37,c)
);
},
{
closed = 1;
nodes = (
(364,167,o),
(380,191,o),
(383,188,c),
(383,188,o),
(377,181,o),
(374,171,c),
(367,164,o),
(364,157,o),
(364,160,c)
);
},
{
closed = 1;
nodes = (
(293,267,o),
(293,270,o),
(299,277,c),
(306,284,o),
(306,284,o),
(303,274,c),
(303,270,o),
(299,267,o),
(299,267,c)
);
},
{
closed = 1;
nodes = (
(248,332,o),
(248,336,o),
(251,332,c),
(254,332,o),
(257,332,o),
(257,329,c),
(261,325,o),
(254,322,o),
(251,325,c)
);
},
{
closed = 1;
nodes = (
(486,95,o),
(486,98,o),
(486,102,c),
(486,105,o),
(486,109,o),
(490,105,c),
(490,102,o),
(490,98,o),
(486,98,c)
);
},
{
closed = 1;
nodes = (
(241,346,o),
(238,353,o),
(232,360,c),
(225,373,o),
(225,373,o),
(232,363,c),
(238,360,o),
(241,353,o),
(241,349,c),
(245,349,o),
(245,346,o),
(241,346,c)
);
},
{
closed = 1;
nodes = (
(267,342,o),
(277,353,o),
(293,377,c),
(297,377,o),
(293,373,o),
(290,367,c),
(283,353,o),
(270,336,o),
(267,339,c)
);
},
{
closed = 1;
nodes = (
(157,477,o),
(148,490,o),
(144,494,c),
(141,508,o),
(144,504,o),
(151,490,c),
(157,483,o),
(160,477,o),
(157,477,c)
);
},
{
closed = 1;
nodes = (
(486,126,o),
(486,136,o),
(486,160,c),
(486,184,o),
(486,195,o),
(486,184,c),
(486,171,o),
(486,150,o),
(486,136,c)
);
},
{
closed = 1;
nodes = (
(393,411,o),
(396,418,o),
(403,428,c),
(409,439,o),
(416,446,o),
(416,446,c),
(416,446,o),
(416,442,o),
(412,439,c),
(409,432,o),
(403,425,o),
(403,422,c),
(400,415,o),
(396,411,o),
(393,411,c)
);
},
{
closed = 1;
nodes = (
(377,459,o),
(396,483,o),
(400,483,c),
(400,483,o),
(396,480,o),
(393,477,c),
(380,452,o),
(377,449,o),
(377,452,c)
);
},
{
closed = 1;
nodes = (
(423,556,o),
(441,576,o),
(445,573,c),
(445,573,o),
(445,566,o),
(439,559,c),
(432,552,o),
(429,549,o),
(425,552,c)
);
},
{
closed = 1;
nodes = (
(464,542,o),
(468,542,o),
(468,542,c),
(468,545,o),
(470,542,o),
(470,542,c),
(470,542,o),
(468,538,o),
(468,538,c),
(468,538,o),
(464,538,o),
(464,538,c)
);
},
{
closed = 1;
nodes = (
(490,556,o),
(490,556,o),
(490,559,c),
(490,563,o),
(490,563,o),
(490,559,c),
(490,559,o),
(490,556,o),
(490,556,c)
);
},
{
closed = 1;
nodes = (
(493,566,o),
(493,569,o),
(493,573,c),
(493,576,o),
(493,576,o),
(493,573,c),
(493,573,o),
(493,569,o),
(493,569,c)
);
}
);
width = 550;
}
);
unicode = 77;
},
{
glyphname = N;
kernLeft = N;
kernRight = N;
lastChange = "2026-05-05 08:13:24 +0000";
layers = (
{
anchors = (
{
name = bottom;
pos = (289,0);
},
{
name = top;
pos = (259,700);
}
);
layerId = m01;
shapes = (
{
closed = 1;
nodes = (
(515,-22,o),
(518,-22,o),
(518,-18,c),
(524,-18,o),
(524,-15,o),
(524,-5,c),
(524,2,o),
(524,43,o),
(524,88,c),
(521,167,o),
(521,167,o),
(528,143,c),
(540,92,o),
(564,9,o),
(564,23,c),
(564,23,o),
(557,64,o),
(547,112,c),
(521,257,o),
(521,260,o),
(521,370,c),
(521,456,o),
(521,477,o),
(531,573,c),
(537,666,o),
(537,679,o),
(535,683,c),
(531,686,o),
(531,686,o),
(521,683,c),
(511,676,o),
(506,676,o),
(502,679,c),
(499,683,o),
(489,683,o),
(466,683,c),
(447,686,o),
(427,686,o),
(425,686,c),
(421,690,o),
(405,690,o),
(396,690,c),
(376,690,o),
(373,690,o),
(369,686,c),
(363,683,o),
(363,676,o),
(366,673,c),
(366,669,o),
(366,659,o),
(366,638,c),
(363,624,o),
(360,607,o),
(360,600,c),
(360,590,o),
(356,593,o),
(356,611,c),
(353,621,o),
(337,690,o),
(333,690,c),
(331,697,o),
(333,683,o),
(340,631,c),
(344,597,o),
(350,559,o),
(350,545,c),
(356,504,o),
(356,449,o),
(353,449,c),
(353,449,o),
(347,452,o),
(340,459,c),
(304,494,o),
(175,600,o),
(97,659,c),
(81,669,o),
(63,683,o),
(56,690,c),
(43,703,o),
(34,703,o),
(30,693,c),
(27,690,o),
(27,669,o),
(27,631,c),
(27,600,o),
(23,528,o),
(23,470,c),
(18,346,o),
(18,160,o),
(20,92,c),
(23,57,o),
(23,43,o),
(20,40,c),
(18,37,o),
(20,30,o),
(27,30,c),
(30,30,o),
(34,26,o),
(34,26,c),
(36,19,o),
(50,19,o),
(63,19,c),
(79,23,o),
(137,19,o),
(149,16,c),
(153,12,o),
(162,9,o),
(169,9,c),
(178,9,o),
(178,9,o),
(178,6,c),
(178,-8,o),
(185,-5,o),
(185,9,c),
(185,12,o),
(189,50,o),
(189,88,c),
(191,150,o),
(191,153,o),
(195,136,c),
(198,105,o),
(211,50,o),
(214,50,c),
(214,50,o),
(211,81,o),
(205,171,c),
(198,215,o),
(195,298,o),
(195,298,c),
(195,298,o),
(221,274,o),
(250,239,c),
(288,198,o),
(317,160,o),
(360,105,c),
(425,19,o),
(418,26,o),
(421,26,c),
(421,26,o),
(411,43,o),
(402,64,c),
(380,102,o),
(376,102,o),
(425,50,c),
(441,37,o),
(466,12,o),
(483,-1,c),
(508,-25,o),
(515,-29,o),
(515,-22,c)
);
},
{
closed = 1;
nodes = (
(30,88,o),
(30,92,o),
(30,95,c),
(30,95,o),
(30,95,o),
(30,92,c),
(30,88,o),
(30,85,o),
(30,88,c)
);
},
{
closed = 1;
nodes = (
(52,81,o),
(52,85,o),
(56,88,c),
(56,88,o),
(59,92,o),
(59,92,c),
(59,88,o),
(56,85,o),
(56,81,c),
(52,71,o),
(52,71,o),
(52,78,c)
);
},
{
closed = 1;
nodes = (
(34,140,o),
(34,143,o),
(34,147,c),
(34,147,o),
(34,147,o),
(34,143,c),
(34,140,o),
(34,140,o),
(34,140,c)
);
},
{
closed = 1;
nodes = (
(133,47,o),
(133,47,o),
(137,50,c),
(140,54,o),
(146,54,o),
(146,50,c),
(146,47,o),
(144,47,o),
(140,47,c)
);
},
{
closed = 1;
nodes = (
(79,126,o),
(79,129,o),
(79,129,c),
(79,133,o),
(81,133,o),
(85,136,c),
(88,136,o),
(88,136,o),
(88,136,c),
(88,133,o),
(88,129,o),
(85,126,c),
(79,119,o),
(79,119,o),
(79,122,c)
);
},
{
closed = 1;
nodes = (
(121,109,o),
(121,112,o),
(127,119,c),
(130,126,o),
(130,126,o),
(130,119,c),
(130,116,o),
(130,112,o),
(127,112,c)
);
},
{
closed = 1;
nodes = (
(160,112,l),
(156,133,o),
(156,136,o),
(162,133,c),
(162,133,o),
(162,122,o),
(162,112,c),
(162,95,l)
);
},
{
closed = 1;
nodes = (
(111,153,o),
(111,153,o),
(111,164,c),
(111,177,o),
(114,177,o),
(117,167,c),
(121,157,o),
(121,157,o),
(117,153,c)
);
},
{
closed = 1;
nodes = (
(95,229,o),
(81,322,o),
(81,332,c),
(81,339,o),
(85,318,o),
(88,294,c),
(92,267,o),
(95,239,o),
(95,236,c)
);
},
{
closed = 1;
nodes = (
(36,336,o),
(36,339,o),
(36,346,c),
(36,349,o),
(36,353,o),
(40,349,c),
(40,346,o),
(40,342,o),
(40,339,c)
);
},
{
closed = 1;
nodes = (
(149,308,o),
(149,315,o),
(149,318,c),
(149,322,o),
(149,318,o),
(149,312,c),
(149,305,o),
(149,305,o),
(149,308,c)
);
},
{
closed = 1;
nodes = (
(178,353,o),
(178,353,o),
(178,356,c),
(182,356,o),
(182,356,o),
(185,356,c),
(185,353,o),
(182,353,o),
(182,353,c)
);
},
{
closed = 1;
nodes = (
(95,435,o),
(95,439,o),
(95,442,c),
(95,446,o),
(95,449,o),
(97,446,c),
(97,442,o),
(97,439,o),
(95,439,c)
);
},
{
closed = 1;
nodes = (
(398,140,o),
(396,143,o),
(385,153,c),
(376,164,l),
(389,153,l),
(392,147,o),
(398,143,o),
(398,143,c)
);
},
{
closed = 1;
nodes = (
(499,47,o),
(495,50,o),
(499,50,c),
(499,47,o),
(502,47,o),
(506,47,c),
(508,47,o),
(508,43,o),
(511,40,c),
(515,30,o),
(511,30,o),
(502,40,c)
);
},
{
closed = 1;
nodes = (
(328,243,o),
(328,243,o),
(333,239,c),
(337,239,o),
(340,236,o),
(340,236,c),
(344,229,o),
(340,229,o),
(333,236,c)
);
},
{
closed = 1;
nodes = (
(40,477,o),
(40,477,o),
(40,521,c),
(40,549,o),
(43,576,o),
(43,583,c),
(43,593,o),
(46,597,o),
(46,590,c),
(50,587,o),
(46,583,o),
(46,580,c),
(43,580,o),
(43,566,o),
(46,542,c),
(46,514,o),
(46,501,o),
(43,490,c)
);
},
{
closed = 1;
nodes = (
(95,452,o),
(92,466,o),
(92,490,c),
(92,511,o),
(92,528,o),
(95,528,c),
(95,528,o),
(95,511,o),
(95,490,c),
(97,463,o),
(97,452,o),
(95,452,c)
);
},
{
closed = 1;
nodes = (
(140,442,o),
(137,449,o),
(137,452,c),
(137,459,o),
(137,463,o),
(140,459,c),
(146,459,o),
(149,456,o),
(146,449,c),
(144,449,o),
(144,442,o),
(140,435,c),
(140,425,o),
(140,425,o),
(140,435,c)
);
},
{
closed = 1;
nodes = (
(266,322,o),
(266,322,o),
(259,329,c),
(253,336,o),
(253,336,o),
(259,332,c),
(263,329,o),
(266,325,o),
(266,322,c)
);
},
{
closed = 1;
nodes = (
(425,184,o),
(421,184,o),
(411,195,c),
(405,198,o),
(402,205,o),
(402,208,c),
(402,212,o),
(405,212,o),
(411,205,c),
(414,198,o),
(418,191,o),
(421,191,c)
);
},
{
closed = 1;
nodes = (
(340,257,o),
(337,257,o),
(337,260,c),
(331,267,o),
(331,287,o),
(333,308,c),
(333,318,o),
(337,315,o),
(337,287,c),
(340,270,o),
(340,257,o),
(340,257,c)
);
},
{
closed = 1;
nodes = (
(263,360,o),
(263,360,o),
(259,363,c),
(256,367,o),
(256,391,o),
(259,391,c),
(263,391,o),
(263,387,o),
(263,373,c),
(263,367,o),
(263,360,o),
(263,360,c)
);
},
{
closed = 1;
nodes = (
(221,432,o),
(221,435,o),
(221,439,c),
(221,442,o),
(221,442,o),
(221,442,c),
(224,439,o),
(224,439,o),
(221,435,c)
);
},
{
closed = 1;
nodes = (
(240,425,o),
(240,428,o),
(240,425,c),
(243,425,o),
(243,422,o),
(240,422,c),
(240,418,o),
(240,418,o),
(240,422,c)
);
},
{
closed = 1;
nodes = (
(356,305,o),
(353,308,o),
(353,315,c),
(353,322,o),
(356,325,o),
(356,322,c),
(356,318,o),
(356,312,o),
(356,308,c)
);
},
{
closed = 1;
nodes = (
(499,177,o),
(499,184,o),
(499,184,c),
(502,184,o),
(502,177,o),
(502,174,c),
(506,157,o),
(502,157,o),
(499,171,c)
);
},
{
closed = 1;
nodes = (
(221,452,o),
(218,452,o),
(218,459,c),
(218,463,o),
(221,463,o),
(221,463,c),
(221,459,o),
(221,456,o),
(221,452,c)
);
},
{
closed = 1;
nodes = (
(385,287,o),
(385,291,o),
(385,294,c),
(385,298,o),
(385,301,o),
(389,298,c),
(389,294,o),
(389,291,o),
(389,291,c),
(389,287,o),
(389,287,o),
(389,287,c)
);
},
{
closed = 1;
nodes = (
(240,442,o),
(237,446,o),
(237,449,c),
(237,449,o),
(240,449,o),
(240,449,c),
(243,449,o),
(243,446,o),
(243,446,c),
(243,446,o),
(243,442,o),
(240,442,c)
);
},
{
closed = 1;
nodes = (
(279,418,o),
(276,422,o),
(276,425,c),
(276,428,o),
(276,428,o),
(279,425,c),
(282,422,o),
(282,418,o),
(282,418,c)
);
},
{
closed = 1;
nodes = (
(69,628,o),
(65,645,o),
(65,645,c),
(69,648,o),
(75,638,o),
(75,628,c),
(79,618,o),
(79,618,o),
(72,621,c)
);
},
{
closed = 1;
nodes = (
(156,549,o),
(156,549,o),
(153,556,c),
(149,559,o),
(149,559,o),
(153,556,c),
(156,552,o),
(156,552,o),
(156,549,c)
);
},
{
closed = 1;
nodes = (
(114,583,o),
(108,587,o),
(104,597,c),
(104,600,o),
(104,604,o),
(104,604,c),
(104,607,o),
(111,604,o),
(114,597,c),
(121,590,o),
(121,590,o),
(117,587,c)
);
},
{
closed = 1;
nodes = (
(356,342,o),
(350,356,o),
(350,360,c),
(350,363,o),
(350,370,o),
(347,373,c),
(347,377,o),
(347,377,o),
(353,373,c),
(360,370,o),
(360,370,o),
(360,360,c),
(360,353,o),
(356,346,o),
(356,346,c)
);
},
{
closed = 1;
nodes = (
(392,353,o),
(392,349,o),
(392,353,c),
(385,353,o),
(380,353,o),
(380,356,c),
(380,363,o),
(392,360,o),
(392,353,c)
);
},
{
closed = 1;
nodes = (
(443,294,o),
(437,301,o),
(431,308,c),
(418,322,o),
(414,339,o),
(421,339,c),
(425,339,o),
(441,315,o),
(443,301,c),
(443,298,o),
(443,294,o),
(443,294,c)
);
},
{
closed = 1;
nodes = (
(198,542,o),
(191,549,o),
(182,559,c),
(173,569,l),
(185,559,l),
(195,552,o),
(205,545,o),
(205,545,c),
(207,542,o),
(207,542,o),
(205,542,c)
);
},
{
closed = 1;
nodes = (
(353,432,o),
(340,442,o),
(340,446,c),
(337,449,o),
(340,449,o),
(347,442,c),
(353,439,o),
(356,435,o),
(356,435,c),
(356,432,o),
(356,432,o),
(356,432,c)
);
},
{
closed = 1;
nodes = (
(499,281,o),
(499,305,o),
(499,325,c),
(502,346,o),
(502,346,o),
(502,315,c),
(502,298,o),
(502,281,o),
(502,281,c)
);
},
{
closed = 1;
nodes = (
(373,442,o),
(373,442,o),
(373,470,c),
(373,487,o),
(376,508,o),
(376,514,c),
(380,532,o),
(380,532,o),
(380,511,c),
(380,490,o),
(380,490,o),
(385,487,c),
(392,483,o),
(392,483,o),
(392,466,c),
(392,456,o),
(392,449,o),
(389,446,c),
(389,446,o),
(382,442,o),
(380,442,c)
);
},
{
closed = 1;
nodes = (
(431,514,o),
(427,518,o),
(431,521,c),
(431,521,o),
(431,518,o),
(434,514,c),
(437,501,o),
(434,501,o),
(431,511,c)
);
},
{
closed = 1;
nodes = (
(431,607,o),
(434,611,o),
(434,607,c),
(434,604,o),
(434,600,o),
(434,600,c),
(434,590,o),
(427,593,o),
(427,600,c)
);
},
{
closed = 1;
nodes = (
(376,659,o),
(373,659,o),
(373,666,c),
(373,666,o),
(376,669,o),
(376,666,c),
(376,666,o),
(380,666,o),
(376,662,c)
);
},
{
closed = 1;
nodes = (
(396,666,o),
(396,666,o),
(402,662,c),
(408,662,o),
(408,662,o),
(405,655,c),
(405,645,o),
(398,645,o),
(398,655,c)
);
},
{
closed = 1;
nodes = (
(434,648,o),
(434,648,o),
(434,652,c),
(434,655,o),
(434,659,o),
(437,659,c),
(441,659,o),
(441,655,o),
(437,652,c),
(437,648,o),
(437,648,o),
(434,648,c)
);
},
{
closed = 1;
nodes = (
(457,655,o),
(457,659,o),
(459,659,c),
(463,659,o),
(466,655,o),
(466,655,c),
(473,648,o),
(473,648,o),
(463,655,c)
);
},
{
closed = 1;
nodes = (
(511,607,o),
(506,614,o),
(506,618,c),
(506,621,o),
(506,631,o),
(499,638,c),
(492,655,o),
(492,655,o),
(502,655,c),
(506,659,o),
(508,659,o),
(508,659,c),
(508,662,o),
(511,662,o),
(511,662,c),
(515,662,o),
(518,659,o),
(515,638,c),
(515,621,o),
(515,611,o),
(511,611,c)
);
}
);
width = 578;
}
);
unicode = 78;
},
{
glyphname = O;
kernLeft = O;
kernRight = O;
lastChange = "2026-05-05 09:17:44 +0000";
layers = (
{
anchors = (
{
name = bottom;
pos = (275,0);
},
{
name = center;
pos = (275,350);
},
{
name = ogonek;
pos = (495,10);
},
{
name = top;
pos = (275,700);
},
{
name = topleft;
pos = (20,700);
},
{
name = topright;
pos = (530,700);
}
);
layerId = m01;
shapes = (
{
closed = 1;
nodes = (
(240,-15,o),
(294,-12,o),
(340,2,c),
(391,16,o),
(398,19,o),
(356,12,c),
(343,12,o),
(330,12,o),
(326,12,c),
(324,12,o),
(356,30,o),
(359,30,c),
(366,30,o),
(418,85,o),
(430,105,c),
(443,129,o),
(469,174,o),
(479,202,c),
(504,260,o),
(524,301,o),
(521,305,c),
(521,308,o),
(524,325,o),
(528,346,c),
(533,363,o),
(537,380,o),
(537,384,c),
(533,387,o),
(514,336,o),
(501,291,c),
(498,274,o),
(492,263,o),
(492,263,c),
(492,263,o),
(492,274,o),
(495,287,c),
(508,373,o),
(501,470,o),
(476,542,c),
(452,604,o),
(407,648,o),
(349,679,c),
(317,697,o),
(301,700,o),
(265,700,c),
(233,700,o),
(214,697,o),
(182,679,c),
(155,662,o),
(137,645,o),
(110,611,c),
(81,573,o),
(68,549,o),
(52,518,c),
(33,473,o),
(20,432,o),
(13,367,c),
(11,349,o),
(13,353,o),
(20,370,c),
(29,404,o),
(42,446,o),
(42,446,c),
(42,446,o),
(42,439,o),
(39,432,c),
(39,422,o),
(36,397,o),
(33,377,c),
(29,325,o),
(33,284,o),
(42,236,c),
(49,205,o),
(52,191,o),
(72,140,c),
(94,78,o),
(142,26,o),
(191,6,c),
(200,2,o),
(214,-1,o),
(220,-5,c)
);
},
{
closed = 1;
nodes = (
(120,95,o),
(117,98,o),
(114,102,c),
(114,105,o),
(110,109,o),
(114,109,c),
(114,109,o),
(117,105,o),
(117,102,c),
(120,98,o),
(120,95,o),
(120,95,c)
);
},
{
closed = 1;
nodes = (
(194,30,o),
(194,33,o),
(198,40,c),
(198,43,o),
(200,40,o),
(204,37,c),
(204,33,o),
(207,30,o),
(204,30,c)
);
},
{
closed = 1;
nodes = (
(78,184,o),
(78,188,o),
(78,188,c),
(78,191,o),
(78,191,o),
(78,188,c),
(78,184,o),
(78,184,o),
(78,184,c)
);
},
{
closed = 1;
nodes = (
(155,92,o),
(152,95,o),
(152,98,c),
(149,102,o),
(149,109,o),
(152,119,c),
(155,136,o),
(155,136,o),
(155,116,c),
(155,102,o),
(155,92,o),
(155,92,c)
);
},
{
closed = 1;
nodes = (
(233,23,o),
(233,23,o),
(236,33,c),
(236,43,o),
(236,43,o),
(240,37,c),
(240,33,o),
(240,30,o),
(243,26,c),
(243,23,o),
(243,23,o),
(240,23,c)
);
},
{
closed = 1;
nodes = (
(214,64,o),
(200,81,o),
(200,85,c),
(200,88,o),
(204,88,o),
(207,85,c),
(211,85,o),
(214,85,o),
(217,88,c),
(220,92,o),
(220,88,o),
(220,78,c),
(220,71,o),
(217,64,o),
(217,64,c)
);
},
{
closed = 1;
nodes = (
(74,195,o),
(68,219,o),
(68,229,c),
(68,239,o),
(72,236,o),
(74,215,c),
(74,205,o),
(74,195,o),
(74,195,c)
);
},
{
closed = 1;
nodes = (
(275,26,o),
(272,26,o),
(275,30,c),
(275,33,o),
(278,37,o),
(281,37,c),
(281,37,o),
(285,37,o),
(285,40,c),
(288,40,o),
(288,40,o),
(292,37,c),
(294,37,o),
(297,33,o),
(294,30,c),
(294,30,o),
(288,30,o),
(281,26,c)
);
},
{
closed = 1;
nodes = (
(191,122,o),
(188,129,o),
(188,136,c),
(184,147,o),
(184,153,o),
(184,157,c),
(191,174,o),
(191,171,o),
(191,147,c),
(191,133,o),
(191,122,o),
(191,122,c)
);
},
{
closed = 1;
nodes = (
(263,92,o),
(275,122,o),
(275,116,c),
(275,112,o),
(272,105,o),
(269,98,c),
(265,88,o),
(263,85,o),
(263,88,c)
);
},
{
closed = 1;
nodes = (
(126,257,o),
(130,267,o),
(133,267,c),
(133,267,o),
(133,267,o),
(133,263,c),
(133,260,o),
(133,253,o),
(133,246,c),
(130,236,o),
(130,236,o),
(130,246,c)
);
},
{
closed = 1;
nodes = (
(340,98,o),
(340,98,o),
(340,102,c),
(343,102,o),
(343,112,o),
(346,119,c),
(349,126,o),
(353,136,o),
(353,140,c),
(356,147,o),
(356,147,o),
(356,133,c),
(356,129,o),
(353,116,o),
(349,112,c),
(346,105,o),
(343,98,o),
(343,98,c)
);
},
{
closed = 1;
nodes = (
(259,212,o),
(265,239,o),
(269,239,c),
(269,239,o),
(269,239,o),
(269,236,c),
(269,229,o),
(263,202,o),
(263,205,c)
);
},
{
closed = 1;
nodes = (
(74,408,o),
(74,411,o),
(74,415,c),
(78,422,o),
(78,422,o),
(78,418,c),
(78,415,o),
(78,408,o),
(74,404,c),
(74,401,o),
(74,401,o),
(74,404,c)
);
},
{
closed = 1;
nodes = (
(78,422,o),
(78,425,o),
(78,428,c),
(78,432,o),
(81,432,o),
(81,428,c),
(81,428,o),
(81,425,o),
(81,425,c)
);
},
{
closed = 1;
nodes = (
(81,432,o),
(81,435,o),
(81,439,c),
(81,442,o),
(81,442,o),
(85,439,c),
(85,439,o),
(85,435,o),
(81,435,c)
);
},
{
closed = 1;
nodes = (
(326,177,o),
(330,202,o),
(330,205,c),
(333,208,o),
(333,205,o),
(333,195,c),
(330,188,o),
(330,177,o),
(330,177,c)
);
},
{
closed = 1;
nodes = (
(407,122,o),
(407,126,o),
(411,136,c),
(418,143,o),
(420,153,o),
(420,153,c),
(424,157,o),
(430,171,o),
(434,184,c),
(443,219,o),
(459,257,o),
(459,253,c),
(463,253,o),
(443,195,o),
(430,167,c),
(424,150,o),
(414,133,o),
(411,129,c)
);
},
{
closed = 1;
nodes = (
(249,655,o),
(252,659,o),
(256,659,c),
(256,659,o),
(259,659,o),
(259,655,c),
(259,655,o),
(256,655,o),
(256,655,c),
(252,652,o),
(249,655,o),
(249,655,c)
);
},
{
closed = 1;
nodes = (
(265,659,o),
(265,659,o),
(278,659,c),
(285,659,o),
(288,659,o),
(288,659,c),
(272,652,o),
(272,652,o),
(269,655,c)
);
},
{
closed = 1;
nodes = (
(456,501,o),
(452,511,o),
(450,521,c),
(447,538,o),
(447,538,o),
(452,521,c),
(456,511,o),
(459,504,o),
(459,504,c)
);
},
{
closed = 1;
nodes = (
(343,618,o),
(333,635,o),
(337,635,c),
(337,638,o),
(340,635,o),
(340,631,c),
(346,624,o),
(353,624,o),
(346,631,c),
(346,638,o),
(346,638,o),
(356,635,c),
(359,631,o),
(359,631,o),
(356,624,c),
(353,621,o),
(349,618,o),
(349,618,c)
);
},
{
closed = 1;
nodes = (
(436,552,o),
(430,569,o),
(430,569,c),
(430,569,o),
(434,566,o),
(436,559,c),
(443,549,o),
(443,545,o),
(440,549,c)
);
}
);
width = 550;
}
);
unicode = 79;
},
{
glyphname = OE;
kernLeft = O;
kernRight = E;
lastChange = "2026-05-05 08:13:34 +0000";
layers = (
{
layerId = m01;
shapes = (
{
closed = 1;
nodes = (
(766,-6,o),
(772,-3,o),
(704,11,c),
(649,25,o),
(585,35,o),
(543,39,c),
(507,42,l),
(543,42,l),
(565,42,o),
(585,39,o),
(588,39,c),
(594,35,o),
(672,39,o),
(720,42,c),
(763,49,o),
(772,52,o),
(772,59,c),
(769,63,o),
(769,70,o),
(769,73,c),
(766,83,o),
(763,83,o),
(747,94,c),
(736,97,o),
(723,107,o),
(720,114,c),
(714,121,o),
(701,128,o),
(695,132,c),
(685,138,o),
(678,142,o),
(675,149,c),
(672,152,o),
(656,162,o),
(637,173,c),
(585,200,o),
(572,211,o),
(556,221,c),
(549,224,o),
(527,238,o),
(511,248,c),
(487,262,o),
(475,269,o),
(475,272,c),
(475,279,o),
(487,283,o),
(565,297,c),
(617,307,o),
(688,324,o),
(688,324,c),
(691,327,o),
(672,324,o),
(626,317,c),
(604,314,o),
(581,314,o),
(581,314,c),
(581,314,o),
(585,314,o),
(588,317,c),
(617,321,o),
(707,355,o),
(714,365,c),
(714,365,o),
(711,369,o),
(711,372,c),
(707,379,o),
(704,379,o),
(698,379,c),
(691,379,o),
(688,379,o),
(688,382,c),
(685,389,o),
(672,396,o),
(666,396,c),
(662,396,o),
(656,396,o),
(653,400,c),
(643,407,o),
(572,424,o),
(533,431,c),
(523,431,o),
(511,434,o),
(511,437,c),
(507,437,o),
(527,455,o),
(546,475,c),
(608,534,o),
(727,664,o),
(727,671,c),
(727,675,o),
(723,675,o),
(714,668,c),
(707,658,o),
(707,658,o),
(711,668,c),
(718,682,o),
(714,682,o),
(656,685,c),
(640,685,o),
(626,688,o),
(624,688,c),
(624,688,o),
(620,688,o),
(617,685,c),
(617,685,o),
(608,685,o),
(588,685,c),
(572,685,o),
(563,685,o),
(565,685,c),
(568,685,o),
(604,692,o),
(646,699,c),
(688,706,o),
(720,713,o),
(723,713,c),
(723,713,o),
(723,716,o),
(720,716,c),
(701,716,o),
(585,702,o),
(533,695,c),
(471,688,o),
(465,688,o),
(462,692,c),
(459,699,o),
(449,699,o),
(430,692,c),
(413,685,o),
(410,685,o),
(410,695,c),
(410,695,o),
(410,699,o),
(410,699,c),
(387,702,o),
(381,695,o),
(377,688,c),
(377,685,o),
(374,682,o),
(368,685,c),
(352,688,o),
(338,685,o),
(338,678,c),
(338,675,o),
(338,671,o),
(341,668,c),
(348,664,o),
(348,664,o),
(345,627,c),
(341,578,o),
(341,417,o),
(345,345,c),
(345,310,o),
(345,286,o),
(345,272,c),
(341,259,o),
(341,252,o),
(345,248,c),
(348,242,o),
(348,228,o),
(345,187,c),
(341,159,o),
(338,128,o),
(338,118,c),
(338,104,o),
(338,97,o),
(336,97,c),
(332,94,o),
(332,87,o),
(336,83,c),
(336,83,o),
(338,77,o),
(338,73,c),
(338,66,o),
(338,52,o),
(341,42,c),
(345,22,l),
(439,22,l),
(516,18,o),
(556,18,o),
(672,4,c)
);
},
{
ref = O;
},
{
closed = 1;
nodes = (
(370,97,o),
(370,97,o),
(370,107,c),
(370,111,o),
(374,118,o),
(374,118,c),
(374,118,o),
(377,114,o),
(377,111,c),
(377,111,o),
(377,104,o),
(377,101,c),
(377,97,o),
(377,97,o),
(374,97,c)
);
},
{
closed = 1;
nodes = (
(482,238,o),
(475,242,o),
(475,242,c),
(475,248,o),
(475,248,o),
(491,238,c),
(504,228,o),
(504,228,o),
(487,235,c)
);
},
{
closed = 1;
nodes = (
(475,317,o),
(482,317,o),
(494,317,c),
(500,317,o),
(500,317,o),
(487,314,c),
(475,310,o),
(475,307,o),
(475,310,c)
);
},
{
closed = 1;
nodes = (
(588,372,o),
(594,372,o),
(597,372,c),
(610,372,o),
(610,372,o),
(604,369,c),
(591,365,o),
(588,365,o),
(588,369,c)
);
},
{
closed = 1;
nodes = (
(361,640,o),
(361,644,o),
(368,647,c),
(368,647,o),
(368,647,o),
(368,644,c),
(368,640,o),
(368,640,o),
(364,640,c)
);
},
{
closed = 1;
nodes = (
(478,520,o),
(482,527,o),
(487,541,c),
(494,548,o),
(498,554,o),
(500,554,c),
(504,558,o),
(504,554,o),
(500,548,c),
(494,544,o),
(491,537,o),
(487,534,c)
);
},
{
closed = 1;
nodes = (
(666,369,o),
(662,369,o),
(662,372,c),
(662,372,o),
(666,376,o),
(666,376,c),
(669,376,o),
(669,372,o),
(669,372,c),
(669,369,o),
(666,369,o),
(666,369,c)
);
},
{
closed = 1;
nodes = (
(475,572,o),
(482,575,o),
(484,575,c),
(484,575,o),
(484,572,o),
(482,568,c),
(478,568,o),
(475,565,o),
(475,568,c)
);
},
{
closed = 1;
nodes = (
(543,651,o),
(546,654,o),
(549,654,c),
(552,654,o),
(556,651,o),
(556,651,c),
(556,651,o),
(552,647,o),
(546,644,c),
(533,633,o),
(533,633,o),
(539,644,c)
);
},
{
closed = 1;
nodes = (
(572,630,o),
(572,630,o),
(578,644,c),
(585,651,o),
(588,654,o),
(594,654,c),
(604,654,o),
(601,651,o),
(588,640,c)
);
},
{
closed = 1;
nodes = (
(637,599,o),
(640,599,o),
(640,603,c),
(643,606,o),
(643,606,o),
(643,599,c),
(640,596,o),
(637,596,o),
(637,596,c)
);
}
);
width = 790;
}
);
metricLeft = "=O";
metricRight = "=E";
unicode = 338;
},
{
glyphname = P;
kernLeft = P;
kernRight = P;
lastChange = "2026-05-05 08:57:07 +0000";
layers = (
{
layerId = m01;
shapes = (
{
closed = 1;
nodes = (
(154,-27,o),
(153,-22,o),
(153,-21,c),
(153,-19,o),
(149,-14,o),
(144,-8,c),
(135,1,o),
(135,1,o),
(94,0,c),
(54,0,o),
(52,-1,o),
(51,-6,c),
(50,-9,o),
(49,-10,o),
(46,-9,c),
(44,-8,o),
(40,-9,o),
(38,-12,c),
(36,-14,o),
(35,-14,o),
(33,-10,c),
(31,-8,o),
(28,-5,o),
(26,-4,c),
(20,0,o),
(17,13,o),
(21,17,c),
(23,19,o),
(24,29,o),
(24,61,c),
(24,83,o),
(25,133,o),
(27,172,c),
(36,331,o),
(34,392,o),
(18,583,c),
(14,628,o),
(12,700,o),
(15,697,c),
(19,692,o),
(30,618,o),
(35,564,c),
(37,546,o),
(37,550,o),
(38,601,c),
(39,633,o),
(39,661,o),
(39,663,c),
(38,666,o),
(38,673,o),
(39,678,c),
(40,688,o),
(47,694,o),
(52,688,c),
(55,686,o),
(67,685,o),
(95,686,c),
(117,687,o),
(164,687,o),
(199,687,c),
(256,687,o),
(267,687,o),
(290,682,c),
(348,669,o),
(379,652,o),
(411,615,c),
(428,595,o),
(439,570,o),
(444,539,c),
(451,494,o),
(437,433,o),
(410,383,c),
(387,341,o),
(339,306,o),
(285,291,c),
(270,288,o),
(270,288,o),
(298,289,c),
(313,290,o),
(339,292,o),
(356,294,c),
(384,297,o),
(389,297,o),
(387,294,c),
(385,293,o),
(339,280,o),
(317,275,c),
(277,267,o),
(219,272,o),
(187,288,c),
(181,290,o),
(176,293,o),
(175,293,c),
(174,293,o),
(170,195,o),
(163,18,c),
(162,3,o),
(161,-16,o),
(160,-24,c),
(158,-39,o),
(158,-39,o),
(156,-32,c)
);
},
{
closed = 1;
nodes = (
(54,40,o),
(51,39,o),
(50,29,c),
(50,24,o),
(52,23,o),
(58,23,c),
(66,23,o),
(66,23,o),
(60,32,c)
);
},
{
closed = 1;
nodes = (
(119,36,o),
(118,36,o),
(115,34,c),
(111,30,o),
(112,26,o),
(119,26,c),
(126,26,o),
(126,26,o),
(122,32,c)
);
},
{
closed = 1;
nodes = (
(72,52,o),
(71,53,o),
(70,53,c),
(68,53,o),
(68,52,o),
(69,51,c),
(69,49,o),
(70,47,o),
(71,47,c),
(71,47,o),
(72,49,o),
(72,51,c)
);
},
{
closed = 1;
nodes = (
(125,63,o),
(113,72,o),
(111,72,c),
(111,72,o),
(110,69,o),
(110,65,c),
(110,60,o),
(112,60,o),
(118,59,c),
(122,59,o),
(125,60,o),
(125,61,c)
);
},
{
closed = 1;
nodes = (
(76,118,l),
(75,141,o),
(74,181,o),
(74,206,c),
(73,251,o),
(73,251,o),
(72,192,c),
(69,124,o),
(68,115,o),
(62,116,c),
(57,116,o),
(57,115,o),
(57,103,c),
(57,97,o),
(56,88,o),
(56,83,c),
(54,75,o),
(54,75,o),
(66,75,c),
(77,76,l)
);
},
{
closed = 1;
nodes = (
(43,111,o),
(42,109,o),
(42,103,c),
(42,98,o),
(43,96,o),
(43,99,c),
(44,101,o),
(44,105,o),
(43,109,c)
);
},
{
closed = 1;
nodes = (
(183,326,o),
(177,327,o),
(176,325,c),
(175,323,o),
(176,322,o),
(179,322,c),
(181,322,o),
(183,323,o),
(183,323,c)
);
},
{
closed = 1;
nodes = (
(314,366,o),
(314,367,o),
(312,367,c),
(310,367,o),
(306,365,o),
(304,362,c),
(299,355,o),
(303,355,o),
(310,362,c)
);
},
{
closed = 1;
nodes = (
(391,402,o),
(412,451,o),
(412,460,c),
(412,467,o),
(407,455,o),
(404,443,c),
(402,433,o),
(392,417,o),
(388,417,c),
(385,417,o),
(379,407,o),
(370,385,c),
(362,367,o),
(366,368,o),
(381,389,c)
);
},
{
closed = 1;
nodes = (
(344,407,o),
(343,407,o),
(342,405,c),
(341,402,o),
(340,400,o),
(340,397,c),
(340,396,o),
(341,396,o),
(342,400,c),
(343,402,o),
(344,404,o),
(344,406,c)
);
},
{
closed = 1;
nodes = (
(252,434,o),
(252,447,o),
(250,447,c),
(248,447,o),
(241,419,o),
(242,415,c),
(245,410,o),
(247,412,o),
(250,423,c)
);
},
{
closed = 1;
nodes = (
(209,441,o),
(208,442,o),
(207,442,c),
(206,442,o),
(205,439,o),
(205,435,c),
(205,431,o),
(205,430,o),
(207,433,c),
(208,435,o),
(209,439,o),
(209,440,c)
);
},
{
closed = 1;
nodes = (
(306,456,o),
(306,455,o),
(306,451,c),
(306,447,o),
(306,445,o),
(307,446,c),
(307,448,o),
(307,451,o),
(307,454,c)
);
},
{
closed = 1;
nodes = (
(322,558,o),
(319,557,o),
(315,541,c),
(310,520,o),
(311,517,o),
(317,525,c),
(320,530,o),
(322,537,o),
(322,542,c)
);
},
{
closed = 1;
nodes = (
(287,609,o),
(284,609,o),
(279,606,c),
(274,604,o),
(274,604,o),
(279,604,c),
(282,604,o),
(284,605,o),
(285,606,c)
);
},
{
closed = 1;
nodes = (
(252,624,o),
(251,625,o),
(250,625,c),
(248,625,o),
(247,623,o),
(247,621,c),
(247,619,o),
(248,618,o),
(250,619,c),
(251,620,o),
(252,621,o),
(252,623,c)
);
},
{
closed = 1;
nodes = (
(58,647,o),
(58,649,o),
(57,649,c),
(56,649,o),
(55,647,o),
(55,645,c),
(55,643,o),
(55,641,o),
(56,641,c),
(56,641,o),
(57,643,o),
(58,645,c)
);
},
{
closed = 1;
nodes = (
(196,659,o),
(190,660,o),
(182,660,c),
(168,660,o),
(166,659,o),
(166,655,c),
(166,647,o),
(172,647,o),
(182,653,c),
(187,655,o),
(192,657,o),
(194,658,c)
);
},
{
closed = 1;
nodes = (
);
}
);
width = 467;
}
);
unicode = 80;
},
{
glyphname = Thorn;
kernLeft = Thorn;
kernRight = Thorn;
lastChange = "2026-05-05 08:13:45 +0000";
layers = (
{
layerId = m01;
shapes = (
{
closed = 1;
nodes = (
(176,-35,o),
(176,-35,o),
(179,-21,c),
(179,-11,o),
(182,6,o),
(182,20,c),
(182,130,o),
(195,158,o),
(195,158,c),
(195,158,o),
(202,155,o),
(209,151,c),
(247,137,o),
(312,131,o),
(357,141,c),
(383,144,o),
(434,158,o),
(434,158,c),
(438,162,o),
(431,162,o),
(399,158,c),
(383,155,o),
(351,155,o),
(335,155,c),
(302,151,o),
(302,151,o),
(321,155,c),
(380,168,o),
(434,203,o),
(461,244,c),
(493,292,o),
(509,354,o),
(499,395,c),
(493,426,o),
(483,450,o),
(463,468,c),
(428,505,o),
(392,523,o),
(324,533,c),
(299,540,o),
(289,540,o),
(225,540,c),
(214,540,o),
(206,540,o),
(198,540,c),
(194,564,o),
(185,621,o),
(185,702,c),
(165,713,o),
(148,696,o),
(105,699,c),
(89,699,o),
(30,703,o),
(27,703,c),
(21,699,o),
(18,685,o),
(21,682,c),
(24,679,o),
(24,672,o),
(24,641,c),
(24,617,o),
(27,549,o),
(27,511,cs),
(27,327,o),
(27,202,o),
(27,191,cs),
(27,153,o),
(24,85,o),
(24,61,c),
(24,30,o),
(24,23,o),
(21,20,c),
(18,17,o),
(21,3,o),
(27,-1,c),
(30,-1,o),
(34,-4,o),
(34,-8,c),
(37,-11,o),
(37,-11,o),
(40,-8,c),
(43,-4,o),
(47,-4,o),
(50,-4,c),
(54,-8,o),
(54,-4,o),
(56,-1,c),
(56,3,o),
(59,3,o),
(105,3,c),
(150,6,o),
(150,6,o),
(160,-4,c),
(166,-8,o),
(169,-14,o),
(169,-18,c),
(169,-18,o),
(173,-21,o),
(173,-28,c)
);
},
{
closed = 1;
nodes = (
(56,27,o),
(54,27,o),
(56,30,c),
(56,41,o),
(59,44,o),
(66,34,c),
(72,27,o),
(72,27,o),
(63,27,c)
);
},
{
closed = 1;
nodes = (
(77,45,o),
(76,51,o),
(76,51,c),
(76,54,o),
(76,54,o),
(76,54,c),
(79,54,o),
(79,54,o),
(79,51,c),
(79,51,o),
(80,45,o),
(80,45,c)
);
},
{
closed = 1;
nodes = (
(124,30,o),
(124,30,o),
(128,37,c),
(131,37,o),
(133,37,o),
(137,34,c),
(140,30,o),
(140,30,o),
(133,30,c)
);
},
{
closed = 1;
nodes = (
(47,116,o),
(42,119,o),
(42,122,c),
(42,129,o),
(47,129,o),
(47,129,c),
(47,126,o),
(47,122,o),
(47,119,c)
);
},
{
closed = 1;
nodes = (
(124,61,o),
(121,61,o),
(121,68,c),
(121,72,o),
(124,72,o),
(124,72,c),
(128,72,o),
(140,65,o),
(140,65,c),
(140,61,o),
(137,61,o),
(131,61,c)
);
},
{
closed = 1;
nodes = (
(59,75,o),
(59,75,o),
(59,85,c),
(63,89,o),
(63,116,o),
(63,122,c),
(63,136,o),
(63,136,o),
(66,136,c),
(76,136,o),
(76,143,o),
(79,208,c),
(82,267,o),
(82,267,o),
(82,222,c),
(82,198,o),
(82,160,o),
(82,140,c),
(85,78,l),
(72,78,l)
);
},
{
closed = 1;
nodes = (
(198,186,o),
(195,186,o),
(195,189,c),
(198,189,o),
(205,189,o),
(205,186,c),
(205,186,o),
(202,186,o),
(198,186,c)
);
},
{
closed = 1;
nodes = (
(231,292,o),
(231,292,o),
(231,296,c),
(227,299,o),
(231,302,o),
(231,302,c),
(234,302,o),
(234,299,o),
(234,299,c),
(234,299,o),
(234,296,o),
(231,292,c)
);
},
{
closed = 1;
nodes = (
(59,495,o),
(59,495,o),
(59,498,c),
(59,502,o),
(59,502,o),
(63,502,c),
(63,502,o),
(63,502,o),
(63,498,c),
(63,495,o),
(59,495,o),
(59,495,c)
);
},
{
closed = 1;
nodes = (
(270,278,o),
(279,306,o),
(279,306,c),
(283,306,o),
(283,296,o),
(279,282,c),
(276,272,o),
(276,272,o),
(273,275,c)
);
},
{
closed = 1;
nodes = (
(344,227,o),
(347,230,o),
(351,230,c),
(353,230,o),
(353,227,o),
(347,223,c),
(340,217,o),
(337,217,o),
(340,223,c)
);
},
{
closed = 1;
nodes = (
(79,482,o),
(79,490,o),
(79,494,c),
(76,559,o),
(63,566,o),
(63,580,c),
(63,586,o),
(63,613,o),
(59,617,c),
(59,627,o),
(59,627,o),
(72,624,c),
(85,624,l),
(82,562,l),
(82,542,o),
(82,504,o),
(82,480,c)
);
},
{
closed = 1;
nodes = (
(391,252,o),
(383,258,o),
(383,258,c),
(383,261,o),
(383,265,o),
(383,265,c),
(386,268,o),
(386,268,o),
(386,268,c),
(386,265,o),
(394,255,o),
(391,255,c)
);
},
{
closed = 1;
nodes = (
(344,309,o),
(344,313,o),
(344,313,c),
(344,316,o),
(351,317,o),
(351,310,cs),
(351,307,o),
(344,302,o),
(344,306,c)
);
},
{
closed = 1;
nodes = (
(192,502,o),
(185,502,o),
(185,509,c),
(185,512,o),
(189,512,o),
(202,512,c),
(211,512,o),
(218,512,o),
(218,512,c),
(214,509,o),
(209,509,o),
(205,505,c)
);
},
{
closed = 1;
nodes = (
(428,268,o),
(434,278,o),
(438,278,c),
(441,278,o),
(454,292,o),
(454,302,c),
(457,316,o),
(463,327,o),
(463,320,c),
(463,309,o),
(441,265,o),
(428,251,c),
(412,230,o),
(409,230,o),
(415,247,c)
);
},
{
closed = 1;
nodes = (
(59,658,o),
(56,661,o),
(56,672,c),
(54,675,o),
(56,675,o),
(63,675,c),
(72,675,o),
(72,675,o),
(66,668,c)
);
},
{
closed = 1;
nodes = (
(76,648,o),
(76,648,o),
(76,651,c),
(76,651,o),
(76,651,o),
(79,651,c),
(79,651,o),
(88,653,o),
(88,653,c),
(88,650,o),
(79,648,o),
(76,648,c)
);
},
{
closed = 1;
nodes = (
(351,375,o),
(351,378,o),
(353,399,c),
(360,413,o),
(364,413,o),
(364,399,c),
(364,395,o),
(360,388,o),
(357,382,c)
);
},
{
closed = 1;
nodes = (
(276,478,o),
(279,478,o),
(279,478,c),
(283,478,o),
(283,478,o),
(283,478,c),
(283,474,o),
(283,474,o),
(279,474,c),
(279,471,o),
(276,474,o),
(276,474,c)
);
},
{
closed = 1;
nodes = (
(124,630,o),
(121,630,o),
(121,634,c),
(121,641,o),
(124,641,o),
(131,641,c),
(137,641,o),
(140,641,o),
(140,637,c),
(140,637,o),
(128,630,o),
(124,630,c)
);
},
{
closed = 1;
nodes = (
(318,464,o),
(321,464,o),
(321,461,c),
(318,461,o),
(315,457,o),
(315,461,c),
(308,461,o),
(308,461,o),
(312,461,c)
);
},
{
closed = 1;
nodes = (
(124,672,o),
(124,672,o),
(133,672,c),
(140,672,o),
(140,672,o),
(137,668,c),
(133,665,o),
(131,665,o),
(128,665,c)
);
}
);
width = 523;
}
);
metricRight = "=P";
unicode = 222;
},
{
glyphname = Q;
kernLeft = Q;
kernRight = Q;
lastChange = "2026-05-05 08:57:12 +0000";
layers = (
{
layerId = m01;
shapes = (
{
closed = 1;
nodes = (
(444,-331,o),
(447,-321,o),
(437,-287,c),
(437,-280,o),
(408,-204,o),
(379,-125,c),
(347,-43,o),
(321,23,o),
(321,26,c),
(321,30,o),
(324,33,o),
(334,40,c),
(353,54,o),
(382,88,o),
(398,116,c),
(434,171,o),
(463,257,o),
(470,336,c),
(473,373,o),
(473,442,o),
(470,473,c),
(453,583,o),
(408,648,o),
(337,666,c),
(318,673,o),
(272,673,o),
(259,666,c),
(256,662,o),
(243,662,o),
(230,659,c),
(201,659,o),
(189,652,o),
(156,631,c),
(111,604,o),
(79,566,o),
(56,508,c),
(39,470,o),
(30,439,o),
(14,356,c),
(11,346,o),
(11,329,o),
(14,287,c),
(14,219,o),
(20,184,o),
(43,136,c),
(66,78,o),
(124,23,o),
(176,9,c),
(185,6,o),
(189,2,o),
(208,-25,c),
(259,-101,o),
(302,-159,o),
(344,-218,c),
(369,-249,o),
(396,-287,o),
(401,-297,c),
(412,-311,o),
(418,-318,o),
(425,-321,c)
);
},
{
closed = 1;
nodes = (
(353,-187,o),
(350,-184,o),
(344,-177,c),
(340,-170,o),
(337,-166,o),
(337,-159,c),
(337,-156,o),
(340,-156,o),
(347,-170,c),
(350,-180,o),
(353,-187,o),
(353,-187,c)
);
},
{
closed = 1;
nodes = (
(253,-53,o),
(250,-46,o),
(250,-43,c),
(250,-43,o),
(250,-43,o),
(253,-46,c),
(253,-49,o),
(253,-53,o),
(253,-53,c)
);
},
{
closed = 1;
nodes = (
(63,143,o),
(50,171,o),
(46,181,c),
(46,188,o),
(46,188,o),
(50,181,c),
(52,177,o),
(56,167,o),
(59,160,c),
(63,153,o),
(63,147,o),
(63,147,c)
);
},
{
closed = 1;
nodes = (
(108,129,o),
(108,129,o),
(108,133,c),
(108,133,o),
(108,133,o),
(108,133,c),
(111,133,o),
(111,129,o),
(111,129,c),
(111,129,o),
(111,129,o),
(108,129,c)
);
},
{
closed = 1;
nodes = (
(43,188,o),
(36,219,o),
(36,236,c),
(34,250,o),
(34,246,o),
(39,232,c),
(39,222,o),
(43,208,o),
(46,202,c),
(46,195,o),
(46,188,o),
(46,188,c)
);
},
{
closed = 1;
nodes = (
(304,-32,o),
(298,-25,o),
(295,-15,c),
(288,-8,o),
(286,12,o),
(288,12,c),
(292,12,o),
(302,-8,o),
(304,-18,c),
(308,-25,o),
(308,-29,o),
(308,-29,c)
);
},
{
closed = 1;
nodes = (
(194,92,o),
(194,92,o),
(201,92,c),
(205,92,o),
(208,88,o),
(208,88,c),
(211,81,o),
(205,81,o),
(201,85,c)
);
},
{
closed = 1;
nodes = (
(34,257,o),
(34,257,o),
(34,260,c),
(34,263,o),
(34,263,o),
(34,260,c),
(34,260,o),
(34,257,o),
(34,257,c)
);
},
{
closed = 1;
nodes = (
(114,181,o),
(111,184,o),
(108,191,c),
(104,198,o),
(101,205,o),
(101,205,c),
(101,212,o),
(108,205,o),
(114,198,c),
(117,191,o),
(117,188,o),
(114,184,c)
);
},
{
closed = 1;
nodes = (
(250,71,o),
(250,74,o),
(253,74,c),
(253,74,o),
(253,74,o),
(253,71,c),
(253,67,o),
(250,67,o),
(250,71,c)
);
},
{
closed = 1;
nodes = (
(95,236,o),
(95,257,o),
(101,263,c),
(108,267,o),
(108,267,o),
(108,260,c),
(108,257,o),
(108,250,o),
(104,246,c),
(104,243,o),
(104,236,o),
(101,236,c)
);
},
{
closed = 1;
nodes = (
(34,305,o),
(34,308,o),
(34,322,c),
(34,336,o),
(34,342,o),
(34,336,c),
(34,329,o),
(34,318,o),
(34,312,c)
);
},
{
closed = 1;
nodes = (
(272,150,o),
(272,153,o),
(275,157,c),
(275,160,o),
(279,160,o),
(279,153,c),
(275,153,o),
(275,150,o),
(272,150,c)
);
},
{
closed = 1;
nodes = (
(340,92,o),
(344,95,o),
(347,95,c),
(350,98,o),
(350,98,o),
(347,95,c),
(344,92,o),
(340,88,o),
(340,92,c)
);
},
{
closed = 1;
nodes = (
(398,287,o),
(398,287,o),
(401,294,c),
(401,301,o),
(405,301,o),
(405,298,c),
(405,298,o),
(408,294,o),
(408,294,c),
(408,291,o),
(405,291,o),
(401,287,c)
);
},
{
closed = 1;
nodes = (
(172,514,o),
(178,556,o),
(182,559,c),
(185,563,o),
(185,563,o),
(185,549,c),
(185,535,o),
(185,532,o),
(182,525,c),
(178,521,o),
(176,514,o),
(176,514,c)
);
},
{
closed = 1;
nodes = (
(389,442,o),
(385,446,o),
(385,446,c),
(385,449,o),
(392,466,o),
(396,466,c),
(396,466,o),
(396,463,o),
(396,456,c),
(396,446,o),
(396,442,o),
(389,442,c)
);
},
{
closed = 1;
nodes = (
(444,404,o),
(444,422,o),
(444,428,c),
(444,435,o),
(447,432,o),
(447,422,c),
(447,411,o),
(447,404,o),
(444,404,c)
);
},
{
closed = 1;
nodes = (
(385,504,o),
(385,504,o),
(385,508,c),
(385,508,o),
(385,511,o),
(389,511,c),
(389,511,o),
(389,508,o),
(389,508,c),
(389,504,o),
(389,504,o),
(389,504,c)
);
},
{
closed = 1;
nodes = (
(437,449,o),
(437,463,o),
(437,480,c),
(437,497,l),
(441,480,l),
(441,470,o),
(444,459,o),
(444,456,c),
(444,452,o),
(444,449,o),
(441,449,c)
);
},
{
closed = 1;
nodes = (
(275,638,o),
(315,638,o),
(331,635,c),
(337,635,o),
(340,631,o),
(337,631,c),
(331,631,o),
(286,631,o),
(282,631,c)
);
},
{
closed = 1;
nodes = (
(389,597,o),
(379,607,o),
(382,611,c),
(382,611,o),
(385,607,o),
(389,604,c),
(392,600,o),
(392,597,o),
(392,597,c)
);
}
);
width = 483;
}
);
unicode = 81;
},
{
glyphname = R;
kernLeft = R;
kernRight = R;
lastChange = "2026-05-05 08:57:15 +0000";
layers = (
{
anchors = (
{
name = bottom;
pos = (243,0);
},
{
name = top;
pos = (243,700);
}
);
layerId = m01;
shapes = (
{
closed = 1;
nodes = (
(520,-170,o),
(527,-167,o),
(530,-167,c),
(534,-160,o),
(534,-160,o),
(530,-148,c),
(523,-128,o),
(497,-72,o),
(467,-8,c),
(447,26,o),
(427,69,o),
(421,87,c),
(411,108,o),
(387,157,o),
(364,202,c),
(345,248,o),
(325,287,o),
(325,287,c),
(325,290,o),
(331,294,o),
(341,298,c),
(384,312,o),
(424,347,o),
(454,400,c),
(474,435,o),
(481,477,o),
(476,520,c),
(470,561,o),
(460,586,o),
(434,625,c),
(414,649,o),
(378,674,o),
(331,688,c),
(285,706,o),
(266,709,o),
(213,709,c),
(140,713,o),
(38,699,o),
(27,684,c),
(21,677,o),
(17,136,o),
(21,62,c),
(24,38,o),
(24,34,o),
(17,26,c),
(10,16,o),
(14,9,o),
(24,6,c),
(30,2,o),
(38,-1,o),
(41,-4,c),
(47,-11,o),
(47,-11,o),
(51,2,c),
(54,13,o),
(54,13,o),
(67,13,c),
(73,13,o),
(88,9,o),
(97,9,c),
(110,9,o),
(134,6,o),
(146,6,c),
(180,6,o),
(180,6,o),
(176,20,c),
(173,23,o),
(176,41,o),
(176,58,c),
(180,83,o),
(180,108,o),
(180,175,c),
(176,263,o),
(176,263,o),
(186,252,c),
(213,217,o),
(246,171,o),
(269,139,c),
(355,20,o),
(451,-111,o),
(493,-160,c),
(504,-174,o),
(507,-174,o),
(513,-170,c)
);
},
{
closed = 1;
nodes = (
(81,55,o),
(76,58,o),
(76,65,c),
(76,73,o),
(81,77,o),
(81,77,c),
(84,73,o),
(84,69,o),
(84,65,c),
(84,58,o),
(84,55,o),
(81,55,c)
);
},
{
closed = 1;
nodes = (
(110,34,o),
(106,38,o),
(106,45,c),
(104,52,o),
(104,52,o),
(110,52,c),
(113,48,o),
(117,52,o),
(120,55,c),
(123,62,o),
(123,58,o),
(123,48,c),
(123,38,o),
(123,34,o),
(117,34,c)
);
},
{
closed = 1;
nodes = (
(67,234,o),
(67,238,o),
(67,241,c),
(67,241,o),
(67,241,o),
(67,238,c),
(67,234,o),
(67,231,o),
(67,234,c)
);
},
{
closed = 1;
nodes = (
(54,333,o),
(51,336,o),
(51,347,c),
(51,354,o),
(54,358,o),
(54,354,c),
(54,347,o),
(54,339,o),
(54,336,c)
);
},
{
closed = 1;
nodes = (
(434,-30,o),
(427,-19,o),
(424,-8,c),
(421,-1,o),
(421,-1,o),
(424,-4,c),
(427,-4,o),
(430,-11,o),
(430,-19,c),
(434,-23,o),
(434,-30,o),
(434,-30,c)
);
},
{
closed = 1;
nodes = (
(384,34,o),
(384,34,o),
(387,34,c),
(392,34,o),
(395,31,o),
(398,23,c),
(408,9,o),
(408,9,o),
(401,16,c)
);
},
{
closed = 1;
nodes = (
(364,62,o),
(362,65,o),
(358,69,c),
(355,73,o),
(355,73,o),
(358,69,c),
(362,69,o),
(364,65,o),
(364,65,c)
);
},
{
closed = 1;
nodes = (
(355,73,o),
(355,77,o),
(348,83,c),
(341,94,o),
(341,94,o),
(348,83,c),
(352,80,o),
(355,77,o),
(355,77,c)
);
},
{
closed = 1;
nodes = (
(117,319,o),
(117,322,o),
(117,326,c),
(117,326,o),
(117,326,o),
(117,319,c),
(117,315,o),
(117,312,o),
(117,315,c)
);
},
{
closed = 1;
nodes = (
(381,90,o),
(368,114,o),
(364,122,c),
(362,129,o),
(362,133,o),
(364,133,c),
(364,136,o),
(371,126,o),
(381,101,c),
(381,94,o),
(384,90,o),
(381,90,c)
);
},
{
closed = 1;
nodes = (
(338,139,o),
(331,150,o),
(325,165,c),
(318,178,o),
(315,185,o),
(318,178,c),
(322,175,o),
(329,165,o),
(331,157,c),
(334,146,o),
(338,139,o),
(338,139,c)
);
},
{
closed = 1;
nodes = (
(255,227,o),
(226,266,o),
(226,273,c),
(226,273,o),
(229,273,o),
(233,273,c),
(235,273,o),
(239,270,o),
(239,266,c),
(242,263,o),
(246,252,o),
(251,245,c),
(255,234,o),
(259,227,o),
(259,227,c)
);
},
{
closed = 1;
nodes = (
(176,319,o),
(176,322,o),
(176,326,c),
(176,326,o),
(176,326,o),
(176,319,c),
(176,315,o),
(176,312,o),
(176,315,c)
);
},
{
closed = 1;
nodes = (
(352,165,o),
(352,168,o),
(348,175,c),
(341,185,o),
(341,185,o),
(348,175,c),
(352,168,o),
(355,165,o),
(355,165,c)
);
},
{
closed = 1;
nodes = (
(298,227,o),
(266,273,o),
(266,277,c),
(266,277,o),
(269,277,o),
(272,277,c),
(279,277,o),
(282,277,o),
(288,252,c),
(295,241,o),
(298,231,o),
(298,227,c)
);
},
{
closed = 1;
nodes = (
(229,308,o),
(233,308,o),
(233,305,c),
(235,305,o),
(233,305,o),
(229,305,c),
(226,305,o),
(226,305,o),
(226,305,c)
);
},
{
closed = 1;
nodes = (
(246,339,o),
(246,339,o),
(249,344,c),
(249,351,o),
(249,351,o),
(255,344,c),
(259,344,o),
(263,339,o),
(263,339,c),
(263,339,o),
(259,339,o),
(251,339,c)
);
},
{
closed = 1;
nodes = (
(84,530,o),
(84,540,o),
(84,544,c),
(84,551,o),
(84,547,o),
(84,534,c),
(84,523,o),
(84,515,o),
(84,523,c)
);
},
{
closed = 1;
nodes = (
(84,558,o),
(84,558,o),
(84,561,c),
(84,565,o),
(84,565,o),
(88,565,c),
(88,561,o),
(88,558,o),
(84,558,c)
);
},
{
closed = 1;
nodes = (
(331,333,o),
(331,333,o),
(334,333,c),
(334,333,o),
(331,329,o),
(331,333,c),
(329,333,o),
(329,333,o),
(329,333,c)
);
},
{
closed = 1;
nodes = (
(51,657,o),
(47,660,o),
(47,664,c),
(47,667,o),
(51,667,o),
(60,667,c),
(67,667,o),
(70,667,o),
(67,664,c),
(67,660,o),
(67,657,o),
(67,657,c),
(67,652,o),
(54,652,o),
(51,652,c)
);
},
{
closed = 1;
nodes = (
(134,607,o),
(134,611,o),
(134,611,c),
(134,611,o),
(134,615,o),
(137,615,c),
(137,615,o),
(137,611,o),
(137,611,c),
(137,611,o),
(137,607,o),
(134,607,c)
);
},
{
closed = 1;
nodes = (
(88,671,o),
(88,671,o),
(90,671,c),
(93,671,o),
(93,671,o),
(93,667,c),
(90,667,o),
(90,667,o),
(90,667,c),
(90,667,o),
(88,667,o),
(88,667,c)
);
},
{
closed = 1;
nodes = (
(371,393,o),
(371,396,o),
(371,400,c),
(371,407,o),
(371,410,o),
(375,414,c),
(375,417,o),
(375,414,o),
(375,410,c),
(375,403,o),
(375,400,o),
(375,396,c)
);
},
{
closed = 1;
nodes = (
(137,642,o),
(137,642,o),
(146,642,c),
(150,642,o),
(153,642,o),
(153,639,c),
(156,635,o),
(150,635,o),
(143,639,c)
);
},
{
closed = 1;
nodes = (
(117,674,o),
(117,674,o),
(127,674,c),
(130,674,o),
(134,674,o),
(134,671,c),
(137,667,o),
(134,667,o),
(123,671,c)
);
},
{
closed = 1;
nodes = (
(269,534,o),
(269,537,o),
(269,540,c),
(272,544,o),
(272,544,o),
(272,540,c),
(272,540,o),
(272,537,o),
(269,534,c),
(269,530,o),
(269,530,o),
(269,530,c)
);
},
{
closed = 1;
nodes = (
(219,586,l),
(219,603,o),
(223,607,o),
(226,603,c),
(226,603,o),
(226,596,o),
(223,586,c),
(219,569,l)
);
},
{
closed = 1;
nodes = (
(180,667,o),
(176,671,o),
(176,674,c),
(176,677,o),
(176,677,o),
(180,674,c),
(183,671,o),
(186,671,o),
(186,671,c),
(186,671,o),
(183,667,o),
(183,667,c)
);
},
{
closed = 1;
nodes = (
(427,417,o),
(430,424,o),
(434,432,c),
(438,439,o),
(441,442,o),
(441,442,c),
(441,439,o),
(438,432,o),
(434,424,c),
(430,420,o),
(427,414,o),
(427,417,c)
);
},
{
closed = 1;
nodes = (
(276,596,o),
(279,596,o),
(279,596,c),
(282,596,o),
(282,596,o),
(282,593,c),
(279,593,o),
(279,593,o),
(279,593,c),
(279,593,o),
(276,593,o),
(276,593,c)
);
},
{
closed = 1;
nodes = (
(288,649,o),
(279,649,o),
(255,657,c),
(242,660,o),
(233,664,o),
(229,664,c),
(226,667,o),
(226,671,o),
(233,667,c),
(233,667,o),
(246,664,o),
(263,660,c),
(276,657,o),
(285,652,o),
(285,649,c)
);
},
{
closed = 1;
nodes = (
(447,502,o),
(444,505,o),
(444,508,c),
(444,508,o),
(444,515,o),
(441,515,c),
(438,520,o),
(438,523,o),
(434,537,c),
(434,547,o),
(430,558,o),
(430,561,c),
(430,565,o),
(434,561,o),
(438,558,c),
(438,551,o),
(444,537,o),
(444,527,c),
(447,515,o),
(447,505,o),
(447,502,c)
);
}
);
width = 485;
}
);
unicode = 82;
},
{
glyphname = S;
kernLeft = S;
kernRight = S;
lastChange = "2026-05-05 08:57:22 +0000";
layers = (
{
anchors = (
{
name = bottom;
pos = (235,0);
},
{
name = top;
pos = (235,700);
}
);
layerId = m01;
shapes = (
{
closed = 1;
nodes = (
(126,-4,o),
(194,-4,o),
(214,-1,c),
(220,-1,o),
(240,3,o),
(263,3,c),
(382,11,o),
(434,56,o),
(453,157,c),
(456,181,o),
(456,181,o),
(453,206,c),
(447,234,o),
(430,270,o),
(418,291,c),
(411,298,o),
(401,313,o),
(398,323,c),
(375,355,o),
(340,409,o),
(337,409,c),
(337,405,o),
(343,391,o),
(362,355,c),
(369,341,o),
(369,341,o),
(362,348,c),
(359,348,o),
(356,355,o),
(356,360,c),
(353,366,o),
(330,391,o),
(295,417,c),
(279,427,o),
(263,441,o),
(259,441,c),
(249,452,o),
(227,469,o),
(220,469,c),
(217,469,o),
(201,487,o),
(201,494,c),
(201,509,o),
(211,519,o),
(230,530,c),
(249,541,o),
(249,541,o),
(281,544,c),
(311,544,o),
(314,544,o),
(324,541,c),
(327,537,o),
(340,534,o),
(349,530,c),
(359,526,o),
(373,523,o),
(378,519,c),
(389,516,o),
(398,512,o),
(401,516,c),
(407,516,o),
(407,516,o),
(411,523,c),
(414,541,o),
(414,672,o),
(414,680,c),
(411,690,o),
(405,690,o),
(395,687,c),
(389,683,o),
(389,683,o),
(385,694,c),
(378,704,o),
(373,704,o),
(366,697,c),
(359,690,o),
(353,690,o),
(340,697,c),
(333,701,o),
(308,704,o),
(285,708,c),
(240,715,o),
(220,715,o),
(194,704,c),
(126,680,o),
(36,580,o),
(20,516,c),
(16,498,o),
(13,477,o),
(16,477,c),
(16,477,o),
(23,487,o),
(29,501,c),
(49,541,o),
(49,541,o),
(45,509,c),
(45,448,o),
(78,363,o),
(120,320,c),
(137,303,l),
(117,309,l),
(107,313,o),
(94,320,o),
(85,323,c),
(61,334,o),
(68,327,o),
(101,309,c),
(139,281,o),
(204,246,o),
(236,234,c),
(249,227,o),
(243,214,o),
(223,202,c),
(214,199,o),
(166,189,o),
(133,185,c),
(123,185,o),
(107,189,o),
(94,189,c),
(72,192,o),
(68,192,o),
(65,189,c),
(56,185,o),
(56,170,o),
(59,145,c),
(59,132,o),
(61,106,o),
(61,85,c),
(59,43,o),
(61,38,o),
(75,24,c),
(85,14,o),
(94,6,o),
(114,-1,c)
);
},
{
closed = 1;
nodes = (
(164,49,o),
(166,53,o),
(169,53,c),
(171,53,o),
(171,53,o),
(175,53,c),
(175,49,o),
(173,45,o),
(167,49,c)
);
},
{
closed = 1;
nodes = (
(126,110,o),
(123,110,o),
(126,113,c),
(126,113,o),
(130,113,o),
(133,113,c),
(133,110,o),
(133,110,o),
(130,110,c)
);
},
{
closed = 1;
nodes = (
(130,142,o),
(123,142,o),
(120,145,c),
(117,152,o),
(117,152,o),
(123,152,c),
(126,152,o),
(130,152,o),
(133,149,c),
(137,142,o),
(137,142,o),
(133,142,c)
);
},
{
closed = 1;
nodes = (
(207,163,o),
(207,167,o),
(217,170,c),
(230,177,o),
(233,177,o),
(223,170,c),
(220,167,o),
(214,163,o),
(211,163,c)
);
},
{
closed = 1;
nodes = (
(252,181,o),
(249,181,o),
(252,185,c),
(252,185,o),
(256,185,o),
(259,185,c),
(263,185,o),
(263,185,o),
(256,181,c)
);
},
{
closed = 1;
nodes = (
(281,167,o),
(288,167,o),
(292,167,c),
(295,167,o),
(295,167,o),
(292,163,c),
(288,163,o),
(285,163,o),
(281,163,c),
(272,163,o),
(272,163,o),
(279,163,c)
);
},
{
closed = 1;
nodes = (
(265,217,o),
(265,220,o),
(265,220,c),
(265,220,o),
(265,224,o),
(265,224,c),
(269,224,o),
(269,220,o),
(272,220,c),
(272,220,o),
(272,217,o),
(269,217,c)
);
},
{
closed = 1;
nodes = (
(191,303,o),
(175,309,o),
(175,313,c),
(171,316,o),
(175,316,o),
(182,309,c),
(185,309,o),
(188,306,o),
(191,306,c),
(191,309,o),
(194,306,o),
(194,306,c),
(194,303,o),
(194,298,o),
(194,298,c)
);
},
{
closed = 1;
nodes = (
(373,124,o),
(373,128,o),
(369,132,c),
(369,132,o),
(369,135,o),
(373,135,c),
(375,135,o),
(375,135,o),
(378,135,c),
(378,132,o),
(378,128,o),
(375,124,c),
(373,120,o),
(373,117,o),
(373,120,c)
);
},
{
closed = 1;
nodes = (
(236,277,o),
(236,281,o),
(243,281,c),
(243,284,o),
(246,284,o),
(246,284,c),
(246,284,o),
(246,281,o),
(246,281,c),
(246,274,o),
(243,274,o),
(240,277,c)
);
},
{
closed = 1;
nodes = (
(356,167,o),
(356,163,o),
(373,167,c),
(378,170,o),
(385,170,o),
(385,170,c),
(385,170,o),
(385,167,o),
(382,160,c),
(378,149,o),
(378,149,o),
(373,152,c)
);
},
{
closed = 1;
nodes = (
(308,238,o),
(308,238,o),
(308,238,c),
(311,238,o),
(311,238,o),
(311,234,c),
(314,234,o),
(311,230,o),
(311,230,c),
(309,227,o),
(308,234,o),
(308,234,c)
);
},
{
closed = 1;
nodes = (
(366,199,o),
(366,199,o),
(378,217,c),
(382,220,o),
(385,227,o),
(385,231,c),
(385,238,o),
(389,238,o),
(395,234,c),
(401,227,o),
(401,227,o),
(389,214,c),
(378,206,o),
(373,199,o),
(369,199,c)
);
},
{
closed = 1;
nodes = (
(418,181,o),
(418,185,o),
(418,195,c),
(421,206,o),
(421,206,o),
(421,199,c),
(424,192,o),
(421,189,o),
(421,185,c)
);
},
{
closed = 1;
nodes = (
(155,477,o),
(155,484,o),
(162,491,c),
(169,501,o),
(169,501,o),
(169,498,c),
(169,494,o),
(169,491,o),
(169,491,c),
(166,491,o),
(166,487,o),
(162,480,c),
(162,477,o),
(159,473,o),
(155,477,c)
);
},
{
closed = 1;
nodes = (
(382,288,o),
(382,288,o),
(382,288,c),
(385,288,o),
(385,288,o),
(389,284,c),
(391,281,o),
(391,281,o),
(385,284,c)
);
},
{
closed = 1;
nodes = (
(366,306,o),
(359,313,o),
(359,316,c),
(359,316,o),
(362,313,o),
(366,309,c),
(369,309,o),
(369,306,o),
(366,306,c)
);
},
{
closed = 1;
nodes = (
(104,526,o),
(104,526,o),
(110,544,c),
(114,548,o),
(120,563,o),
(126,569,c),
(142,583,o),
(142,583,o),
(130,569,c),
(123,563,o),
(117,548,o),
(114,541,c)
);
},
{
closed = 1;
nodes = (
(207,558,o),
(211,558,o),
(214,558,c),
(220,558,o),
(220,558,o),
(214,555,c),
(207,548,o),
(204,548,o),
(207,555,c)
);
},
{
closed = 1;
nodes = (
(182,612,o),
(182,612,o),
(191,615,c),
(198,620,o),
(201,620,o),
(201,615,c),
(204,615,o),
(204,615,o),
(204,615,c),
(204,612,o),
(198,612,o),
(191,612,c)
);
},
{
closed = 1;
nodes = (
(356,580,o),
(356,580,o),
(366,583,c),
(369,587,o),
(369,583,o),
(369,580,c),
(369,576,o),
(369,573,o),
(359,576,c)
);
},
{
closed = 1;
nodes = (
(459,680,o)
);
}
);
width = 470;
}
);
unicode = 83;
},
{
glyphname = Germandbls;
kernLeft = Germandbls;
kernRight = Germandbls;
lastChange = "2026-05-05 08:14:40 +0000";
layers = (
{
layerId = m01;
shapes = (
{
closed = 1;
nodes = (
(223,-14,o),
(242,-14,o),
(262,-13,c),
(308,-10,o),
(339,-1,o),
(379,19,c),
(398,29,o),
(409,37,o),
(425,52,c),
(466,92,o),
(486,124,o),
(498,174,c),
(506,205,o),
(509,234,o),
(505,234,c),
(503,234,o),
(502,233,o),
(502,231,c),
(503,229,o),
(499,237,o),
(497,249,c),
(482,309,o),
(447,356,o),
(395,388,c),
(371,402,o),
(339,416,o),
(319,420,c),
(309,422,o),
(298,425,o),
(296,425,c),
(292,426,o),
(308,438,o),
(348,467,c),
(380,491,o),
(419,520,o),
(435,532,c),
(450,544,o),
(465,554,o),
(467,556,c),
(474,558,o),
(474,567,o),
(467,580,c),
(461,593,o),
(446,641,o),
(439,673,c),
(436,687,o),
(432,700,o),
(430,701,c),
(429,702,o),
(402,703,o),
(371,702,c),
(340,701,o),
(309,701,o),
(301,703,c),
(287,703,o),
(287,703,o),
(321,713,c),
(338,717,o),
(354,721,o),
(355,722,c),
(358,725,o),
(309,720,o),
(217,706,c),
(191,702,o),
(146,697,o),
(102,696,c),
(62,693,o),
(30,690,o),
(29,689,c),
(29,688,o),
(26,687,o),
(23,688,c),
(17,690,o),
(16,682,o),
(23,678,c),
(26,675,o),
(27,665,o),
(29,614,c),
(32,523,o),
(31,432,o),
(25,338,c),
(20,247,o),
(17,202,o),
(16,123,c),
(16,92,o),
(14,56,o),
(14,40,c),
(13,16,o),
(13,13,o),
(17,8,c),
(20,4,o),
(23,4,o),
(30,5,c),
(39,7,o),
(41,5,o),
(47,0,c),
(56,-9,o),
(58,-10,o),
(62,-4,c),
(64,-1,o),
(68,-1,o),
(95,-2,c),
(127,-4,o),
(129,-4,o),
(129,8,c),
(129,12,o),
(130,27,o),
(131,43,c),
(131,60,o),
(132,114,o),
(134,165,c),
(134,271,o),
(135,279,o),
(137,240,c),
(138,223,o),
(139,204,o),
(140,196,c),
(144,182,l),
(145,196,l),
(148,216,o),
(149,304,o),
(148,386,c),
(146,425,o),
(147,467,o),
(149,479,c),
(149,491,o),
(150,521,o),
(150,545,c),
(151,591,l),
(196,593,l),
(247,596,o),
(281,601,o),
(327,614,c),
(358,623,l),
(277,541,l),
(233,495,o),
(194,456,o),
(189,454,c),
(184,452,o),
(182,448,o),
(181,442,c),
(180,430,o),
(189,359,o),
(192,356,c),
(195,354,o),
(198,353,o),
(202,354,c),
(215,358,o),
(289,331,o),
(317,313,c),
(325,308,o),
(338,297,o),
(347,289,c),
(357,282,o),
(365,276,o),
(365,278,c),
(365,283,o),
(342,311,o),
(332,319,c),
(327,322,o),
(325,325,o),
(328,324,c),
(331,322,o),
(341,315,o),
(351,307,c),
(373,287,o),
(388,263,o),
(390,236,c),
(392,215,o),
(389,203,o),
(377,183,c),
(357,153,o),
(311,133,o),
(250,126,c),
(225,123,o),
(205,127,o),
(185,137,c),
(174,142,o),
(173,142,o),
(170,139,c),
(166,134,o),
(166,105,o),
(169,82,c),
(172,64,o),
(172,63,o),
(167,63,c),
(161,63,o),
(161,59,o),
(168,54,c),
(172,52,o),
(176,45,o),
(179,32,c),
(183,22,o),
(185,10,o),
(185,7,c),
(185,-2,o),
(199,-9,o),
(220,-13,c)
);
},
{
closed = 1;
nodes = (
(36,25,o),
(31,30,o),
(33,31,c),
(33,31,o),
(36,30,o),
(38,28,c),
(40,26,o),
(40,25,o),
(39,25,c)
);
},
{
closed = 1;
nodes = (
(80,22,o),
(79,23,o),
(80,31,c),
(81,41,o),
(81,41,o),
(90,32,c),
(97,26,o),
(101,24,o),
(105,26,c),
(108,27,o),
(110,26,o),
(110,24,c),
(111,20,o),
(103,19,o),
(87,21,c)
);
},
{
closed = 1;
nodes = (
(97,63,o),
(97,66,o),
(99,67,c),
(100,68,o),
(101,67,o),
(101,65,c),
(101,59,o),
(100,58,o),
(98,62,c)
);
},
{
closed = 1;
nodes = (
(211,16,o),
(210,17,o),
(210,21,c),
(209,24,o),
(210,26,o),
(211,24,c),
(212,22,o),
(212,19,o),
(212,17,c)
);
},
{
closed = 1;
nodes = (
(40,208,o),
(43,216,o),
(45,221,c),
(47,230,o),
(47,230,o),
(47,222,c),
(48,218,o),
(46,210,o),
(43,206,c),
(38,196,o),
(38,196,o),
(40,203,c)
);
},
{
closed = 1;
nodes = (
(112,148,o),
(111,150,o),
(112,152,c),
(112,155,o),
(112,156,o),
(113,154,c),
(114,152,o),
(114,150,o),
(113,149,c)
);
},
{
closed = 1;
nodes = (
(191,82,o),
(193,91,o),
(197,97,c),
(202,104,o),
(212,104,o),
(212,98,c),
(212,93,o),
(198,77,o),
(196,79,c)
);
},
{
closed = 1;
nodes = (
(186,103,o),
(185,103,o),
(184,111,c),
(184,116,o),
(185,117,o),
(188,115,c),
(191,113,o),
(191,111,o),
(190,108,c)
);
},
{
closed = 1;
nodes = (
(41,251,o),
(40,280,o),
(43,291,c),
(45,299,o),
(46,294,o),
(46,275,c),
(46,267,o),
(45,259,o),
(44,257,c)
);
},
{
closed = 1;
nodes = (
(302,32,o),
(301,32,o),
(303,33,c),
(305,35,o),
(308,35,o),
(308,34,c),
(309,33,o),
(308,32,o),
(305,32,c)
);
},
{
closed = 1;
nodes = (
(255,87,o),
(267,99,o),
(271,101,c),
(273,102,o),
(271,99,o),
(267,95,c),
(263,90,o),
(258,87,o),
(257,87,c)
);
},
{
closed = 1;
nodes = (
(296,88,o),
(296,88,o),
(299,90,c),
(304,95,o),
(308,95,o),
(306,91,c),
(305,90,o),
(302,88,o),
(300,88,c)
);
},
{
closed = 1;
nodes = (
(66,386,o),
(70,395,o),
(76,392,c),
(79,390,o),
(78,388,o),
(73,379,c),
(66,367,o),
(66,367,o),
(66,376,c)
);
},
{
closed = 1;
nodes = (
(377,95,o),
(386,105,o),
(389,104,c),
(389,104,o),
(388,99,o),
(385,96,c),
(382,93,o),
(380,91,o),
(379,93,c)
);
},
{
closed = 1;
nodes = (
(405,73,o),
(427,93,o),
(432,93,c),
(433,93,o),
(430,89,o),
(425,84,c),
(420,79,o),
(413,70,o),
(409,68,c),
(402,63,o),
(402,63,o),
(403,68,c)
);
},
{
closed = 1;
nodes = (
(57,436,o),
(57,439,o),
(57,446,c),
(56,453,o),
(56,455,o),
(57,452,c),
(58,448,o),
(58,442,o),
(58,439,c)
);
},
{
closed = 1;
nodes = (
(79,469,o),
(79,472,o),
(82,477,c),
(84,480,o),
(85,480,o),
(85,476,c),
(85,474,o),
(84,471,o),
(82,471,c)
);
},
{
closed = 1;
nodes = (
(52,495,o),
(52,504,o),
(51,513,c),
(51,529,o),
(51,529,o),
(53,509,c),
(57,489,o),
(56,480,o),
(53,491,c)
);
},
{
closed = 1;
nodes = (
(408,156,o),
(408,156,o),
(418,163,c),
(429,169,o),
(445,173,o),
(443,167,c),
(442,166,o),
(437,163,o),
(432,161,c),
(428,159,o),
(419,157,o),
(415,156,c)
);
},
{
closed = 1;
nodes = (
(223,379,o),
(222,379,o),
(226,381,c),
(231,385,o),
(233,385,o),
(233,381,c),
(233,380,o),
(231,379,o),
(228,379,c)
);
},
{
closed = 1;
nodes = (
(409,193,o),
(409,193,o),
(410,198,c),
(411,204,o),
(414,206,o),
(418,204,c),
(419,203,o),
(418,200,o),
(415,197,c)
);
},
{
closed = 1;
nodes = (
(105,502,o),
(107,508,o),
(109,512,c),
(115,521,o),
(115,521,o),
(113,511,c),
(112,500,o),
(105,491,o),
(105,500,c)
);
},
{
closed = 1;
nodes = (
(70,533,o),
(69,538,o),
(75,546,c),
(78,550,o),
(79,551,o),
(79,549,c),
(79,546,o),
(77,542,o),
(75,540,c)
);
},
{
closed = 1;
nodes = (
(221,391,o),
(220,393,o),
(220,394,c),
(220,395,o),
(221,397,o),
(222,397,c),
(224,397,o),
(225,395,o),
(224,394,c),
(223,393,o),
(222,391,o),
(221,391,c)
);
},
{
closed = 1;
nodes = (
(62,555,o),
(59,561,o),
(60,571,c),
(62,579,o),
(62,580,o),
(66,576,c),
(68,573,o),
(69,570,o),
(69,569,c),
(69,568,o),
(69,565,o),
(67,563,c)
);
},
{
closed = 1;
nodes = (
(202,442,o),
(202,443,o),
(208,446,c),
(213,450,o),
(213,450,o),
(210,441,c),
(206,431,o),
(206,431,o),
(204,436,c)
);
},
{
closed = 1;
nodes = (
(46,583,o),
(46,583,o),
(45,600,c),
(45,615,o),
(45,617,o),
(49,614,c),
(51,613,o),
(52,609,o),
(52,606,c),
(52,603,o),
(51,597,o),
(50,592,c)
);
},
{
closed = 1;
nodes = (
(435,217,o),
(429,218,o),
(439,224,c),
(449,230,o),
(451,231,o),
(452,228,c),
(452,226,o),
(449,224,o),
(446,223,c)
);
},
{
closed = 1;
nodes = (
(269,392,o),
(271,394,o),
(274,394,c),
(278,395,o),
(279,395,o),
(276,392,c),
(272,388,o),
(272,388,o),
(270,391,c)
);
},
{
closed = 1;
nodes = (
(228,444,o),
(228,445,o),
(231,450,c),
(233,453,o),
(234,455,o),
(235,455,c),
(236,454,o),
(235,451,o),
(233,449,c)
);
},
{
closed = 1;
nodes = (
(352,331,o),
(349,333,o),
(346,335,c),
(343,337,o),
(342,339,o),
(343,339,c),
(345,339,o),
(348,337,o),
(351,335,c),
(354,333,o),
(355,331,o),
(354,331,c)
);
},
{
closed = 1;
nodes = (
(476,205,o),
(476,208,o),
(476,210,c),
(476,213,o),
(474,216,o),
(472,215,c),
(467,215,o),
(467,219,o),
(473,227,c),
(477,234,o),
(477,234,o),
(478,220,c),
(478,212,o),
(478,205,o),
(477,205,c)
);
},
{
closed = 1;
nodes = (
(137,535,o),
(136,542,o),
(136,557,c),
(135,572,o),
(135,579,o),
(136,570,c),
(137,562,o),
(137,550,o),
(137,542,c)
);
},
{
closed = 1;
nodes = (
(310,375,o),
(313,377,o),
(319,380,c),
(329,385,o),
(329,385,o),
(325,378,c),
(320,372,o),
(317,371,o),
(312,374,c)
);
},
{
closed = 1;
nodes = (
(391,308,o),
(387,310,o),
(386,312,c),
(382,314,o),
(383,315,o),
(391,316,c),
(398,316,o),
(400,315,o),
(400,312,c),
(399,310,o),
(396,308,o),
(394,308,c)
);
},
{
closed = 1;
nodes = (
(38,671,o),
(38,674,o),
(38,677,c),
(37,682,o),
(38,684,o),
(42,684,c),
(47,684,o),
(47,683,o),
(44,677,c),
(41,674,o),
(39,671,o),
(39,671,c)
);
},
{
closed = 1;
nodes = (
(445,266,o),
(446,267,o),
(454,272,c),
(466,280,o),
(465,280,o),
(467,274,c),
(468,270,o),
(467,269,o),
(463,269,c),
(459,269,o),
(454,268,o),
(450,267,c)
);
},
{
closed = 1;
nodes = (
(334,387,o),
(334,388,o),
(338,392,c),
(340,394,o),
(343,396,o),
(344,395,c),
(345,394,o),
(343,392,o),
(339,390,c)
);
},
{
closed = 1;
nodes = (
(376,374,o),
(375,375,o),
(377,375,c),
(379,376,o),
(381,376,o),
(382,375,c),
(383,374,o),
(381,374,o),
(379,374,c)
);
},
{
closed = 1;
nodes = (
(271,485,o),
(270,485,o),
(270,487,c),
(272,491,o),
(280,493,o),
(280,489,c),
(280,488,o),
(278,486,o),
(275,486,c)
);
},
{
closed = 1;
nodes = (
(148,602,o),
(146,603,o),
(146,607,c),
(146,614,o),
(153,615,o),
(163,608,c),
(171,603,o),
(171,603,o),
(158,603,c)
);
},
{
closed = 1;
nodes = (
(85,673,o),
(80,674,o),
(79,673,c),
(77,673,o),
(75,675,o),
(73,677,c),
(68,682,o),
(70,682,o),
(93,683,c),
(115,683,o),
(117,683,o),
(113,679,c),
(110,677,o),
(107,676,o),
(105,676,c),
(104,676,o),
(101,674,o),
(99,672,c),
(95,669,o),
(94,669,o),
(88,671,c)
);
},
{
closed = 1;
nodes = (
(289,508,o),
(290,510,o),
(292,512,c),
(294,514,o),
(295,515,o),
(296,512,c),
(296,507,o),
(291,503,o),
(289,506,c)
);
},
{
closed = 1;
nodes = (
(327,481,o),
(327,482,o),
(328,483,c),
(328,485,o),
(330,486,o),
(331,486,c),
(332,486,o),
(333,485,o),
(333,483,c),
(332,482,o),
(330,481,o),
(329,481,c)
);
},
{
closed = 1;
nodes = (
(200,626,o),
(198,626,o),
(198,631,c),
(198,633,o),
(199,635,o),
(201,633,c),
(202,632,o),
(203,631,o),
(202,629,c)
);
},
{
closed = 1;
nodes = (
(156,680,o),
(154,681,o),
(153,683,c),
(153,684,o),
(156,685,o),
(159,685,c),
(162,685,o),
(163,684,o),
(163,683,c),
(163,681,o),
(160,680,o),
(158,680,c)
);
},
{
closed = 1;
nodes = (
(210,659,o),
(213,662,o),
(215,664,c),
(220,667,o),
(220,666,o),
(218,661,c),
(216,654,o),
(211,652,o),
(210,657,c)
);
},
{
closed = 1;
nodes = (
(244,613,o),
(249,615,o),
(253,617,c),
(260,619,o),
(293,622,o),
(296,620,c),
(297,619,o),
(293,617,o),
(289,616,c),
(277,615,o),
(233,610,o),
(240,613,c)
);
},
{
closed = 1;
nodes = (
(335,539,o),
(345,556,o),
(346,554,c),
(347,554,o),
(346,551,o),
(345,547,c),
(343,541,o),
(335,533,o),
(335,536,c)
);
},
{
closed = 1;
nodes = (
(208,682,o),
(208,683,o),
(209,684,c),
(211,684,o),
(213,684,o),
(214,684,c),
(216,683,o),
(214,682,o),
(211,682,c)
);
},
{
closed = 1;
nodes = (
(362,567,o),
(361,567,o),
(361,569,c),
(360,572,o),
(371,579,o),
(376,579,c),
(384,580,o),
(382,573,o),
(375,570,c),
(371,569,o),
(366,568,o),
(364,567,c)
);
},
{
closed = 1;
nodes = (
(375,595,o),
(373,596,o),
(374,598,c),
(375,599,o),
(377,600,o),
(379,600,c),
(381,601,o),
(384,600,o),
(384,599,c),
(384,597,o),
(381,596,o),
(378,595,c)
);
},
{
closed = 1;
nodes = (
(295,675,o),
(295,677,o),
(295,680,c),
(295,683,o),
(297,685,o),
(301,685,c),
(306,685,o),
(306,685,o),
(302,680,c),
(300,677,o),
(297,675,o),
(297,675,c)
);
},
{
closed = 1;
nodes = (
(333,652,o),
(333,652,o),
(335,658,c),
(339,666,o),
(340,667,o),
(340,664,c),
(340,663,o),
(339,660,o),
(336,657,c)
);
},
{
closed = 1;
nodes = (
(446,564,o),
(444,567,o),
(444,574,c),
(445,580,o),
(446,580,o),
(447,576,c),
(448,573,o),
(450,570,o),
(449,569,c)
);
},
{
closed = 1;
nodes = (
(360,674,o),
(359,676,o),
(359,678,c),
(358,681,o),
(359,682,o),
(363,682,c),
(367,682,o),
(368,681,o),
(365,678,c),
(363,676,o),
(361,674,o),
(361,674,c)
);
},
{
closed = 1;
nodes = (
(420,644,o),
(421,656,o),
(424,656,c),
(425,656,o),
(427,653,o),
(427,649,c),
(429,640,o),
(428,639,o),
(423,643,c)
);
},
{
closed = 1;
nodes = (
(408,679,o),
(406,680,o),
(406,682,c),
(403,686,o),
(403,686,o),
(407,684,c),
(410,683,o),
(411,681,o),
(410,680,c)
);
},
{
closed = 1;
nodes = (
);
}
);
width = 520;
}
);
unicode = 7838;
},
{
glyphname = T;
kernLeft = T;
kernRight = T;
lastChange = "2026-05-05 09:22:05 +0000";
layers = (
{
anchors = (
{
name = bottom;
pos = (292,0);
},
{
name = center;
pos = (292,350);
},
{
name = top;
pos = (292,700);
}
);
layerId = m01;
shapes = (
{
closed = 1;
nodes = (
(303,-12,o),
(306,-12,o),
(309,-8,c),
(309,-5,o),
(319,-1,o),
(338,-1,c),
(351,-1,o),
(364,2,o),
(364,2,c),
(364,2,o),
(364,12,o),
(364,19,c),
(354,88,o),
(354,201,o),
(361,473,c),
(361,542,l),
(380,542,l),
(390,542,o),
(432,538,o),
(474,535,c),
(516,531,o),
(551,531,o),
(555,531,c),
(568,535,o),
(568,538,o),
(571,600,c),
(571,631,o),
(573,665,o),
(573,672,c),
(580,700,o),
(573,707,o),
(551,700,c),
(545,700,o),
(516,700,o),
(448,700,c),
(400,700,o),
(351,700,o),
(344,700,c),
(335,700,o),
(306,700,o),
(276,700,c),
(225,696,o),
(222,696,o),
(222,703,c),
(218,710,o),
(209,710,o),
(206,700,c),
(206,696,o),
(206,696,o),
(115,696,c),
(67,696,o),
(18,696,o),
(8,700,c),
(-8,700,o),
(-11,700,o),
(-14,693,c),
(-18,686,o),
(-14,683,o),
(2,683,c),
(15,679,l),
(11,638,l),
(11,617,o),
(11,590,o),
(8,583,c),
(8,569,o),
(8,566,o),
(8,562,c),
(11,559,o),
(22,559,o),
(131,552,c),
(166,552,o),
(199,548,o),
(202,548,c),
(212,548,o),
(212,548,o),
(212,280,c),
(212,132,o),
(209,-1,o),
(209,-5,c),
(212,-9,o),
(215,-8,o),
(247,-5,c),
(270,-5,o),
(290,-5,o),
(292,-8,c)
);
},
{
closed = 1;
nodes = (
(244,9,o),
(241,12,o),
(241,12,c),
(241,16,o),
(244,16,o),
(247,12,c),
(251,9,o),
(251,9,o),
(247,9,c)
);
},
{
closed = 1;
nodes = (
(258,43,o),
(258,43,o),
(258,50,c),
(258,53,o),
(260,60,o),
(260,64,c),
(260,71,o),
(263,74,o),
(263,71,c),
(263,67,o),
(267,64,o),
(270,64,c),
(276,60,o),
(276,57,o),
(276,50,c),
(276,47,o),
(276,47,o),
(267,47,c)
);
},
{
closed = 1;
nodes = (
(312,9,o),
(312,9,o),
(312,12,c),
(315,12,o),
(325,15,o),
(325,15,cs),
(329,15,o),
(319,9,o),
(315,9,c)
);
},
{
closed = 1;
nodes = (
(225,64,o),
(225,64,o),
(228,95,c),
(228,136,o),
(231,139,o),
(231,98,c),
(231,81,o),
(231,67,o),
(228,64,c)
);
},
{
closed = 1;
nodes = (
(344,9,o),
(344,12,o),
(348,16,c),
(351,19,o),
(351,19,o),
(351,12,c),
(351,6,o),
(351,6,o),
(348,9,c)
);
},
{
closed = 1;
nodes = (
(315,43,o),
(312,50,o),
(315,71,c),
(319,84,o),
(319,84,o),
(322,64,c),
(322,50,o),
(325,43,o),
(325,43,c),
(322,43,o),
(322,43,o),
(319,43,c)
);
},
{
closed = 1;
nodes = (
(348,30,o),
(348,43,o),
(348,43,c),
(353,40,o),
(355,33,o),
(355,30,c),
(355,26,o),
(348,26,o),
(348,26,c)
);
},
{
closed = 1;
nodes = (
(344,53,o),
(344,57,o),
(344,57,c),
(344,60,o),
(347,60,o),
(347,53,c),
(347,50,o),
(344,47,o),
(344,50,c)
);
},
{
closed = 1;
nodes = (
(276,129,o),
(274,132,o),
(276,139,c),
(276,146,o),
(289,153,o),
(289,146,c),
(289,143,o),
(280,129,o),
(283,129,c),
(287,122,o),
(287,119,o),
(280,126,c)
);
},
{
closed = 1;
nodes = (
(338,66,o),
(341,74,o),
(338,81,c),
(338,88,o),
(338,88,o),
(341,84,c),
(341,81,o),
(344,74,o),
(341,71,c),
(341,67,o),
(338,63,o),
(338,66,c)
);
},
{
closed = 1;
nodes = (
(258,170,o),
(254,181,o),
(258,181,c),
(258,181,o),
(258,181,o),
(260,177,c),
(260,174,o),
(260,170,o),
(260,170,c)
);
},
{
closed = 1;
nodes = (
(231,212,o),
(228,215,o),
(228,218,c),
(228,222,o),
(231,222,o),
(231,218,c),
(231,218,o),
(231,215,o),
(231,215,c)
);
},
{
closed = 1;
nodes = (
(254,212,o),
(254,215,o),
(254,222,c),
(254,232,o),
(254,232,o),
(254,229,c),
(258,225,o),
(258,218,o),
(254,215,c)
);
},
{
closed = 1;
nodes = (
(54,590,o),
(47,594,o),
(56,594,c),
(63,597,o),
(73,593,o),
(79,590,c),
(86,590,o),
(92,590,o),
(102,593,c),
(108,597,o),
(115,597,o),
(118,597,c),
(125,597,o),
(125,597,o),
(121,590,c),
(118,586,o),
(118,586,o),
(83,586,c)
);
},
{
closed = 1;
nodes = (
(44,614,o),
(44,617,o),
(56,624,c),
(70,631,o),
(73,631,o),
(67,624,c),
(63,617,o),
(63,614,o),
(54,614,c)
);
},
{
closed = 1;
nodes = (
(38,645,o),
(44,648,o),
(44,645,c),
(44,645,o),
(44,641,o),
(40,641,c),
(40,638,o),
(38,638,o),
(38,641,c)
);
},
{
closed = 1;
nodes = (
(44,648,o),
(44,655,o),
(51,655,c),
(51,655,o),
(54,655,o),
(54,652,c),
(54,652,o),
(51,648,o),
(47,648,c)
);
},
{
closed = 1;
nodes = (
(231,476,l),
(231,514,o),
(231,548,o),
(231,548,c),
(231,548,o),
(231,548,o),
(235,548,c),
(235,548,o),
(235,514,o),
(235,476,c),
(232,452,l)
);
},
{
closed = 1;
nodes = (
(38,665,o),
(31,665,o),
(31,672,c),
(31,676,o),
(31,676,o),
(44,676,c),
(60,676,o),
(60,676,o),
(51,669,c)
);
},
{
closed = 1;
nodes = (
(79,672,o),
(83,676,o),
(96,676,c),
(105,676,o),
(115,676,o),
(112,672,c),
(108,672,o),
(86,669,o),
(83,672,c)
);
},
{
closed = 1;
nodes = (
(244,531,o),
(244,545,o),
(247,545,c),
(249,545,o),
(251,541,o),
(247,538,c),
(247,535,o),
(247,531,o),
(247,531,c)
);
},
{
closed = 1;
nodes = (
(332,463,o),
(325,466,o),
(325,504,c),
(325,542,o),
(325,545,o),
(328,545,c),
(332,545,o),
(332,542,o),
(328,531,c),
(328,521,o),
(335,501,o),
(332,487,c)
);
},
{
closed = 1;
nodes = (
(243,634,o),
(249,623,o),
(252,623,c),
(256,623,o),
(258,628,o),
(258,628,c),
(255,633,o),
(247,634,o),
(247,634,c)
);
},
{
closed = 1;
nodes = (
(274,631,o),
(274,634,o),
(276,634,c),
(280,634,o),
(280,634,o),
(280,631,c),
(280,631,o),
(282,626,o),
(278,626,c),
(276,623,o),
(274,631,o),
(274,631,c)
);
},
{
closed = 1;
nodes = (
(231,669,o),
(225,669,o),
(225,672,c),
(225,672,o),
(228,676,o),
(235,676,c),
(238,676,o),
(267,676,o),
(296,676,c),
(325,676,o),
(348,676,o),
(344,676,c),
(344,676,o),
(322,672,o),
(299,672,c),
(274,669,o),
(251,669,o),
(247,669,c)
);
},
{
closed = 1;
nodes = (
(380,610,o),
(380,610,o),
(406,610,c),
(422,610,o),
(432,610,o),
(429,607,c),
(429,603,o),
(425,603,o),
(396,607,c)
);
},
{
closed = 1;
nodes = (
(448,583,o),
(448,583,o),
(451,586,c),
(458,586,o),
(458,586,o),
(461,583,c),
(461,583,o),
(461,583,o),
(454,583,c)
);
},
{
closed = 1;
nodes = (
(367,679,o),
(384,683,o),
(384,679,c),
(380,679,o),
(377,676,o),
(370,676,c),
(364,676,o),
(361,676,o),
(364,676,c)
);
},
{
closed = 1;
nodes = (
(528,559,o),
(528,559,o),
(535,566,c),
(539,569,o),
(542,573,o),
(545,573,c),
(545,573,o),
(545,569,o),
(542,566,c),
(542,559,o),
(542,559,o),
(535,559,c)
);
},
{
closed = 1;
nodes = (
(539,603,o),
(539,607,o),
(542,610,c),
(542,614,o),
(542,617,o),
(539,621,c),
(535,628,o),
(535,628,o),
(539,631,c),
(542,634,o),
(545,634,o),
(545,624,c),
(545,621,o),
(545,610,o),
(545,607,c),
(545,597,o),
(542,597,o),
(542,600,c)
);
},
{
closed = 1;
nodes = (
(548,669,o),
(545,669,o),
(542,676,c),
(539,676,o),
(532,679,o),
(528,679,c),
(526,683,o),
(528,683,o),
(539,683,c),
(551,683,o),
(551,683,o),
(551,679,c),
(551,676,o),
(548,672,o),
(548,672,c)
);
}
);
width = 583;
}
);
unicode = 84;
},
{
glyphname = U;
kernLeft = U;
kernRight = U;
lastChange = "2026-05-05 08:14:50 +0000";
layers = (
{
anchors = (
{
name = bottom;
pos = (249,0);
},
{
name = ogonek;
pos = (327,23);
},
{
name = top;
pos = (249,700);
},
{
name = topright;
pos = (477,700);
}
);
layerId = m01;
shapes = (
{
closed = 1;
nodes = (
(201,-5,o),
(284,2,o),
(320,16,cs),
(333,22,o),
(378,50,o),
(385,57,cs),
(394,64,o),
(414,108,o),
(421,132,cs),
(434,170,o),
(453,280,o),
(462,366,cs),
(466,394,o),
(472,425,o),
(472,435,c),
(479,459,o),
(482,504,o),
(486,535,c),
(486,552,o),
(486,600,o),
(482,600,c),
(482,597,o),
(469,524,o),
(469,504,cs),
(466,466,o),
(466,487,o),
(466,559,cs),
(469,648,o),
(469,696,o),
(462,696,cs),
(459,696,o),
(456,696,o),
(453,693,cs),
(450,689,o),
(446,689,o),
(443,693,c),
(443,696,o),
(437,693,o),
(421,693,c),
(403,690,o),
(355,689,o),
(259,691,c),
(261,667,o),
(262,635,o),
(262,601,cs),
(262,512,o),
(257,403,o),
(253,370,cs),
(252,365,l),
(252,353,o),
(256,342,o),
(256,330,cs),
(256,327,o),
(256,326,o),
(255,322,c),
(255,322,o),
(254,320,o),
(252,320,cs),
(247,320,o),
(239,326,o),
(239,332,cs),
(239,366,o),
(234,402,o),
(233,439,cs),
(233,442,ls),
(233,469,o),
(237,497,o),
(239,524,c),
(236,521,o),
(227,518,o),
(227,521,cs),
(227,528,o),
(230,531,o),
(236,531,cs),
(240,531,l),
(240,541,ls),
(241,555,o),
(241,566,o),
(241,579,cs),
(239,691,l),
(169,693,ls),
(48,693,o),
(43,693,o),
(39,689,cs),
(32,683,o),
(32,672,o),
(36,672,c),
(26,579,ls),
(16,476,o),
(14,418,o),
(14,322,cs),
(14,242,o),
(14,229,o),
(16,232,c),
(19,232,o),
(26,328,o),
(32,387,cs),
(36,432,o),
(36,432,o),
(32,373,cs),
(32,342,o),
(32,311,o),
(30,297,cs),
(26,273,o),
(26,170,o),
(30,150,cs),
(39,98,o),
(59,60,o),
(88,43,c),
(107,29,o),
(129,22,o),
(169,19,cs),
(188,16,o),
(203,16,o),
(207,12,c),
(214,12,o),
(169,12,o),
(142,16,cs),
(104,22,o),
(81,22,o),
(81,22,c),
(81,19,o),
(104,9,o),
(117,5,c),
(123,2,o),
(140,2,o),
(152,-2,c)
);
},
{
closed = 1;
nodes = (
(255,84,o),
(252,84,o),
(250,91,c),
(246,95,o),
(246,95,o),
(259,88,c),
(262,84,o),
(266,81,o),
(266,81,c)
);
},
{
closed = 1;
nodes = (
(158,194,l),
(158,194,o),
(162,191,o),
(162,187,c),
(165,177,o),
(162,177,o),
(158,187,c)
);
},
{
closed = 1;
nodes = (
(330,60,l),
(330,60,o),
(327,57,o),
(317,53,c),
(304,43,o),
(298,43,o),
(304,50,c)
);
},
{
closed = 1;
nodes = (
(156,201,o),
(156,205,o),
(156,212,cs),
(156,222,o),
(156,222,o),
(158,212,c),
(158,208,o),
(162,205,o),
(162,201,c),
(158,201,ls)
);
},
{
closed = 1;
nodes = (
(291,98,o),
(288,98,o),
(288,98,c),
(284,98,o),
(272,105,o),
(272,108,cs),
(272,112,o),
(288,105,o),
(288,98,c)
);
},
{
closed = 1;
nodes = (
(207,205,o),
(203,205,o),
(203,208,cs),
(203,212,ls),
(203,215,o),
(207,212,o),
(207,208,cs),
(207,205,l)
);
},
{
closed = 1;
nodes = (
(117,304,ls),
(117,315,o),
(117,315,o),
(120,311,c),
(126,308,o),
(126,308,o),
(120,301,c),
(120,297,o),
(117,294,o),
(117,294,c)
);
},
{
closed = 1;
nodes = (
(349,71,o),
(349,105,o),
(353,112,c),
(353,115,o),
(356,112,o),
(356,95,cs),
(356,84,o),
(353,74,o),
(353,74,c)
);
},
{
closed = 1;
nodes = (
(140,366,l),
(140,370,l),
(140,359,l)
);
},
{
closed = 1;
nodes = (
(185,322,o),
(185,322,o),
(188,322,cs),
(191,322,o),
(194,322,o),
(194,318,cs),
(194,315,o),
(194,315,o),
(188,318,c)
);
},
{
closed = 1;
nodes = (
(136,380,l),
(136,383,l),
(136,377,l)
);
},
{
closed = 1;
nodes = (
(388,136,o),
(388,139,o),
(392,146,cs),
(394,150,l),
(394,146,o),
(394,143,o),
(392,139,c)
);
},
{
closed = 1;
nodes = (
(188,359,o),
(185,363,o),
(185,363,c),
(185,363,o),
(188,366,o),
(191,366,c),
(194,363,l),
(191,359,l)
);
},
{
closed = 1;
nodes = (
(394,157,l),
(394,160,l),
(398,157,o),
(398,157,o),
(394,153,c)
);
},
{
closed = 1;
nodes = (
(401,170,o),
(398,174,o),
(398,177,cs),
(398,181,o),
(401,181,o),
(401,177,cs),
(401,174,ls)
);
},
{
closed = 1;
nodes = (
(346,218,o),
(343,222,o),
(343,232,c),
(340,246,o),
(340,249,o),
(346,246,c),
(349,246,o),
(349,242,o),
(349,239,cs),
(349,225,l)
);
},
{
closed = 1;
nodes = (
(188,394,o),
(188,397,o),
(191,407,c),
(191,418,o),
(194,414,o),
(194,404,cs),
(194,401,o),
(194,397,o),
(191,394,c)
);
},
{
closed = 1;
nodes = (
(152,535,o),
(152,535,o),
(152,542,c),
(152,542,o),
(152,545,o),
(156,545,c),
(156,538,l)
);
},
{
closed = 1;
nodes = (
(62,638,l),
(62,648,l),
(62,628,l)
);
},
{
closed = 1;
nodes = (
(223,483,o),
(223,487,o),
(223,487,c),
(223,497,l),
(223,497,o),
(227,500,o),
(230,500,cs),
(233,500,o),
(233,497,o),
(233,497,c),
(233,487,l),
(233,487,o),
(230,483,o),
(227,483,cs)
);
},
{
closed = 1;
nodes = (
(113,603,o),
(113,607,o),
(113,628,cs),
(113,645,o),
(113,645,o),
(107,645,cs),
(104,645,o),
(100,645,o),
(100,641,c),
(97,638,o),
(97,638,o),
(97,645,cs),
(97,655,o),
(97,655,o),
(107,655,cs),
(120,655,o),
(120,655,o),
(120,645,c),
(117,641,o),
(120,638,o),
(120,634,c),
(123,634,o),
(123,631,o),
(120,628,c),
(117,621,o),
(117,621,o),
(120,617,cs),
(123,614,o),
(123,614,o),
(120,610,cs)
);
},
{
closed = 1;
nodes = (
(307,500,o),
(307,507,o),
(307,507,c),
(311,507,l),
(311,500,l),
(304,490,o),
(301,487,o),
(304,497,c)
);
},
{
closed = 1;
nodes = (
(353,432,o),
(353,432,o),
(353,442,cs),
(353,445,o),
(356,456,o),
(356,462,c),
(359,473,o),
(359,473,o),
(359,459,cs),
(359,449,o),
(356,442,o),
(356,438,c)
);
},
{
closed = 1;
nodes = (
(298,600,o),
(298,600,o),
(298,603,c),
(301,603,l),
(301,600,l)
);
},
{
closed = 1;
nodes = (
(307,658,l),
(311,662,o),
(311,662,o),
(313,662,c),
(313,662,o),
(317,662,o),
(317,658,c),
(317,658,o),
(313,655,o),
(311,655,c)
);
},
{
closed = 1;
nodes = (
(346,665,o),
(346,665,o),
(356,665,cs),
(372,665,l),
(382,669,o),
(382,669,o),
(376,662,c),
(372,655,o),
(353,655,o),
(349,662,c)
);
},
{
closed = 1;
nodes = (
(417,669,l),
(417,672,l),
(421,672,o),
(421,672,o),
(421,669,cs),
(421,665,l)
);
}
);
width = 497;
}
);
unicode = 85;
},
{
glyphname = V;
kernLeft = V;
kernRight = V;
lastChange = "2026-05-05 09:37:10 +0000";
layers = (
{
layerId = m01;
shapes = (
{
closed = 1;
nodes = (
(300,-26,ls),
(302,-26,o),
(309,-19,o),
(306,-19,c),
(306,-15,o),
(318,16,o),
(325,26,cs),
(338,43,o),
(354,77,o),
(412,229,cs),
(442,304,o),
(490,407,o),
(509,435,c),
(561,528,l),
(561,531,o),
(532,497,o),
(520,476,c),
(513,469,o),
(509,462,o),
(509,462,c),
(506,459,o),
(520,487,o),
(532,518,cs),
(545,548,o),
(558,583,o),
(565,597,cs),
(571,610,o),
(574,621,o),
(577,621,cs),
(581,621,o),
(581,624,o),
(581,631,cs),
(581,634,o),
(590,672,o),
(594,679,cs),
(597,683,o),
(597,689,o),
(594,693,c),
(590,696,o),
(542,696,o),
(380,696,cs),
(318,697,l),
(320,631,ls),
(320,542,o),
(313,433,o),
(308,400,cs),
(307,395,l),
(307,383,o),
(312,372,o),
(312,360,cs),
(312,357,o),
(312,356,o),
(311,352,c),
(311,352,o),
(309,350,o),
(307,350,cs),
(300,350,o),
(290,356,o),
(290,362,cs),
(290,396,o),
(283,432,o),
(282,469,cs),
(282,472,ls),
(282,505,o),
(290,539,o),
(291,571,cs),
(292,585,o),
(292,596,o),
(292,609,cs),
(291,697,l),
(67,700,o),
(18,699,o),
(15,693,c),
(12,693,o),
(12,676,o),
(12,672,c),
(15,672,o),
(44,607,o),
(57,573,cs),
(70,535,o),
(82,500,o),
(102,421,cs),
(122,356,o),
(151,260,o),
(154,256,c),
(160,253,o),
(157,263,o),
(147,311,cs),
(134,359,l),
(134,363,o),
(147,332,o),
(190,218,cs),
(219,143,o),
(244,77,o),
(264,36,cs),
(270,22,o),
(277,5,o),
(277,2,c),
(280,-12,o),
(284,-22,o),
(293,-26,c)
);
},
{
closed = 1;
nodes = (
(293,22,o),
(280,57,o),
(280,60,c),
(280,60,o),
(284,60,o),
(286,57,c),
(293,50,o),
(296,47,o),
(300,47,cs),
(306,47,o),
(306,47,o),
(302,33,cs),
(300,26,o),
(296,22,o),
(296,22,c)
);
},
{
closed = 1;
nodes = (
(251,167,o),
(251,170,o),
(254,170,c),
(254,170,o),
(257,167,o),
(257,160,c),
(261,150,o),
(257,146,o),
(254,157,cs)
);
},
{
closed = 1;
nodes = (
(203,291,o),
(203,294,o),
(196,315,c),
(192,315,o),
(196,315,o),
(199,308,cs),
(203,301,o),
(203,297,o),
(203,294,cs)
);
},
{
closed = 1;
nodes = (
(196,328,o),
(190,335,o),
(186,346,c),
(176,363,o),
(176,363,o),
(180,373,c),
(186,380,o),
(183,380,o),
(192,349,cs),
(196,339,o),
(196,328,o),
(196,328,c)
);
},
{
closed = 1;
nodes = (
(361,198,o),
(361,205,o),
(367,225,cs),
(370,232,l),
(374,229,o),
(370,222,o),
(367,212,cs)
);
},
{
closed = 1;
nodes = (
(251,380,l),
(254,380,o),
(254,377,o),
(254,377,c),
(251,377,l)
);
},
{
closed = 1;
nodes = (
(57,628,o),
(57,631,o),
(53,638,c),
(53,641,o),
(50,645,o),
(50,645,c),
(53,645,o),
(53,641,o),
(57,638,c),
(60,631,o),
(60,628,o),
(60,628,c),
(60,624,o),
(57,624,o),
(57,628,c)
);
},
{
closed = 1;
nodes = (
(50,648,o),
(48,652,o),
(44,658,c),
(41,669,o),
(41,672,o),
(48,672,cs),
(50,672,o),
(50,669,o),
(50,662,cs),
(50,648,l)
);
},
{
closed = 1;
nodes = (
(109,600,o),
(109,600,o),
(109,603,c),
(105,610,o),
(105,610,o),
(109,607,c),
(111,603,o),
(111,600,o),
(111,600,c)
);
},
{
closed = 1;
nodes = (
(313,404,o),
(309,404,o),
(309,407,cs),
(309,411,o),
(313,411,o),
(313,411,c),
(313,404,l)
);
},
{
closed = 1;
nodes = (
(86,641,o),
(86,641,o),
(93,641,cs),
(96,641,o),
(96,638,o),
(96,638,c),
(96,631,o),
(89,631,o),
(89,634,c)
);
},
{
closed = 1;
nodes = (
(192,521,o),
(190,521,o),
(190,528,c),
(186,528,o),
(186,531,o),
(186,531,c),
(199,531,ls),
(215,531,o),
(219,528,o),
(206,524,cs)
);
},
{
closed = 1;
nodes = (
(174,552,o),
(170,562,o),
(170,569,c),
(174,569,o),
(174,573,o),
(176,573,cs),
(180,573,o),
(183,569,o),
(180,566,cs),
(176,562,o),
(176,559,o),
(180,559,c),
(180,555,o),
(180,552,o),
(176,552,cs)
);
},
{
closed = 1;
nodes = (
(77,672,o),
(80,672,o),
(82,672,cs),
(89,672,l),
(86,669,o),
(77,669,o),
(77,669,c)
);
},
{
closed = 1;
nodes = (
(144,631,o),
(141,631,o),
(141,634,c),
(144,634,l),
(147,638,l),
(151,638,o),
(154,638,o),
(154,634,cs),
(154,631,o),
(151,631,o),
(147,631,cs)
);
},
{
closed = 1;
nodes = (
(109,658,o),
(105,658,o),
(102,665,c),
(96,672,o),
(102,672,o),
(134,669,cs),
(167,665,o),
(167,665,o),
(144,662,c),
(115,662,l)
);
},
{
closed = 1;
nodes = (
(351,493,o),
(347,497,o),
(347,500,cs),
(347,504,o),
(351,507,o),
(351,507,c),
(351,507,o),
(354,504,o),
(351,500,c),
(351,493,l)
);
},
{
closed = 1;
nodes = (
(232,624,o),
(221,624,o),
(221,631,c),
(221,631,o),
(219,634,o),
(219,638,cs),
(219,641,o),
(219,641,o),
(228,641,cs),
(235,641,o),
(235,641,o),
(235,634,cs),
(235,631,o),
(232,628,o),
(232,628,c)
);
},
{
closed = 1;
nodes = (
(273,631,o),
(270,634,o),
(261,631,c),
(257,631,o),
(257,631,o),
(257,634,cs),
(257,638,o),
(261,641,o),
(273,638,c),
(289,638,l),
(289,638,o),
(289,634,o),
(286,628,cs),
(284,621,o),
(273,617,o),
(273,624,cs)
);
},
{
closed = 1;
nodes = (
(322,634,l),
(318,638,o),
(322,638,o),
(325,638,cs),
(329,638,l),
(329,634,o),
(329,631,o),
(325,624,cs),
(322,617,o),
(322,617,o),
(322,624,cs)
);
},
{
closed = 1;
nodes = (
(490,521,o),
(490,521,o),
(493,521,c),
(493,518,o),
(493,514,o),
(490,511,c),
(487,504,o),
(487,504,o),
(490,511,c)
);
},
{
closed = 1;
nodes = (
(422,610,o),
(422,614,o),
(422,624,c),
(426,631,o),
(432,631,o),
(432,621,cs),
(432,610,o),
(432,610,o),
(426,610,cs)
);
},
{
closed = 1;
nodes = (
(455,617,l),
(457,624,o),
(461,628,o),
(468,628,cs),
(471,628,o),
(471,628,o),
(464,617,c),
(457,614,o),
(455,607,o),
(455,607,c)
);
},
{
closed = 1;
nodes = (
(493,648,o),
(448,655,o),
(444,655,cs),
(473,655,l),
(516,655,ls),
(529,655,o),
(529,655,o),
(525,652,c),
(522,648,o),
(516,648,o),
(509,648,cs)
);
},
{
closed = 1;
nodes = (
(561,665,o),
(561,669,o),
(565,669,c),
(567,672,o),
(567,672,o),
(565,665,c),
(561,658,o),
(561,658,o),
(561,662,cs)
);
}
);
width = 609;
}
);
unicode = 86;
},
{
glyphname = W;
kernLeft = W;
kernRight = W;
lastChange = "2026-05-05 08:37:37 +0000";
layers = (
{
anchors = (
{
name = bottom;
pos = (349,0);
},
{
name = top;
pos = (349,700);
}
);
layerId = m01;
shapes = (
{
closed = 1;
nodes = (
(542,-29,o),
(546,-29,o),
(549,-22,c),
(556,-12,o),
(565,40,o),
(581,115,c),
(581,126,o),
(585,150,o),
(588,170,cs),
(598,256,o),
(614,335,o),
(646,438,cs),
(675,542,o),
(688,590,o),
(682,583,c),
(682,579,o),
(675,562,o),
(666,542,cs),
(650,504,l),
(652,521,o),
(652,528,o),
(655,528,c),
(655,531,ls),
(652,552,o),
(652,559,o),
(659,600,c),
(666,624,o),
(668,645,o),
(672,641,c),
(672,641,o),
(675,638,o),
(678,634,cs),
(682,628,o),
(684,628,o),
(684,628,c),
(684,631,o),
(682,638,o),
(675,641,c),
(668,655,o),
(668,655,o),
(675,669,cs),
(684,689,o),
(684,689,o),
(598,696,cs),
(559,698,o),
(508,699,o),
(462,699,c),
(462,691,l),
(462,664,l),
(465,665,o),
(470,665,o),
(475,665,c),
(478,662,o),
(475,662,o),
(468,662,cs),
(462,662,l),
(461,580,o),
(457,489,o),
(453,460,cs),
(452,455,l),
(452,443,o),
(456,432,o),
(456,420,cs),
(456,417,o),
(456,416,o),
(455,412,c),
(455,412,o),
(454,410,o),
(452,410,cs),
(447,410,o),
(439,416,o),
(439,422,cs),
(439,456,o),
(434,492,o),
(433,529,cs),
(433,532,ls),
(433,565,o),
(439,599,o),
(440,631,cs),
(441,658,l),
(441,660,l),
(441,669,l),
(441,699,l),
(389,698,o),
(349,697,o),
(349,693,c),
(349,693,o),
(358,689,o),
(368,689,cs),
(401,689,l),
(416,686,o),
(416,686,o),
(407,683,c),
(401,679,o),
(391,679,o),
(371,683,c),
(262,687,l),
(262,599,o),
(257,492,o),
(253,460,cs),
(252,455,l),
(252,443,o),
(256,432,o),
(256,420,cs),
(256,417,o),
(256,416,o),
(255,412,c),
(255,412,o),
(254,410,o),
(252,410,cs),
(247,410,o),
(239,416,o),
(239,422,cs),
(239,456,o),
(234,492,o),
(233,529,cs),
(233,532,ls),
(233,565,o),
(239,599,o),
(240,631,cs),
(241,645,o),
(241,656,o),
(241,669,cs),
(241,687,l),
(109,689,l),
(41,686,o),
(32,686,o),
(25,683,c),
(19,679,o),
(19,676,o),
(19,665,cs),
(19,655,o),
(25,617,o),
(41,524,cs),
(48,493,o),
(55,466,o),
(52,466,c),
(52,466,o),
(45,493,o),
(32,528,c),
(23,562,o),
(12,590,o),
(12,586,cs),
(12,583,o),
(41,459,o),
(64,373,c),
(74,349,o),
(80,315,o),
(86,291,cs),
(113,170,o),
(138,64,o),
(145,47,c),
(149,43,o),
(151,29,o),
(151,22,c),
(158,9,o),
(158,2,o),
(165,-5,c),
(171,-8,o),
(174,-12,o),
(174,-12,c),
(178,-12,o),
(190,2,o),
(190,5,cs),
(190,9,o),
(200,33,o),
(216,64,cs),
(261,153,ls),
(271,174,o),
(277,187,o),
(277,184,cs),
(277,181,o),
(271,167,o),
(268,153,c),
(255,119,o),
(242,67,o),
(242,64,c),
(245,60,o),
(277,139,o),
(297,191,cs),
(313,239,o),
(339,297,o),
(339,297,c),
(342,297,o),
(365,260,o),
(374,236,c),
(403,177,l),
(414,160,o),
(430,129,o),
(439,108,cs),
(448,91,o),
(462,64,o),
(471,50,cs),
(478,36,o),
(484,26,o),
(484,22,cs),
(484,19,o),
(520,-15,o),
(529,-22,c)
);
},
{
closed = 1;
nodes = (
(180,60,l),
(184,60,o),
(184,60,o),
(184,57,c),
(180,57,l)
);
},
{
closed = 1;
nodes = (
(165,129,o),
(165,132,o),
(167,136,c),
(167,139,o),
(171,143,o),
(171,150,cs),
(171,153,o),
(171,157,o),
(174,153,c),
(178,153,o),
(180,153,o),
(180,150,c),
(180,150,o),
(178,139,o),
(174,129,cs),
(167,108,o),
(167,108,o),
(165,122,c)
);
},
{
closed = 1;
nodes = (
(223,143,l),
(226,143,o),
(226,143,o),
(223,139,c),
(223,136,o),
(219,136,o),
(219,139,c)
);
},
{
closed = 1;
nodes = (
(145,198,o),
(135,246,o),
(138,253,c),
(142,270,o),
(145,256,o),
(145,225,c),
(149,212,o),
(149,198,o),
(149,198,c)
);
},
{
closed = 1;
nodes = (
(145,318,o),
(142,325,o),
(142,335,c),
(138,346,o),
(138,349,o),
(142,359,c),
(145,373,o),
(145,373,o),
(145,346,cs),
(145,318,l)
);
},
{
closed = 1;
nodes = (
(203,363,o),
(203,363,o),
(203,366,cs),
(203,370,l),
(203,366,ls)
);
},
{
closed = 1;
nodes = (
(465,126,o),
(465,129,o),
(465,132,c),
(462,143,o),
(462,143,o),
(465,132,c),
(468,129,o),
(468,126,o),
(468,126,c)
);
},
{
closed = 1;
nodes = (
(165,418,o),
(165,418,o),
(165,435,cs),
(165,445,o),
(165,456,o),
(167,456,c),
(167,459,o),
(171,456,o),
(171,449,cs),
(171,442,o),
(167,435,o),
(167,428,c)
);
},
{
closed = 1;
nodes = (
(145,469,l),
(145,466,l),
(145,462,l)
);
},
{
closed = 1;
nodes = (
(203,411,ls),
(203,425,o),
(203,428,o),
(210,428,c),
(212,425,l),
(212,425,o),
(212,414,o),
(207,404,cs),
(203,394,o),
(203,387,o),
(203,390,cs)
);
},
{
closed = 1;
nodes = (
(495,98,o),
(495,102,o),
(491,115,c),
(488,157,o),
(491,242,o),
(491,246,c),
(495,249,o),
(495,239,o),
(495,208,cs),
(495,136,l),
(497,119,o),
(497,105,o),
(495,102,c)
);
},
{
closed = 1;
nodes = (
(129,545,l),
(132,545,o),
(132,542,o),
(129,542,c),
(129,538,o),
(129,538,o),
(129,542,cs)
);
},
{
closed = 1;
nodes = (
(423,242,o),
(419,253,o),
(423,253,c),
(430,260,l),
(436,263,o),
(436,263,o),
(443,260,c),
(448,260,o),
(448,256,o),
(446,246,cs),
(443,215,o),
(443,215,o),
(430,236,c)
);
},
{
closed = 1;
nodes = (
(362,328,o),
(362,335,o),
(365,332,c),
(368,332,o),
(368,335,o),
(371,335,c),
(374,346,o),
(378,342,o),
(374,332,cs),
(371,322,o),
(368,318,o),
(365,325,c)
);
},
{
closed = 1;
nodes = (
(70,665,l),
(84,665,l),
(84,665,o),
(55,662,o),
(55,665,c)
);
},
{
closed = 1;
nodes = (
(219,524,o),
(219,528,o),
(223,521,c),
(226,521,o),
(223,518,o),
(223,511,c),
(216,504,o),
(216,504,o),
(216,511,c)
);
},
{
closed = 1;
nodes = (
(103,634,o),
(103,634,o),
(113,634,cs),
(122,634,l),
(122,631,o),
(119,631,o),
(116,631,cs),
(109,631,l),
(106,628,o),
(103,631,o),
(103,631,c)
);
},
{
closed = 1;
nodes = (
(158,600,ls),
(158,607,o),
(158,607,o),
(158,600,c),
(161,597,o),
(158,593,o),
(158,593,c)
);
},
{
closed = 1;
nodes = (
(223,658,o),
(219,658,o),
(223,662,c),
(229,662,l),
(229,658,o),
(229,658,o),
(226,658,cs)
);
},
{
closed = 1;
nodes = (
(320,590,o),
(326,597,o),
(329,593,c),
(329,590,l),
(326,583,o),
(320,583,o),
(320,586,cs)
);
},
{
closed = 1;
nodes = (
(329,655,l),
(329,652,o),
(329,652,o),
(320,655,c),
(313,655,o),
(313,655,o),
(320,655,cs)
);
},
{
closed = 1;
nodes = (
(588,528,o),
(588,528,o),
(591,528,c),
(591,528,o),
(591,521,o),
(588,518,c),
(585,511,o),
(585,511,o),
(585,518,c)
);
},
{
closed = 1;
nodes = (
(601,552,o),
(598,552,o),
(598,555,cs),
(598,559,o),
(598,559,o),
(601,559,c),
(601,559,o),
(604,559,o),
(601,555,c),
(601,552,l)
);
},
{
closed = 1;
nodes = (
(552,665,l),
(562,665,ls),
(569,665,o),
(578,662,o),
(581,662,cs),
(591,662,o),
(591,662,o),
(588,658,c),
(581,652,o),
(574,655,o),
(562,658,c)
);
}
);
width = 698;
}
);
unicode = 87;
},
